<svg viewBox="0 0 70 60" fill="none" xmlns="http://www.w3.org/2000/svg">
<path fill-rule="evenodd" clip-rule="evenodd" d="M34.9547 19.5496L52.4274 29.6369V49.8189L34.9547 59.91L17.4746 49.819V29.6368L34.9547 19.5496ZM18.5712 30.2701V49.1858L34.9546 58.6437L51.3308 49.1859V30.27L34.9546 20.8157L18.5712 30.2701Z" fill="#030621"/>
<path fill-rule="evenodd" clip-rule="evenodd" d="M34.9567 0L52.1552 9.93646L69.906 20.1822L52.1553 30.4278L34.9567 40.3606L17.7508 30.4279L0 20.1822L34.9567 0ZM34.9566 1.26641L2.19367 20.1822L18.299 29.4781L34.9566 39.0943L51.6069 29.4782L67.7123 20.1822L51.607 10.8862L34.9566 1.26641Z" fill="#030621"/>
<path fill-rule="evenodd" clip-rule="evenodd" d="M34.4102 59.2769V39.7279H35.5068V59.2769H34.4102Z" fill="#030621"/>
<path fill-rule="evenodd" clip-rule="evenodd" d="M18.5712 10.4108V29.9524H17.4746V10.4108H18.5712Z" fill="#030621"/>
<path fill-rule="evenodd" clip-rule="evenodd" d="M52.4286 10.4108V29.9524H51.332V10.4108H52.4286Z" fill="#030621"/>
</svg>
