<svg width="26" height="26" viewBox="0 0 26 26" fill="none" xmlns="http://www.w3.org/2000/svg">
<g opacity="0.56" clip-path="url('#clip0_476_1218')">
<path d="M19.6474 14.1863C18.5319 14.1863 17.4819 13.7105 16.537 12.9374L16.7667 11.8404L16.7732 11.8008C16.9832 10.6377 17.6329 8.6817 19.6474 8.6817C21.1567 8.6817 22.3838 9.91743 22.3838 11.4373C22.3838 12.9572 21.1567 14.1863 19.6474 14.1863ZM19.6474 5.89303C17.0751 5.89303 15.0868 7.57152 14.2731 10.3404C13.0394 8.47023 12.101 6.23005 11.5564 4.3401H8.78716V11.5893C8.78716 13.0233 7.63223 14.1863 6.20825 14.1863C4.78427 14.1863 3.62934 13.0233 3.62934 11.5893V4.3335H0.866699V11.5827C0.866699 14.5498 3.26187 16.9882 6.20825 16.9882C9.15463 16.9882 11.5498 14.5498 11.5498 11.5827V10.3668C12.0879 11.4968 12.7441 12.64 13.5447 13.6445L11.8517 21.6668H14.6799L15.907 15.8516C16.9832 16.5455 18.2169 16.9816 19.6343 16.9816C22.666 16.9816 25.1333 14.4837 25.1333 11.4241C25.1399 8.37772 22.6791 5.89303 19.6474 5.89303Z" fill="#373737"></path>
</g>
<defs>
<clipPath id="clip0_476_1218">
<rect width="24.2667" height="24.2667" fill="white" transform="translate(0.866699 0.866699)"></rect>
</clipPath>
</defs>
</svg>
