<svg width="223" height="52" viewBox="0 0 223 52" fill="none" xmlns="http://www.w3.org/2000/svg">
<path d="M97.7077 40.1399H93.4125V21.0188H97.7077V23.5503C98.6064 22.5688 99.7112 21.7892 100.946 21.265C102.181 20.7409 103.518 20.4845 104.863 20.5134C109.475 20.5134 112.105 23.5148 112.105 28.458V40.1399H107.814V29.3934C107.814 25.6561 105.787 24.4458 103.238 24.4458C102.131 24.4895 101.051 24.7944 100.089 25.3347C99.128 25.875 98.3141 26.6347 97.7167 27.5491L97.7077 40.1399Z" fill="#373737"/>
<path d="M117.301 40.1398V21.0187H121.596V40.1398H117.301Z" fill="#373737"/>
<path d="M117.301 17.3834V13.349H121.596V17.3834H117.301Z" fill="#373737"/>
<path d="M126 38.6993V34.7092C128.348 36.2563 131.124 37.0581 133.953 37.0057C136.668 37.0057 138.248 36.1501 138.248 34.7491C138.248 34.0088 137.768 33.5832 137.053 33.2285C136.444 32.9965 135.822 32.8025 135.188 32.6477L132.762 32.0625C128.309 30.9719 126.204 29.4025 126.204 26.1041C126.204 22.6372 129.264 20.4959 134.469 20.4959C137.451 20.4959 139.877 21.0811 141.665 22.2116V26.0642C139.532 24.8303 137.108 24.1597 134.631 24.1179C131.966 24.1179 130.612 24.9736 130.612 26.2193C130.612 26.9597 131.133 27.3898 131.848 27.74C132.301 27.9351 133.206 28.1833 133.717 28.3252L135.98 28.7907C140.434 29.766 142.661 31.7921 142.661 34.8289C142.661 38.2914 139.243 40.6278 134.152 40.6278C130.852 40.6455 127.711 39.8298 126 38.6993Z" fill="#373737"/>
<path d="M149.576 24.7207H145.403V21.0189H149.576V15.4506H153.871V21.0189H160.031V24.7207H153.871V33.716C153.871 35.8973 154.863 36.7928 156.931 36.7928C157.956 36.801 158.966 36.5603 159.873 36.0923V39.7144C158.968 40.335 157.488 40.6454 155.542 40.6454C151.885 40.6454 149.576 38.6592 149.576 34.9219V24.7207Z" fill="#373737"/>
<path d="M166.118 37.728C165.135 36.8065 164.359 35.695 163.839 34.4639C163.318 33.2328 163.065 31.9091 163.095 30.5769C163.064 29.246 163.317 27.9234 163.838 26.6937C164.358 25.4639 165.135 24.354 166.118 23.4348C168.146 21.4886 170.694 20.5132 173.812 20.5132C176.93 20.5132 179.461 21.4886 181.506 23.4348C182.488 24.3548 183.263 25.4651 183.782 26.6948C184.301 27.9245 184.552 29.2467 184.521 30.5769C184.543 31.9073 184.287 33.2279 183.768 34.4577C183.25 35.6875 182.48 36.8004 181.506 37.728C179.479 39.6742 176.935 40.6451 173.812 40.6451C170.689 40.6451 168.141 39.6742 166.118 37.728ZM178.406 35.1167C179.009 34.5181 179.481 33.805 179.792 33.0213C180.103 32.2375 180.248 31.3996 180.216 30.5592C180.216 28.8907 179.54 27.2906 178.335 26.1108C177.131 24.9311 175.497 24.2683 173.794 24.2683C172.091 24.2683 170.457 24.9311 169.253 26.1108C168.048 27.2906 167.372 28.8907 167.372 30.5592C167.346 31.3981 167.495 32.2333 167.809 33.0143C168.123 33.7953 168.595 34.5058 169.197 35.103C169.799 35.7002 170.518 36.1715 171.311 36.4886C172.105 36.8057 172.955 36.9618 173.812 36.9477C174.664 36.9669 175.512 36.8143 176.301 36.4993C177.09 36.1843 177.805 35.7137 178.401 35.1167H178.406Z" fill="#373737"/>
<path d="M188.373 40.1396V21.0185H192.668V24.3302C193.981 22.1135 196.841 20.5131 199.864 20.5131C199.998 20.5047 200.133 20.5182 200.263 20.553V24.7603C199.866 24.7111 199.467 24.6844 199.068 24.6805C196.008 24.6805 193.582 26.4316 192.668 28.4178V40.1396H188.373Z" fill="#373737"/>
<path d="M69.4021 13.349H59.1689L61.6265 17.3834H69.4021V13.349Z" fill="#373737"/>
<path d="M83.9933 13.349V29.2471C83.9933 34.3499 81.0921 37.1163 76.6793 37.1163C72.2665 37.1163 69.4016 34.341 69.4016 29.2471V20.9389H65.0295V29.083C65.0295 32.9401 66.1021 35.8971 68.252 38.003C70.4018 40.1088 73.2305 41.1063 76.6793 41.1063C80.1281 41.1063 82.9206 40.0645 85.1021 37.9631C87.2836 35.8616 88.3608 32.9002 88.3608 29.0963V13.349H83.9933Z" fill="#373737"/>
<path d="M223 38.7077C223 38.158 222.968 37.6038 222.95 37.0496V20.7659H218.66V33.3433C218.062 34.2587 217.247 35.0189 216.285 35.5593C215.323 36.0996 214.242 36.4041 213.133 36.4467C210.585 36.4467 208.562 35.2408 208.562 31.5035V20.7659H204.267V32.4478C204.267 35.3472 205.172 37.5772 206.842 38.9294C208.345 40.1352 210.096 40.2594 211.499 40.3924C213.337 40.6179 215.203 40.3193 216.872 39.5323C217.499 39.2207 218.085 38.8367 218.619 38.3885V38.6545C218.644 39.2505 218.586 39.8471 218.447 40.4279C217.958 42.4539 216.338 44.7504 214.02 45.3045C213.612 45.4033 213.192 45.4495 212.771 45.442C212.771 45.442 205.077 45.442 204.43 45.4065L207.512 49.534C208.159 49.5694 212.771 49.596 212.771 49.596C215.308 49.566 217.743 48.6186 219.61 46.936C221.217 45.342 222.31 43.3211 222.756 41.1239C222.921 40.3288 223.003 39.5192 223 38.7077Z" fill="#373737"/>
<path d="M21.8222 13.7551C21.6369 13.7647 21.4512 13.7462 21.2719 13.7004L19.3221 12.8418C19.6402 12.5977 20.0174 12.4301 20.4235 12.3586C20.6471 12.3316 20.8734 12.338 21.0947 12.3776L22.9486 13.2888C22.8676 13.3522 22.7818 13.4103 22.692 13.4625C22.426 13.6171 22.13 13.7168 21.8222 13.7551Z" stroke="#373737"/>
<path d="M50.6018 26.587C50.5405 24.0021 50.0968 21.4396 49.2847 18.9794C49.2052 18.7547 49.0524 18.5619 48.8498 18.4309C48.6472 18.2998 48.4061 18.2379 48.1639 18.2545C47.9217 18.2712 47.6919 18.3655 47.51 18.523C47.3281 18.6805 47.2042 18.8923 47.1575 19.1257C46.5914 22.1202 45.155 24.8911 43.0208 27.1057C41.8486 28.2894 37.5806 32.1686 31.5973 31.7741C30.3708 31.6898 27.5239 31.4992 24.9939 29.3712C23.8018 28.3621 22.8711 27.0904 22.2783 25.6605C22.0992 25.242 21.948 24.8125 21.8257 24.3748C22.1143 24.3799 22.4028 24.3695 22.6902 24.3438C22.8643 24.3319 23.0325 24.277 23.179 24.1842C25.0157 23.0679 27.1012 22.4041 29.2569 22.2497C31.4127 22.0953 33.5746 22.4548 35.5575 23.2975C35.782 23.3915 36.0319 23.4103 36.2684 23.3509C36.5049 23.2916 36.7148 23.1575 36.8655 22.9694L39.8436 19.241C39.9726 19.0802 40.0519 18.8866 40.072 18.6831C40.092 18.4795 40.052 18.2746 39.9567 18.0927L38.8207 15.876C38.7159 15.6723 38.548 15.5063 38.341 15.4017L27.2388 9.78903L30.8596 1.49421C30.9547 1.26834 30.9689 1.01757 30.9 0.782758C30.831 0.547941 30.683 0.342903 30.4799 0.201032C30.2768 0.0591606 30.0307 -0.0111857 29.7816 0.00144763C29.5324 0.014081 29.295 0.10895 29.108 0.270606L21.4908 7.13345L20.2417 6.54381L20.5449 4.23846C20.5668 4.06466 20.5454 3.88824 20.4824 3.72436C20.4194 3.56048 20.3167 3.41403 20.1831 3.2976C20.0496 3.18117 19.8891 3.09825 19.7157 3.05595C19.5422 3.01365 19.3608 3.01324 19.1871 3.05476C16.2006 3.7766 13.3738 5.02662 10.8458 6.74331C9.25273 7.84479 7.79345 9.12101 6.49632 10.5471C2.50768 14.7934 0.207801 20.3012 0.0151429 26.0683C-0.0628728 28.3172 0.16081 30.5664 0.680459 32.7583C1.69384 37.1623 3.92422 41.2085 7.12759 44.4542C10.331 47.7 14.3839 50.0202 18.8431 51.1611C22.9268 52.2211 27.2145 52.2774 31.3257 51.3252C32.1492 51.135 32.962 50.9026 33.7607 50.6291C39.0985 48.7449 43.6646 45.2091 46.7683 40.5566C48.2358 38.2968 49.3067 35.8123 49.9365 33.206C50.4481 31.0369 50.6717 28.8122 50.6018 26.587ZM31.4479 33.9287C33.4921 34.0629 35.5426 33.7837 37.472 33.1085C40.1707 32.1488 42.6125 30.6028 44.6139 28.5865C46.0824 27.0818 47.2628 25.3309 48.0989 23.4172C48.6321 26.7208 48.4657 30.0966 47.6101 33.3346C46.451 34.1366 45.2011 34.8046 43.8853 35.3252C41.4483 36.2966 38.8148 36.7018 36.1911 36.5089C32.9529 36.2483 29.8609 35.075 27.2886 33.1307C27.5511 33.2238 27.8181 33.3124 28.0897 33.3922C29.1859 33.6901 30.3119 33.8699 31.4479 33.9287ZM30.8143 49.2238C27.0066 50.1081 23.0331 50.0413 19.2586 49.0297C15.4841 48.018 12.0295 46.0938 9.21189 43.4338C6.03095 40.3946 3.81478 36.5195 2.83029 32.275C2.35956 30.2655 2.16022 28.2041 2.23739 26.1437C2.40388 20.8883 4.49189 15.8664 8.12114 11.9924C9.31027 10.6933 10.643 9.52755 12.0949 8.51666C13.7943 7.35394 15.6473 6.42325 17.603 5.75024L18.1461 5.57291L17.956 7.02705C17.9219 7.25458 17.9633 7.48684 18.0741 7.68959C18.1849 7.89234 18.3593 8.05483 18.5716 8.15312L21.2102 9.3989C21.4096 9.49178 21.6326 9.52451 21.851 9.49293C22.0694 9.46136 22.2733 9.3669 22.4367 9.22156L26.8133 5.27587L24.8038 9.85997C24.6947 10.1113 24.6863 10.3937 24.7803 10.6509C24.8742 10.9081 25.0636 11.1211 25.3107 11.2476L36.9922 17.1661L37.6575 18.4518L35.639 20.9877C33.4581 20.2005 31.125 19.9014 28.8108 20.1123C26.4966 20.3233 24.2599 21.039 22.2648 22.2069C21.7484 22.2321 21.2307 22.2009 20.7214 22.1138C20.6823 22.11 20.6429 22.11 20.6037 22.1138C19.7991 21.9754 19.0353 21.6654 18.3666 21.2057C17.6979 20.746 17.1405 20.1479 16.734 19.4538C16.1107 18.2477 15.961 16.8595 16.3131 15.5524C16.3595 15.4117 16.376 15.2632 16.3615 15.1161C16.347 14.9689 16.3019 14.8262 16.2289 14.6968C16.156 14.5674 16.0567 14.454 15.9372 14.3636C15.8178 14.2733 15.6807 14.2079 15.5344 14.1714C15.3881 14.135 15.2358 14.1283 15.0867 14.1518C14.9377 14.1753 14.7952 14.2285 14.668 14.3081C14.5408 14.3876 14.4316 14.4919 14.3471 14.6144C14.2626 14.7369 14.2047 14.8751 14.1769 15.0204C13.6752 16.8556 13.8965 18.8085 14.7969 20.4912C15.2985 21.3573 15.9703 22.1174 16.7736 22.7277C17.5769 23.338 18.4956 23.7863 19.4768 24.0467C19.513 24.2152 19.5537 24.3881 19.5944 24.5566C19.5453 26.5418 19.766 28.5247 20.2507 30.4529C20.6611 32.0972 21.2831 33.6838 22.1018 35.1745C23.0665 36.9295 24.3345 38.5075 25.8493 39.8383C28.2425 41.8974 31.1243 43.3363 34.2314 44.0234C36.2792 44.4694 38.3886 44.5772 40.4727 44.3426C37.701 46.7071 34.3878 48.3816 30.8143 49.2238ZM43.2607 41.5807C40.5352 42.4051 37.6391 42.5299 34.8503 41.943C32.0614 41.3561 29.4732 40.0772 27.3338 38.229C25.5695 36.6713 24.1891 34.7416 23.2967 32.5854C25.7588 35.0769 29.9906 38.2024 36.0056 38.6635C38.6625 38.8625 41.3326 38.5152 43.8445 37.6438C44.1342 37.5463 44.4193 37.4399 44.7045 37.3291C45.3019 37.0941 45.8857 36.8192 46.4651 36.5311C46.0192 37.5236 45.4988 38.4823 44.9081 39.3994C44.4063 40.1597 43.8561 40.8882 43.2607 41.5807Z" fill="#373737"/>
</svg>
