<svg  viewBox="0 0 24 24" fill="none" xmlns="http://www.w3.org/2000/svg">
<path d="M17.9277 8.86877C17.9277 3.97815 13.9495 0 9.05955 0C4.16956 0 0.191406 3.97815 0.191406 8.86877C0.191406 13.7594 4.16893 17.7363 9.05892 17.7363C13.9495 17.7363 17.9277 13.7588 17.9277 8.86877ZM9.05955 15.51C5.3971 15.51 2.41837 12.53 2.41837 8.86877C2.41837 5.20632 5.39836 2.22633 9.05955 2.22633C12.722 2.22633 15.7014 5.20632 15.7014 8.86877C15.7014 12.5312 12.7214 15.51 9.05955 15.51ZM23.807 22.0396L21.8466 24L15.0328 17.1874L16.9932 15.227L23.807 22.0396Z" fill="white"/>
</svg>
