<svg width="24" height="24" viewBox="0 0 24 24" fill="none" xmlns="http://www.w3.org/2000/svg">
<g clip-path="url(#clip0_1681_33330)">
<path d="M23.8511 11.6396L17.7259 5.51443C17.5354 5.32396 17.1984 5.32396 17.0079 5.51443L15.68 6.84238C15.4817 7.04072 15.4817 7.36223 15.68 7.56057L20.1184 11.9985L15.6803 16.4371C15.4819 16.6355 15.4819 16.957 15.6803 17.1553L17.0082 18.4833C17.1034 18.5785 17.2327 18.6324 17.3673 18.6324C17.5016 18.6324 17.6312 18.5785 17.7264 18.4833L23.8511 12.3583C24.0494 12.1597 24.0494 11.838 23.8511 11.6396Z" fill="black"/>
<path d="M8.31958 16.4367L3.88193 11.9986L8.32035 7.56068C8.41558 7.46544 8.46917 7.33643 8.46917 7.20158C8.46917 7.06698 8.41584 6.93772 8.32035 6.84249L6.9924 5.51454C6.89717 5.41931 6.7679 5.36572 6.63331 5.36572C6.49871 5.36572 6.36944 5.41931 6.27421 5.51454L0.148756 11.6392C-0.0495852 11.8376 -0.0495852 12.1591 0.148756 12.3577L6.27396 18.4826C6.36919 18.5779 6.49846 18.6317 6.63305 18.6317C6.76765 18.6317 6.89691 18.5779 6.99215 18.4826L8.32009 17.1547C8.51843 16.9566 8.51843 16.6351 8.31958 16.4367Z" fill="black"/>
<path d="M15.485 3.45364C15.4205 3.33529 15.3118 3.24742 15.1828 3.20933L14.1063 2.89163C13.8376 2.81189 13.5547 2.96604 13.4754 3.23498L8.47779 20.1595C8.4397 20.2887 8.45443 20.4276 8.51868 20.5457C8.58293 20.6643 8.69188 20.7519 8.82089 20.7903L9.89741 21.108C9.94541 21.1222 9.99392 21.1291 10.0414 21.1291C10.2606 21.1291 10.463 20.9858 10.5282 20.7646L15.5259 3.83991C15.564 3.71064 15.5495 3.57173 15.485 3.45364Z" fill="black"/>
</g>
<defs>
<clipPath id="clip0_1681_33330">
<rect width="24" height="24" fill="white"/>
</clipPath>
</defs>
</svg>
