<svg width="24" height="24" viewBox="0 0 24 24" fill="none" xmlns="http://www.w3.org/2000/svg">
<path d="M0.222656 16.2683C0.762904 16.9522 1.36148 17.5879 2.01166 18.1683C2.00966 18.1113 2.00166 18.0573 2.00166 18.0003C2.00557 16.9854 2.31647 15.9954 2.89349 15.1605C3.47052 14.3256 4.28666 13.6848 5.23466 13.3223C5.40901 13.2564 5.56146 13.143 5.67479 12.995C5.78812 12.8469 5.85781 12.6702 5.87601 12.4847C5.89421 12.2991 5.86019 12.1122 5.77778 11.945C5.69538 11.7778 5.56787 11.6369 5.40966 11.5383C4.97731 11.2712 4.6208 10.8976 4.37426 10.4532C4.12772 10.0088 3.99943 9.50852 4.00166 9.00033C3.99948 8.41773 4.16766 7.8472 4.48552 7.35895C4.80337 6.87069 5.25703 6.48601 5.79067 6.25224C6.32432 6.01846 6.91466 5.94579 7.48907 6.04317C8.06347 6.14055 8.59688 6.40373 9.02366 6.80033C9.64879 6.4415 10.3339 6.19924 11.0457 6.08533C10.6555 5.54031 10.1597 5.07941 9.58773 4.73006C9.01573 4.38072 8.37927 4.15009 7.71626 4.05191C7.05325 3.95374 6.37726 3.99003 5.72857 4.15862C5.07988 4.32721 4.47176 4.62465 3.94045 5.03322C3.40914 5.44179 2.96551 5.95313 2.63599 6.53677C2.30647 7.12041 2.09781 7.76441 2.02243 8.4304C1.94705 9.09639 2.0065 9.77073 2.19724 10.4133C2.38798 11.0558 2.7061 11.6533 3.13266 12.1703C1.69346 13.1338 0.657976 14.592 0.222656 16.2683ZM23.7807 16.2683C23.3458 14.5913 22.3102 13.1323 20.8707 12.1683C21.2958 11.6512 21.6127 11.0538 21.8024 10.4118C21.992 9.76978 22.0507 9.09616 21.9749 8.431C21.899 7.76584 21.6902 7.12272 21.3608 6.53987C21.0315 5.95702 20.5883 5.44635 20.0576 5.0382C19.527 4.63006 18.9196 4.33278 18.2718 4.16403C17.6239 3.99529 16.9488 3.95853 16.2864 4.05593C15.6241 4.15334 14.9881 4.38292 14.4162 4.73103C13.8444 5.07915 13.3484 5.53868 12.9577 6.08232C13.6694 6.19619 14.3545 6.43846 14.9797 6.79733C15.286 6.51553 15.6479 6.30075 16.042 6.16671C16.4361 6.03266 16.8538 5.9823 17.2685 6.01884C17.6831 6.05538 18.0856 6.17801 18.4502 6.37891C18.8148 6.57981 19.1334 6.85455 19.3858 7.18558C19.6382 7.51661 19.8188 7.89665 19.916 8.30142C20.0132 8.70619 20.0249 9.12678 19.9503 9.53632C19.8758 9.94586 19.7166 10.3354 19.483 10.6799C19.2494 11.0244 18.9465 11.3165 18.5937 11.5373C18.4354 11.6359 18.3079 11.7768 18.2255 11.944C18.1431 12.1112 18.1091 12.2981 18.1273 12.4837C18.1455 12.6692 18.2152 12.8459 18.3285 12.9939C18.4419 13.142 18.5943 13.2554 18.7687 13.3213C19.7168 13.6838 20.5331 14.3248 21.1101 15.1599C21.6871 15.995 21.9979 16.9852 22.0017 18.0003C22.0017 18.0573 21.9937 18.1113 21.9917 18.1673C22.6418 17.5873 23.2404 16.9519 23.7807 16.2683Z" fill="black"/>
<path d="M18.9549 20.2836C18.8462 19.2574 18.5136 18.2675 17.9806 17.3838C17.4475 16.5002 16.727 15.7443 15.8699 15.1696C16.6051 14.2772 17.0052 13.1558 17.0009 11.9996C17.0004 11.1985 16.8075 10.4092 16.4383 9.69823C16.0691 8.98725 15.5345 8.3754 14.8794 7.91418C14.2244 7.45297 13.4681 7.15591 12.6743 7.048C11.8805 6.9401 11.0724 7.02452 10.318 7.29415C9.56364 7.56379 8.8851 8.01074 8.33953 8.59737C7.79396 9.184 7.39733 9.89314 7.18305 10.6651C6.96877 11.437 6.94311 12.2491 7.10824 13.033C7.27336 13.8169 7.62442 14.5497 8.13187 15.1696C7.27475 15.7443 6.55422 16.5002 6.02117 17.3838C5.48811 18.2675 5.15552 19.2574 5.04688 20.2836C5.68168 20.6134 6.33937 20.8971 7.01487 21.1326C7.01287 21.0876 7.00087 21.0456 7.00087 20.9996C7.00506 19.9847 7.31607 18.9949 7.89306 18.16C8.47005 17.3251 9.28604 16.6843 10.2339 16.3216C10.4085 16.2557 10.5612 16.1424 10.6747 15.9942C10.7882 15.8461 10.858 15.6692 10.8762 15.4835C10.8944 15.2978 10.8603 15.1107 10.7777 14.9433C10.6951 14.776 10.5674 14.6351 10.4089 14.5366C9.97641 14.2699 9.61978 13.8964 9.37321 13.4522C9.12665 13.0079 8.99843 12.5077 9.00087 11.9996C9.00087 11.2039 9.31695 10.4409 9.87955 9.87827C10.4422 9.31566 11.2052 8.99959 12.0009 8.99959C12.7965 8.99959 13.5596 9.31566 14.1222 9.87827C14.6848 10.4409 15.0009 11.2039 15.0009 11.9996C15.0033 12.5077 14.8751 13.0079 14.6285 13.4522C14.382 13.8964 14.0253 14.2699 13.5929 14.5366C13.4344 14.6351 13.3066 14.776 13.224 14.9433C13.1414 15.1107 13.1073 15.2978 13.1255 15.4835C13.1437 15.6692 13.2135 15.8461 13.3271 15.9942C13.4406 16.1424 13.5933 16.2557 13.7679 16.3216C14.7157 16.6843 15.5317 17.3251 16.1087 18.16C16.6857 18.9949 16.9967 19.9847 17.0009 20.9996C17.0009 21.0456 16.9889 21.0876 16.9879 21.1326C17.663 20.8971 18.3204 20.6134 18.9549 20.2836Z" fill="black"/>
</svg>
