<svg viewBox="0 0 32 32" fill="none" xmlns="http://www.w3.org/2000/svg">
<rect x="0.5" y="0.5" width="31" height="31" rx="3.5" stroke="currentColor"/>
<path d="M9.617 8.33437C9.61669 8.95317 9.37318 9.54651 8.94004 9.98385C8.5069 10.4212 7.9196 10.6667 7.30735 10.6664C6.69509 10.6661 6.10804 10.42 5.67533 9.9822C5.24262 9.54442 4.99969 8.95084 5 8.33204C5.00031 7.71323 5.24382 7.1199 5.67696 6.68255C6.1101 6.24521 6.6974 5.99969 7.30965 6C7.92191 6.00031 8.50896 6.24643 8.94167 6.6842C9.37438 7.12198 9.61731 7.71557 9.617 8.33437ZM9.68625 12.3941H5.06926V27H9.68625V12.3941ZM16.9811 12.3941H12.3872V27H16.9349V19.3354C16.9349 15.0657 22.4407 14.669 22.4407 19.3354V27H27V17.7488C27 10.5509 18.851 10.8192 16.9349 14.354L16.9811 12.3941Z" fill="currentColor"/>
</svg>
