<svg viewBox="0 0 181 180" fill="none" xmlns="http://www.w3.org/2000/svg">
<path d="M79.7598 96.875C76.6947 96.875 74.21 99.346 74.21 102.394V118.856C74.21 121.904 76.6948 124.375 79.7598 124.375H106.79C114.776 124.375 121.27 118.208 121.27 110.625C121.27 103.042 114.776 96.875 106.79 96.875H79.7598Z" fill="url(#paint0_radial_2946_11036)"/>
<path d="M103.17 55.625H79.7598C76.6947 55.625 74.21 58.096 74.21 61.1442V77.6058C74.21 80.654 76.6947 83.125 79.7598 83.125H103.17C111.156 83.125 117.65 76.9581 117.65 69.375C117.65 61.7919 111.156 55.625 103.17 55.625Z" fill="url(#paint1_radial_2946_11036)"/>
<path fill-rule="evenodd" clip-rule="evenodd" d="M90.5 180C140.482 180 181 139.706 181 90C181 40.2944 140.482 0 90.5 0C40.5182 0 0 40.2944 0 90C0 139.706 40.5182 180 90.5 180ZM54.1802 124.375C57.2453 124.375 59.73 121.904 59.73 118.856V61.1442C59.73 58.096 57.2453 55.625 54.1802 55.625H50.7998C47.7347 55.625 45.25 53.154 45.25 50.1058V47.3942C45.25 44.346 47.7347 41.875 50.7998 41.875H61.4202C64.4853 41.875 66.97 39.404 66.97 36.3558V33.6442C66.97 30.596 69.4547 28.125 72.5198 28.125H75.9002C78.9653 28.125 81.45 30.596 81.45 33.6442V36.3558C81.45 39.404 83.9347 41.875 86.9998 41.875H90.3802C93.4453 41.875 95.93 39.404 95.93 36.3558V33.6442C95.93 30.596 98.4147 28.125 101.48 28.125H104.86C107.925 28.125 110.41 30.596 110.41 33.6442V38.5337C110.41 41.0701 112.174 43.2301 114.535 44.1894C124.86 48.3842 132.13 58.0564 132.13 69.375C132.127 74.3411 130.703 79.1693 128.07 83.3681C126.23 86.3021 126.553 90.3689 128.868 92.9495C133.148 97.7228 135.75 103.877 135.75 110.625C135.75 122.987 127.081 133.373 115.226 136.797C112.53 137.576 110.41 139.875 110.41 142.667V146.356C110.41 149.404 107.925 151.875 104.86 151.875H101.48C98.4147 151.875 95.93 149.404 95.93 146.356V143.644C95.93 140.596 93.4453 138.125 90.3802 138.125H86.9998C83.9347 138.125 81.45 140.596 81.45 143.644V146.356C81.45 149.404 78.9653 151.875 75.9002 151.875H72.5198C69.4547 151.875 66.97 149.404 66.97 146.356V143.644C66.97 140.596 64.4853 138.125 61.4202 138.125H50.7998C47.7347 138.125 45.25 135.654 45.25 132.606V129.894C45.25 126.846 47.7347 124.375 50.7998 124.375H54.1802Z" fill="url(#paint2_radial_2946_11036)"/>
<path d="M180.63 90C180.63 139.5 140.28 179.63 90.5 179.63C40.7204 179.63 0.369502 139.5 0.369502 90C0.369502 40.5004 40.7204 0.369502 90.5 0.369502C140.28 0.369502 180.63 40.5004 180.63 90ZM50.7998 55.9945H54.1802C57.0431 55.9945 59.3605 58.302 59.3605 61.1442V118.856C59.3605 121.698 57.0431 124.006 54.1802 124.006H50.7998C47.5326 124.006 44.8805 126.64 44.8805 129.894V132.606C44.8805 135.86 47.5326 138.495 50.7998 138.495H61.4202C64.2831 138.495 66.6005 140.802 66.6005 143.644V146.356C66.6005 149.61 69.2526 152.245 72.5198 152.245H75.9002C79.1674 152.245 81.8195 149.61 81.8195 146.356V143.644C81.8195 140.802 84.1369 138.495 86.9998 138.495H90.3802C93.2431 138.495 95.5605 140.802 95.5605 143.644V146.356C95.5605 149.61 98.2126 152.245 101.48 152.245H104.86C108.127 152.245 110.779 149.61 110.779 146.356V142.667C110.779 140.074 112.754 137.896 115.329 137.152C127.324 133.687 136.12 123.17 136.12 110.625C136.12 103.779 133.479 97.5386 129.143 92.7028C126.94 90.2465 126.63 86.3607 128.383 83.5644C131.052 79.3083 132.497 74.4123 132.499 69.3752C132.499 57.8902 125.123 48.0923 114.674 43.8471C112.422 42.932 110.779 40.8894 110.779 38.5337V33.6442C110.779 30.39 108.127 27.7555 104.86 27.7555H101.48C98.2126 27.7555 95.5605 30.39 95.5605 33.6442V36.3558C95.5605 39.198 93.2431 41.5055 90.3802 41.5055H86.9998C84.1369 41.5055 81.8195 39.198 81.8195 36.3558V33.6442C81.8195 30.39 79.1674 27.7555 75.9002 27.7555H72.5198C69.2526 27.7555 66.6005 30.39 66.6005 33.6442V36.3558C66.6005 39.198 64.2831 41.5055 61.4202 41.5055H50.7998C47.5326 41.5055 44.8805 44.14 44.8805 47.3942V50.1058C44.8805 53.36 47.5326 55.9945 50.7998 55.9945ZM74.5795 118.856V102.394C74.5795 99.552 76.8969 97.2445 79.7598 97.2445H106.79C114.59 97.2445 120.901 103.264 120.901 110.625C120.901 117.986 114.59 124.006 106.79 124.006H79.7598C76.8969 124.006 74.5795 121.698 74.5795 118.856ZM79.7598 55.9945H103.17C110.97 55.9945 117.281 62.0137 117.281 69.375C117.281 76.7363 110.97 82.7555 103.17 82.7555H79.7598C76.8969 82.7555 74.5795 80.448 74.5795 77.6058V61.1442C74.5795 58.302 76.8969 55.9945 79.7598 55.9945Z" stroke="url(#paint3_linear_2946_11036)" stroke-opacity="0.3" stroke-width="0.739004"/>
<defs>
<radialGradient id="paint0_radial_2946_11036" cx="0" cy="0" r="1" gradientUnits="userSpaceOnUse" gradientTransform="translate(12.9286 6.48) rotate(45.9138) scale(241.572 202.005)">
<stop stop-color="#C3C3C3" stop-opacity="0.7"/>
<stop offset="1" stop-color="#F0F0F0" stop-opacity="0.1"/>
</radialGradient>
<radialGradient id="paint1_radial_2946_11036" cx="0" cy="0" r="1" gradientUnits="userSpaceOnUse" gradientTransform="translate(12.9286 6.48) rotate(45.9138) scale(241.572 202.005)">
<stop stop-color="#C3C3C3" stop-opacity="0.7"/>
<stop offset="1" stop-color="#F0F0F0" stop-opacity="0.1"/>
</radialGradient>
<radialGradient id="paint2_radial_2946_11036" cx="0" cy="0" r="1" gradientUnits="userSpaceOnUse" gradientTransform="translate(12.9286 6.48) rotate(45.9138) scale(241.572 202.005)">
<stop stop-color="#C3C3C3" stop-opacity="0.7"/>
<stop offset="1" stop-color="#F0F0F0" stop-opacity="0.1"/>
</radialGradient>
<linearGradient id="paint3_linear_2946_11036" x1="0" y1="0" x2="125.495" y2="141.767" gradientUnits="userSpaceOnUse">
<stop offset="0.291666" stop-opacity="0.32"/>
<stop offset="1" stop-color="#BEBEBE" stop-opacity="0.23"/>
</linearGradient>
</defs>
</svg>
