<svg viewBox="0 0 181 181" fill="none" xmlns="http://www.w3.org/2000/svg">
<path fill-rule="evenodd" clip-rule="evenodd" d="M90.5 181C140.482 181 181 140.482 181 90.5C181 40.5182 140.482 0 90.5 0C40.5182 0 0 40.5182 0 90.5C0 140.482 40.5182 181 90.5 181ZM57.063 95.1511C53.7037 93.2357 52.6128 88.9099 54.6621 85.6305L84.7275 37.5187C87.3935 33.2525 93.6065 33.2525 96.2725 37.5187L126.338 85.6305C128.387 88.9099 127.296 93.2357 123.937 95.1511L93.8716 112.293C91.7818 113.485 89.2182 113.485 87.1284 112.293L57.063 95.1511ZM78.906 114.955C72.5211 111.29 65.6722 118.961 70.034 124.892L85.0164 145.263C87.7366 148.961 93.2634 148.961 95.9836 145.263L110.966 124.892C115.328 118.961 108.479 111.29 102.094 114.955L93.8885 119.665C91.79 120.869 89.21 120.869 87.1115 119.665L78.906 114.955Z" fill="url(#paint0_radial_2946_11035)"/>
<path d="M180.63 90.5C180.63 140.278 140.278 180.63 90.5 180.63C40.7223 180.63 0.369502 140.278 0.369502 90.5C0.369502 40.7223 40.7223 0.369502 90.5 0.369502C140.278 0.369502 180.63 40.7223 180.63 90.5ZM54.3487 85.4346C52.1882 88.8921 53.3383 93.4527 56.88 95.4721L86.9454 112.614C89.1487 113.871 91.8513 113.871 94.0546 112.614L124.12 95.4721C127.662 93.4527 128.812 88.8921 126.651 85.4346L96.5859 37.3229C93.7752 32.8251 87.2248 32.8251 84.4141 37.3229L54.3487 85.4346ZM79.09 114.634C72.3585 110.771 65.1377 118.858 69.7363 125.11L84.7187 145.482C87.5866 149.381 93.4134 149.381 96.2813 145.482L111.264 125.11C115.862 118.858 108.642 110.771 101.91 114.634L93.7045 119.344C91.72 120.483 89.28 120.483 87.2955 119.344L79.09 114.634Z" stroke="url(#paint1_linear_2946_11035)" stroke-opacity="0.3" stroke-width="0.739004"/>
<defs>
<radialGradient id="paint0_radial_2946_11035" cx="0" cy="0" r="1" gradientUnits="userSpaceOnUse" gradientTransform="translate(12.9286 6.516) rotate(46.0724) scale(242.266 202.545)">
<stop stop-color="#D7D7D7" stop-opacity="0.7"/>
<stop offset="0.0001" stop-color="#C3C3C3" stop-opacity="0.7"/>
<stop offset="0.366666" stop-color="#C3C3C3" stop-opacity="0.480038"/>
<stop offset="1" stop-color="#F0F0F0" stop-opacity="0.1"/>
</radialGradient>
<linearGradient id="paint1_linear_2946_11035" x1="0" y1="0" x2="126.275" y2="141.86" gradientUnits="userSpaceOnUse">
<stop offset="0.291666" stop-opacity="0.32"/>
<stop offset="1" stop-color="#BEBEBE" stop-opacity="0.23"/>
</linearGradient>
</defs>
</svg>
