<svg width="226" height="226" viewBox="0 0 226 226" fill="none" xmlns="http://www.w3.org/2000/svg">
<path d="M174.451 151.927C182.61 162.875 191.024 174.079 199.438 185.281C182.61 205.142 161.702 217.872 136.459 223.219C108.412 229.075 81.8944 224.747 56.1419 210.488C79.0897 193.429 101.528 176.624 124.221 159.82C129.32 164.658 134.165 169.496 139.009 174.079C144.363 179.171 142.324 179.425 149.208 175.606C158.642 170.259 166.547 162.875 172.666 153.964C172.921 153.454 173.43 152.945 173.685 152.436C173.43 152.436 173.685 152.436 174.451 151.927V151.927ZM74.2451 174.333C67.8707 179.171 62.0062 183.499 56.1419 188.082C51.8072 191.392 47.4727 194.447 43.138 197.757C41.3532 199.285 40.0784 199.285 38.0385 197.503C18.6603 180.189 6.42147 158.801 1.8319 133.34C-2.75767 107.624 1.32196 83.1812 13.5608 60.0114C13.8158 59.5022 14.3257 58.7383 14.5807 58.2291C14.5807 57.9745 14.8356 57.9745 15.3457 57.7199C32.174 79.8712 49.2575 102.023 66.0859 124.174C65.5759 124.938 65.321 125.447 64.8111 125.956C59.7114 131.303 54.6119 136.65 49.2575 141.743C47.7276 143.27 47.4727 144.543 48.4925 146.326C53.8471 156.51 61.2414 164.912 70.4205 171.787C71.6954 172.55 72.7153 173.315 74.2451 174.333V174.333ZM169.352 16.2179C161.192 22.074 153.033 27.9301 144.873 33.5316C130.85 43.4616 116.826 53.6461 103.057 63.576C101.273 64.849 99.9973 65.1037 98.4678 63.3214C93.8782 58.4837 89.0337 54.1553 84.4441 49.3176C83.1693 48.0446 81.8944 47.7899 80.1096 48.5538C69.1456 54.1553 60.4764 62.0483 53.337 71.9782C52.8271 72.4875 52.3172 73.2513 51.8072 74.0151C47.7276 68.6683 43.903 63.8306 40.0784 58.7383C35.9987 53.3914 32.174 48.0446 28.3494 42.9522C27.0745 41.17 26.8196 39.8969 28.6043 38.1146C48.2375 16.4725 72.4603 3.74182 101.528 0.686425C124.476 -1.85975 146.404 2.72338 166.801 13.6717C167.566 14.181 168.331 14.4356 169.097 14.9448C169.097 15.7086 169.097 15.9632 169.352 16.2179V16.2179ZM210.913 168.986C205.557 162.111 200.713 155.746 195.868 149.38C184.65 134.613 173.43 119.591 161.957 104.824C160.427 102.786 160.427 101.514 162.212 99.7316C167.056 94.8931 171.646 90.0558 176.49 85.2182C177.765 83.9451 178.275 82.672 177.255 80.8897C171.646 70.1959 163.996 61.2845 154.052 54.1553C153.288 53.6461 152.523 52.8822 151.503 52.373C152.268 51.6091 153.033 51.0999 153.543 50.5907C163.232 43.2069 172.921 36.0777 182.61 28.6939C184.14 27.4209 185.415 26.9116 187.199 28.6939C211.423 50.5907 224.426 77.8344 225.701 110.68C226.211 129.776 221.876 147.853 213.207 164.912C212.442 165.931 211.677 167.204 210.913 168.986V168.986Z" fill="#373737"/>
</svg>
