<svg width="122" height="60" viewBox="0 0 122 60" fill="none" xmlns="http://www.w3.org/2000/svg">
<mask id="path-1-inside-1_595_723" fill="white">
<path d="M90.8449 18.1551C86.9913 14.3014 82.4164 11.2446 77.3814 9.159C72.3463 7.07343 66.9498 6 61.5 6C56.0501 6 50.6536 7.07343 45.6186 9.159C40.5836 11.2446 36.0087 14.3014 32.1551 18.1551L32.8824 18.8825C36.6406 15.1243 41.1021 12.1433 46.0123 10.1094C50.9225 8.0755 56.1852 7.02868 61.5 7.02868C66.8148 7.02867 72.0775 8.07549 76.9877 10.1094C81.8979 12.1432 86.3594 15.1243 90.1175 18.8824L90.8449 18.1551Z"/>
</mask>
<path d="M90.8449 18.1551C86.9913 14.3014 82.4164 11.2446 77.3814 9.159C72.3463 7.07343 66.9498 6 61.5 6C56.0501 6 50.6536 7.07343 45.6186 9.159C40.5836 11.2446 36.0087 14.3014 32.1551 18.1551L32.8824 18.8825C36.6406 15.1243 41.1021 12.1433 46.0123 10.1094C50.9225 8.0755 56.1852 7.02868 61.5 7.02868C66.8148 7.02867 72.0775 8.07549 76.9877 10.1094C81.8979 12.1432 86.3594 15.1243 90.1175 18.8824L90.8449 18.1551Z" stroke="white" stroke-width="2" mask="url(#path-1-inside-1_595_723)"/>
<circle cx="113.5" cy="6.5" r="5" fill="#1275D3" stroke="white"/>
<circle cx="8.5" cy="6.5" r="5" fill="#1275D3" stroke="white"/>
<line x1="13" y1="6.5" x2="109" y2="6.5" stroke="white"/>
<rect x="55.5" y="0.5" width="13" height="13" fill="#1275D3" stroke="white"/>
<rect x="90.5" y="18.5" width="7" height="7" stroke="white"/>
<rect x="25.5" y="18.5" width="7" height="7" stroke="white"/>
<rect x="49.5" y="55.5" width="26" height="4" stroke="white"/>
<rect x="54.5" y="52.5" width="15" height="2" stroke="white"/>
<mask id="path-10-inside-2_595_723" fill="white">
<path fill-rule="evenodd" clip-rule="evenodd" d="M67.1487 52.7518C67.1487 52.8347 67.1493 52.9174 67.1505 53H56.8495C56.8508 52.9174 56.8514 52.8347 56.8514 52.7518C56.8514 47.294 54.166 42.441 50 39.3548L61.0209 17H62.9793L74.0001 39.3548C69.8341 42.441 67.1487 47.2939 67.1487 52.7518Z"/>
</mask>
<path fill-rule="evenodd" clip-rule="evenodd" d="M67.1487 52.7518C67.1487 52.8347 67.1493 52.9174 67.1505 53H56.8495C56.8508 52.9174 56.8514 52.8347 56.8514 52.7518C56.8514 47.294 54.166 42.441 50 39.3548L61.0209 17H62.9793L74.0001 39.3548C69.8341 42.441 67.1487 47.2939 67.1487 52.7518Z" fill="white"/>
<path d="M67.1505 53V54H68.1656L68.1504 52.9851L67.1505 53ZM56.8495 53L55.8497 52.9851L55.8345 54H56.8495V53ZM50 39.3548L49.1031 38.9126L48.7339 39.6614L49.4047 40.1584L50 39.3548ZM61.0209 17V16H60.3989L60.1239 16.5578L61.0209 17ZM62.9793 17L63.8762 16.5578L63.6012 16H62.9793V17ZM74.0001 39.3548L74.5954 40.1583L75.2662 39.6614L74.897 38.9126L74.0001 39.3548ZM68.1504 52.9851C68.1493 52.9075 68.1487 52.8297 68.1487 52.7518H66.1487C66.1487 52.8397 66.1493 52.9274 66.1506 53.0149L68.1504 52.9851ZM56.8495 54H67.1505V52H56.8495V54ZM55.8514 52.7518C55.8514 52.8297 55.8508 52.9075 55.8497 52.9851L57.8494 53.0149C57.8507 52.9274 57.8514 52.8397 57.8514 52.7518H55.8514ZM49.4047 40.1584C53.3343 43.0694 55.8514 47.6328 55.8514 52.7518H57.8514C57.8514 46.9552 54.9977 41.8126 50.5953 38.5513L49.4047 40.1584ZM60.1239 16.5578L49.1031 38.9126L50.8969 39.797L61.9178 17.4422L60.1239 16.5578ZM62.9793 16H61.0209V18H62.9793V16ZM74.897 38.9126L63.8762 16.5578L62.0823 17.4422L73.1032 39.797L74.897 38.9126ZM68.1487 52.7518C68.1487 47.6327 70.6657 43.0694 74.5954 40.1583L73.4048 38.5513C69.0024 41.8126 66.1487 46.9552 66.1487 52.7518H68.1487Z" fill="white" mask="url(#path-10-inside-2_595_723)"/>
<circle cx="62.0001" cy="37" r="3.5" fill="#1275D3" stroke="white"/>
<rect x="61.5" y="17" width="1" height="17" fill="#1275D3"/>
</svg>
