<svg width="95" height="54" viewBox="0 0 95 54" fill="none" xmlns="http://www.w3.org/2000/svg">
<rect x="29.9999" width="20" height="30" rx="3.1126" transform="rotate(90 29.9999 0)" fill="#FAFAFA"/>
<path d="M29.9999 10H74.9999C77.7614 10 79.9999 12.2386 79.9999 15V22C79.9999 24.7614 77.7614 27 74.9999 27H19.9999C17.2385 27 14.9999 29.2386 14.9999 32V39C14.9999 41.7614 17.2385 44 19.9999 44H64.9999" stroke="white" stroke-dasharray="5 5"/>
<rect x="94.9999" y="34" width="20" height="30" rx="3.1126" transform="rotate(90 94.9999 34)" fill="#FAFAFA"/>
<rect x="53.4999" y="20.5" width="13" height="13" rx="3.6126" transform="rotate(90 53.4999 20.5)" fill="#1275D3" stroke="white"/>
<path fill-rule="evenodd" clip-rule="evenodd" d="M9.94969 4.94967C9.55916 5.34019 9.55916 5.97336 9.94969 6.36388L13.4852 9.89941L9.94969 13.4349C9.55916 13.8255 9.55916 14.4586 9.94969 14.8492C10.3402 15.2397 10.9734 15.2397 11.3639 14.8492L14.8994 11.3136L18.435 14.8492C18.8255 15.2397 19.4587 15.2397 19.8492 14.8492C20.2397 14.4586 20.2397 13.8255 19.8492 13.4349L16.3136 9.89941L19.8492 6.36388C20.2397 5.97336 20.2397 5.34019 19.8492 4.94967C19.4587 4.55914 18.8255 4.55914 18.435 4.94967L14.8994 8.4852L11.3639 4.94967C10.9734 4.55914 10.3402 4.55914 9.94969 4.94967Z" fill="#1275D3"/>
<path fill-rule="evenodd" clip-rule="evenodd" d="M79.8994 36.8994C79.3472 36.8994 78.8994 37.3471 78.8994 37.8994V42.8994H73.8994C73.3472 42.8994 72.8994 43.3471 72.8994 43.8994C72.8994 44.4517 73.3472 44.8994 73.8994 44.8994H78.8994V49.8994C78.8994 50.4517 79.3472 50.8994 79.8994 50.8994C80.4517 50.8994 80.8994 50.4517 80.8994 49.8994V44.8994H85.8994C86.4517 44.8994 86.8994 44.4517 86.8994 43.8994C86.8994 43.3471 86.4517 42.8994 85.8994 42.8994H80.8994V37.8994C80.8994 37.3471 80.4517 36.8994 79.8994 36.8994Z" fill="#1275D3"/>
</svg>
