<svg width="26" height="26" viewBox="0 0 26 26" fill="none" xmlns="http://www.w3.org/2000/svg">
<g opacity="0.56" clip-path="url(#clip0_476_1215)">
<path d="M21.0689 4.39295C18.8466 2.11795 15.8871 0.866699 12.7419 0.866699C6.25007 0.866699 0.967472 6.2617 0.967472 12.8917C0.967472 15.0096 1.50846 17.0788 2.5374 18.9042L0.866699 25.1334L7.10929 23.4596C8.82773 24.4184 10.7636 24.9221 12.7366 24.9221H12.7419C19.2285 24.9221 24.6278 19.5271 24.6278 12.8971C24.6278 9.68503 23.2912 6.66795 21.0689 4.39295V4.39295ZM12.7419 22.8963C10.9811 22.8963 9.25734 22.4142 7.75636 21.5042L7.401 21.2875L3.69894 22.2788L4.68545 18.59L4.45208 18.2109C3.47087 16.6184 2.9564 14.7821 2.9564 12.8917C2.9564 7.38295 7.34797 2.89795 12.7473 2.89795C15.362 2.89795 17.8177 3.93795 19.6634 5.82837C21.5092 7.71878 22.6442 10.2267 22.6389 12.8971C22.6389 18.4113 18.1359 22.8963 12.7419 22.8963V22.8963ZM18.1094 15.4104C17.8177 15.2588 16.3698 14.5329 16.0993 14.4354C15.8288 14.3325 15.6325 14.2838 15.4363 14.5871C15.24 14.8904 14.6778 15.5621 14.5028 15.7679C14.3331 15.9684 14.1581 15.9954 13.8664 15.8438C12.1373 14.9609 11.0023 14.2675 9.86198 12.2688C9.55966 11.7379 10.1643 11.7759 10.7265 10.6275C10.822 10.4271 10.7742 10.2538 10.7 10.1021C10.6257 9.95045 10.037 8.4717 9.79303 7.87045C9.55435 7.28545 9.31038 7.3667 9.13005 7.35587C8.96033 7.34503 8.76408 7.34503 8.56784 7.34503C8.3716 7.34503 8.05337 7.42087 7.78288 7.71878C7.51238 8.02212 6.75394 8.74795 6.75394 10.2267C6.75394 11.7054 7.8094 13.1354 7.9526 13.3359C8.10111 13.5363 10.0264 16.5696 12.9806 17.875C14.8476 18.6984 15.5795 18.7688 16.513 18.6279C17.0805 18.5413 18.2526 17.9021 18.4966 17.1979C18.7406 16.4938 18.7406 15.8925 18.6663 15.7679C18.5974 15.6325 18.4011 15.5567 18.1094 15.4104Z" fill="#373737"/>
</g>
<defs>
<clipPath id="clip0_476_1215">
<rect width="24.2667" height="24.2667" fill="white" transform="translate(0.866699 0.866699)"/>
</clipPath>
</defs>
</svg>
