<svg width="24" height="24" viewBox="0 0 24 24" fill="none" xmlns="http://www.w3.org/2000/svg">
<rect x="0.5" y="0.5" width="23" height="23" rx="11.5" fill="#111111"/>
<rect x="0.5" y="0.5" width="23" height="23" rx="11.5" stroke="url(#paint0_linear_354_210)"/>
<path d="M9.625 6.10425L10.6684 7.09551C11.0597 7.46071 11.2684 7.95635 11.2684 8.50415C11.2684 9.02587 11.4771 9.5215 11.8423 9.88671L11.9727 10.0171L13.1727 6.13033" fill="white"/>
<path d="M6.0791 9.57324L7.51383 9.52107C8.03555 9.49498 8.55726 9.70367 8.92245 10.0689C9.28766 10.4341 9.78329 10.6167 10.305 10.6167H10.4876L8.55726 7.04291" fill="white"/>
<path d="M6.07826 14.5303L7.04344 13.4868C7.40864 13.0955 7.90427 12.8608 8.42599 12.8608C8.94771 12.8608 9.41726 12.626 9.78246 12.2608L9.91289 12.1304L6 11.0087" fill="white"/>
<path d="M9.62645 17.9732L9.54819 16.5385C9.52211 16.0167 9.70471 15.495 10.0699 15.1037C10.409 14.7385 10.6177 14.2168 10.5916 13.7212V13.5386L7.04395 15.5472" fill="white"/>
<path d="M14.5812 17.8695L13.5116 16.9304C13.1204 16.5913 12.8856 16.0957 12.8595 15.5479C12.8334 15.0262 12.5986 14.5566 12.2334 14.1914L12.103 14.061L11.0596 17.9999" fill="white"/>
<path d="M17.9724 14.243L16.5377 14.3473C16.016 14.3995 15.4942 14.2169 15.103 13.8517C14.7117 13.5126 14.216 13.3299 13.6943 13.356H13.5117L15.5986 16.8515" fill="white"/>
<path d="M17.7394 9.31317L16.8264 10.4088C16.4872 10.8001 15.9916 11.0609 15.4699 11.087C14.9482 11.1131 14.4786 11.3479 14.1395 11.7392L14.0352 11.8696L18.0002 12.8087" fill="white"/>
<path d="M14.0605 6L14.1909 7.43473C14.2431 7.95644 14.0866 8.47817 13.7214 8.89554C13.3822 9.28683 13.2257 9.78246 13.2518 10.3042L13.2779 10.4868L16.7212 8.32165" fill="white"/>
<defs>
<linearGradient id="paint0_linear_354_210" x1="0" y1="12" x2="24" y2="12" gradientUnits="userSpaceOnUse">
<stop stop-color="#8524BB"/>
<stop offset="1" stop-color="#AE54DE"/>
</linearGradient>
</defs>
</svg>
