<svg width="210" height="69" viewBox="0 0 210 69" fill="none" xmlns="http://www.w3.org/2000/svg">
<g clip-path="url(#clip0_81_26)">
<g clip-path="url(#clip1_81_26)">
<path d="M203.726 57.2783C203.726 58.0243 203.579 58.763 203.293 59.4522C203.007 60.1414 202.588 60.7675 202.061 61.2947C201.533 61.822 200.906 62.24 200.216 62.525C199.527 62.8099 198.788 62.9562 198.041 62.9554H12.0113C10.5036 62.957 9.05688 62.3598 7.98946 61.2952C6.92205 60.2305 6.3213 58.7857 6.31934 57.2783V12.0049C6.3213 10.4968 6.92181 9.05116 7.98901 7.98535C9.05621 6.91955 10.5029 6.3207 12.0113 6.32031H198.04C198.786 6.32031 199.526 6.46736 200.216 6.75305C200.905 7.03875 201.532 7.45749 202.06 7.98537C202.588 8.51325 203.007 9.13992 203.292 9.8296C203.578 10.5193 203.725 11.2584 203.724 12.0049L203.726 57.2783Z" fill="white"/>
<path d="M198.042 64.2751H12.0116C10.1542 64.2747 8.37277 63.5377 7.05827 62.2257C5.74376 60.9138 5.00353 59.1341 5 57.2772L5 12.0053C5.00275 10.1474 5.74249 8.36654 7.05695 7.05326C8.37141 5.73998 10.1532 5.00157 12.0116 5L198.04 5C199.898 5.00235 201.68 5.74102 202.994 7.05412C204.308 8.36723 205.048 10.1477 205.052 12.0053V57.2772C205.055 61.1371 201.904 64.2751 198.042 64.2751Z" fill="#A6A6A6"/>
<path d="M203.726 57.2783C203.726 58.0243 203.579 58.763 203.293 59.4522C203.007 60.1414 202.588 60.7675 202.061 61.2947C201.533 61.822 200.906 62.24 200.216 62.525C199.527 62.8099 198.788 62.9562 198.041 62.9554H12.0113C10.5036 62.957 9.05688 62.3598 7.98946 61.2952C6.92205 60.2305 6.3213 58.7857 6.31934 57.2783V12.0049C6.3213 10.4968 6.92181 9.05116 7.98901 7.98535C9.05621 6.91955 10.5029 6.3207 12.0113 6.32031H198.04C198.786 6.32031 199.526 6.46736 200.216 6.75305C200.905 7.03875 201.532 7.45749 202.06 7.98537C202.588 8.51325 203.007 9.13992 203.292 9.8296C203.578 10.5193 203.725 11.2584 203.724 12.0049L203.726 57.2783Z" fill="black"/>
<path d="M49.6696 34.325C49.6266 29.5476 53.5824 27.2234 53.7633 27.1152C51.523 23.8497 48.0506 23.4035 46.8303 23.3679C43.9139 23.0611 41.0849 25.1126 39.5993 25.1126C38.084 25.1126 35.7962 23.3976 33.3305 23.448C30.1576 23.4969 27.1893 25.3335 25.5613 28.1854C22.2016 34.0004 24.7073 42.5457 27.9262 47.2461C29.5364 49.5495 31.4179 52.1183 33.8806 52.0279C36.29 51.9301 37.19 50.4937 40.0975 50.4937C42.9783 50.4937 43.8235 52.0279 46.3351 51.9701C48.9209 51.9301 50.5489 49.6577 52.1027 47.335C53.9635 44.698 54.7107 42.0981 54.7404 41.9647C54.6811 41.9439 49.7201 40.0496 49.6696 34.325ZM44.9251 20.2759C46.2209 18.6558 47.1076 16.4516 46.8615 14.2148C44.9859 14.2979 42.6403 15.5118 41.2896 17.0964C40.0945 18.4927 39.027 20.7814 39.3028 22.9336C41.4097 23.0908 43.5729 21.8708 44.9251 20.2759Z" fill="white"/>
<path d="M198.042 5H98.3984L137.427 64.2751H198.042C199.9 64.2735 201.681 63.5355 202.995 62.2229C204.31 60.9102 205.05 59.1301 205.053 57.2728V12.0053C205.05 10.1476 204.31 8.36688 202.996 7.05369C201.682 5.7405 199.9 5.00196 198.042 5Z" fill="url(#paint0_linear_81_26)"/>
<path d="M84.568 51.6979H81.2009L79.3564 45.9037H72.9453L71.1884 51.6979H67.9102L74.2634 31.9717H78.1866L84.568 51.6979ZM78.8004 43.4727L77.1324 38.3218C76.956 37.7956 76.6238 36.5564 76.1375 34.6057H76.0782C75.8825 35.4447 75.5697 36.6839 75.1412 38.3218L73.5013 43.4727H78.8004ZM100.875 44.411C100.875 46.8301 100.218 48.7423 98.9026 50.146C97.7253 51.3955 96.2619 52.0196 94.5168 52.0196C92.6323 52.0196 91.2771 51.3481 90.4543 50.0022V57.4655H87.2932V42.1491C87.2932 40.6297 87.2532 39.0718 87.1761 37.4739H89.9561L90.1325 39.7285H90.1918C91.246 38.0298 92.8458 37.1804 94.9927 37.1804C96.6711 37.1804 98.0723 37.843 99.1932 39.1697C100.313 40.4993 100.875 42.2454 100.875 44.411ZM97.6541 44.5266C97.6541 43.1422 97.3428 42.0008 96.7171 41.1011C96.0336 40.1658 95.1158 39.6974 93.9652 39.6974C93.1853 39.6974 92.4766 39.9582 91.8435 40.4726C91.2089 40.9914 90.7938 41.6688 90.5996 42.5078C90.5129 42.8215 90.4636 43.1444 90.4528 43.4698V45.8429C90.4528 46.8761 90.7701 47.7491 91.4047 48.4636C92.0392 49.1751 92.8636 49.5323 93.8778 49.5323C95.0683 49.5323 95.995 49.0713 96.6578 48.1568C97.322 47.2392 97.6541 46.0297 97.6541 44.5266ZM117.239 44.411C117.239 46.8301 116.582 48.7423 115.267 50.146C114.088 51.3955 112.626 52.0196 110.88 52.0196C108.995 52.0196 107.64 51.3481 106.817 50.0022V57.4655H103.656V42.1491C103.656 40.6297 103.616 39.0718 103.539 37.4739H106.319L106.495 39.7285H106.555C107.607 38.0298 109.207 37.1804 111.356 37.1804C113.032 37.1804 114.434 37.843 115.557 39.1697C116.675 40.4993 117.239 42.2454 117.239 44.411ZM114.017 44.5266C114.017 43.1422 113.704 42.0008 113.078 41.1011C112.395 40.1658 111.48 39.6974 110.33 39.6974C109.55 39.6974 108.841 39.9582 108.205 40.4726C107.57 40.9914 107.157 41.6688 106.962 42.5078C106.866 42.8991 106.814 43.2178 106.814 43.4698V45.8429C106.814 46.8761 107.133 47.7491 107.765 48.4636C108.399 49.1736 109.223 49.5323 110.241 49.5323C111.433 49.5323 112.359 49.0713 113.021 48.1568C113.685 47.2392 114.017 46.0297 114.017 44.5266ZM135.535 46.1646C135.535 47.844 134.948 49.2092 133.781 50.2631C132.497 51.4133 130.704 51.9899 128.406 51.9899C126.283 51.9899 124.581 51.5808 123.297 50.7611L124.028 48.1271C125.414 48.9483 126.937 49.3574 128.595 49.3574C129.787 49.3574 130.713 49.0876 131.375 48.5525C132.037 48.0159 132.372 47.2985 132.372 46.4032C132.372 45.6013 132.095 44.9298 131.551 44.3829C131.004 43.8374 130.1 43.329 128.829 42.862C125.374 41.5739 123.645 39.69 123.645 37.2116C123.645 35.5929 124.256 34.2678 125.475 33.2316C126.694 32.197 128.31 31.6797 130.32 31.6797C132.116 31.6797 133.612 31.9924 134.8 32.6165L134.006 35.1927C132.888 34.5879 131.627 34.2855 130.215 34.2855C129.1 34.2855 128.225 34.5598 127.6 35.1052C127.073 35.5929 126.807 36.1873 126.807 36.8929C126.807 37.6711 127.11 38.3174 127.715 38.8243C128.24 39.2912 129.198 39.7996 130.583 40.3451C132.282 41.0299 133.53 41.8274 134.33 42.7435C135.135 43.6595 135.535 44.8023 135.535 46.1646ZM146.013 39.8456H142.529V46.7516C142.529 48.5081 143.143 49.3841 144.373 49.3841C144.938 49.3841 145.407 49.3367 145.777 49.2373L145.865 51.6372C145.242 51.8699 144.422 51.987 143.407 51.987C142.158 51.987 141.183 51.606 140.478 50.8441C139.777 50.0822 139.424 48.806 139.424 47.0095V39.8397H137.348V37.468H139.424V34.8636L142.529 33.9268V37.468H146.013V39.8456ZM161.703 44.4688C161.703 46.6552 161.077 48.4502 159.829 49.854C158.522 51.2992 156.785 52.0196 154.619 52.0196C152.528 52.0196 150.866 51.3274 149.626 49.9444C148.387 48.5585 147.767 46.8123 147.767 44.706C147.767 42.5018 148.408 40.6964 149.684 39.2927C150.964 37.8875 152.687 37.1849 154.853 37.1849C156.94 37.1849 158.617 37.8786 159.887 39.2631C161.099 40.606 161.703 42.3403 161.703 44.4688ZM158.426 44.5415C158.426 43.2385 158.144 42.1209 157.579 41.1856C156.917 40.0561 155.968 39.4913 154.739 39.4913C153.472 39.4913 152.501 40.0561 151.84 41.1856C151.274 42.1209 150.992 43.2578 150.992 44.6008C150.992 45.9052 151.274 47.0258 151.84 47.9581C152.524 49.0876 153.477 49.6524 154.712 49.6524C155.92 49.6524 156.868 49.0758 157.553 47.93C158.134 46.9724 158.426 45.8474 158.426 44.5415ZM171.982 40.2532C171.653 40.1939 171.32 40.1646 170.986 40.1658C169.874 40.1658 169.014 40.5838 168.409 41.4257C167.884 42.1668 167.62 43.1036 167.62 44.2346V51.6979H164.459V41.9534C164.462 40.4602 164.431 38.9672 164.367 37.4754H167.121L167.236 40.1969H167.324C167.659 39.2616 168.184 38.5071 168.904 37.9423C169.564 37.4489 170.365 37.1816 171.189 37.1804C171.481 37.1804 171.745 37.2012 171.979 37.2383L171.982 40.2532ZM186.12 43.913C186.128 44.3934 186.089 44.8734 186.004 45.3463H176.521C176.556 46.7516 177.016 47.8277 177.897 48.5688C178.696 49.2299 179.729 49.562 180.998 49.562C182.402 49.562 183.683 49.3396 184.836 48.8905L185.331 51.0828C183.984 51.6698 182.395 51.9618 180.561 51.9618C178.355 51.9618 176.623 51.3125 175.363 50.017C174.105 48.72 173.475 46.9769 173.475 44.7935C173.475 42.6501 174.061 40.8639 175.234 39.4394C176.461 37.9186 178.12 37.1582 180.208 37.1582C182.259 37.1582 183.811 37.9186 184.865 39.4394C185.7 40.6445 186.12 42.1387 186.12 43.913ZM183.105 43.0933C183.127 42.155 182.92 41.3471 182.491 40.6638C181.944 39.7833 181.102 39.3446 179.974 39.3446C178.94 39.3446 178.098 39.773 177.458 40.6327C176.931 41.316 176.619 42.1372 176.522 43.0903L183.105 43.0933Z" fill="white"/>
<path d="M72.0337 24.9989C71.1545 24.9989 70.3938 24.9559 69.7607 24.8833V15.3463C70.6462 15.2095 71.541 15.1421 72.437 15.1447C76.0621 15.1447 77.7316 16.9279 77.7316 19.8347C77.7316 23.1876 75.7596 24.9989 72.0337 24.9989ZM72.5645 16.3676C72.0752 16.3676 71.6586 16.3972 71.3131 16.4684V23.7182C71.4999 23.7479 71.8587 23.7612 72.3628 23.7612C74.7381 23.7612 76.0903 22.4094 76.0903 19.8776C76.0903 17.6201 74.8671 16.3676 72.5645 16.3676ZM82.9343 25.0716C80.8912 25.0716 79.5672 23.5463 79.5672 21.4755C79.5672 19.3173 80.9194 17.7787 83.05 17.7787C85.0634 17.7787 86.4171 19.2314 86.4171 21.3614C86.4171 23.5463 85.0219 25.0716 82.9343 25.0716ZM82.9936 18.9142C81.8712 18.9142 81.1521 19.9636 81.1521 21.4311C81.1521 22.8704 81.8861 23.9198 82.9788 23.9198C84.0715 23.9198 84.8055 22.7977 84.8055 21.4014C84.8055 19.9784 84.0864 18.9142 82.9936 18.9142ZM98.068 17.9225L95.8811 24.913H94.4562L93.5503 21.8772C93.325 21.1347 93.1375 20.3812 92.9884 19.6197H92.9587C92.8445 20.3816 92.6281 21.145 92.3982 21.8772L91.4345 24.913H89.9948L87.9369 17.9225H89.5337L90.3255 21.2458C90.5123 22.0373 90.6694 22.7844 90.7999 23.49H90.8296C90.9437 22.9015 91.1306 22.1663 91.4049 21.2606L92.3982 17.924H93.6645L94.6149 21.1895C94.8447 21.981 95.0315 22.7577 95.1768 23.4914H95.2183C95.3191 22.7725 95.4778 22.0092 95.6928 21.1895L96.5423 17.924L98.068 17.9225ZM106.119 24.913H104.565V20.8989C104.565 19.6627 104.091 19.0431 103.155 19.0431C102.234 19.0431 101.601 19.8347 101.601 20.7552V24.913H100.047V19.9206C100.047 19.3025 100.033 18.6399 99.9896 17.921H101.357L101.429 19.0001H101.472C101.89 18.2531 102.738 17.7787 103.689 17.7787C105.157 17.7787 106.12 18.9008 106.12 20.727L106.119 24.913ZM110.404 24.913H108.849V14.7148H110.404V24.913ZM116.069 25.0716C114.028 25.0716 112.702 23.5463 112.702 21.4755C112.702 19.3173 114.054 17.7787 116.183 17.7787C118.198 17.7787 119.551 19.2314 119.551 21.3614C119.552 23.5463 118.155 25.0716 116.069 25.0716ZM116.127 18.9142C115.005 18.9142 114.286 19.9636 114.286 21.4311C114.286 22.8704 115.021 23.9198 116.111 23.9198C117.205 23.9198 117.937 22.7977 117.937 21.4014C117.939 19.9784 117.221 18.9142 116.127 18.9142ZM125.677 24.913L125.564 24.1081H125.523C125.048 24.7558 124.356 25.0716 123.478 25.0716C122.225 25.0716 121.336 24.1941 121.336 23.0142C121.336 21.2888 122.832 20.3964 125.422 20.3964V20.2675C125.422 19.347 124.934 18.886 123.97 18.886C123.281 18.886 122.676 19.0594 122.144 19.4048L121.828 18.3835C122.474 17.9803 123.281 17.7787 124.228 17.7787C126.055 17.7787 126.977 18.7422 126.977 20.6707V23.2454C126.977 23.951 127.008 24.4979 127.078 24.9144L125.677 24.913ZM125.463 21.4311C123.738 21.4311 122.872 21.8491 122.872 22.8407C122.872 23.5745 123.318 23.9332 123.938 23.9332C124.728 23.9332 125.463 23.3299 125.463 22.5102V21.4311ZM134.523 24.913L134.45 23.7909H134.407C133.961 24.6387 133.21 25.0716 132.162 25.0716C130.476 25.0716 129.228 23.5893 129.228 21.5037C129.228 19.3173 130.522 17.7772 132.29 17.7772C133.225 17.7772 133.888 18.093 134.262 18.7274H134.293V14.7148H135.848V23.029C135.848 23.7049 135.864 24.3378 135.906 24.913H134.523ZM134.293 20.7996C134.293 19.8213 133.645 18.9868 132.656 18.9868C131.504 18.9868 130.8 20.0081 130.8 21.4459C130.8 22.8555 131.531 23.8205 132.625 23.8205C133.602 23.8205 134.293 22.9712 134.293 21.9647V20.7996ZM145.709 25.0716C143.668 25.0716 142.344 23.5463 142.344 21.4755C142.344 19.3173 143.696 17.7787 145.825 17.7787C147.84 17.7787 149.192 19.2314 149.192 21.3614C149.194 23.5463 147.798 25.0716 145.709 25.0716ZM145.767 18.9142C144.646 18.9142 143.927 19.9636 143.927 21.4311C143.927 22.8704 144.661 23.9198 145.752 23.9198C146.847 23.9198 147.579 22.7977 147.579 21.4014C147.582 19.9784 146.863 18.9142 145.767 18.9142ZM157.549 24.913H155.993V20.8989C155.993 19.6627 155.519 19.0431 154.583 19.0431C153.662 19.0431 153.031 19.8347 153.031 20.7552V24.913H151.476V19.9206C151.476 19.3025 151.461 18.6399 151.418 17.921H152.785L152.857 19.0001H152.9C153.317 18.2531 154.167 17.7772 155.115 17.7772C156.583 17.7772 157.549 18.8993 157.549 20.7255V24.913ZM168.003 19.0876H166.293V22.482C166.293 23.3462 166.593 23.7775 167.198 23.7775C167.472 23.7775 167.702 23.7479 167.887 23.7049L167.93 24.8848C167.629 25.0004 167.226 25.0582 166.725 25.0582C165.5 25.0582 164.768 24.3823 164.768 22.6125V19.0876H163.748V17.9225H164.768V16.6418L166.293 16.1808V17.921H168.003V19.0876ZM176.229 24.913H174.676V20.9286C174.676 19.6775 174.203 19.0446 173.266 19.0446C172.461 19.0446 171.711 19.5916 171.711 20.6988V24.913H170.159V14.7148H171.711V18.9142H171.742C172.231 18.1523 172.94 17.7772 173.845 17.7772C175.324 17.7772 176.229 18.9275 176.229 20.7552V24.913ZM184.656 21.7913H179.993C180.023 23.1149 180.899 23.862 182.197 23.862C182.886 23.862 183.521 23.7464 184.081 23.5315L184.323 24.6106C183.661 24.8981 182.883 25.0419 181.977 25.0419C179.79 25.0419 178.496 23.6604 178.496 21.5185C178.496 19.3751 179.821 17.7639 181.802 17.7639C183.589 17.7639 184.71 19.0876 184.71 21.0872C184.72 21.3232 184.702 21.5595 184.656 21.7913ZM183.231 20.684C183.231 19.6049 182.687 18.843 181.694 18.843C180.801 18.843 180.096 19.6197 179.995 20.684H183.231Z" fill="white"/>
</g>
</g>
<defs>
<linearGradient id="paint0_linear_81_26" x1="151.724" y1="64.4324" x2="151.724" y2="-149.342" gradientUnits="userSpaceOnUse">
<stop stop-color="#1A1A1A" stop-opacity="0.1"/>
<stop offset="0.123" stop-color="#212121" stop-opacity="0.151"/>
<stop offset="0.308" stop-color="#353535" stop-opacity="0.227"/>
<stop offset="0.532" stop-color="#575757" stop-opacity="0.318"/>
<stop offset="0.783" stop-color="#858585" stop-opacity="0.421"/>
<stop offset="1" stop-color="#B3B3B3" stop-opacity="0.51"/>
</linearGradient>
<clipPath id="clip0_81_26">
<rect width="210" height="69" fill="white"/>
</clipPath>
<clipPath id="clip1_81_26">
<rect width="200" height="200" fill="white" transform="translate(5 -65)"/>
</clipPath>
</defs>
</svg>
