<svg viewBox="0 0 71 20" fill="none" xmlns="http://www.w3.org/2000/svg">
<g clip-path="url(#clip0_2236_4228)">
<path d="M18.2886 0H21.4886V20H18.2886V0ZM32.6886 13.62C32.6886 16.6808 30.115 16.9248 29.3494 16.9248C27.4366 16.9248 27.0886 15.1344 27.0886 14.0544V6.4H23.8886V14.0384C23.8886 15.9344 24.4838 17.4992 25.527 18.5424C26.4486 19.4648 27.8294 19.9688 29.3254 19.9688C30.3862 19.9688 31.8886 19.6384 32.6886 18.908V20H35.8886V6.4H32.6886V13.62ZM42.2886 1.6H39.0886V6.4H36.6886V9.6H39.0886V20H42.2886V9.6H44.6886V6.4H42.2886V1.6ZM54.7662 15.9336C54.0694 16.56 53.1494 16.9072 52.1398 16.9072C49.9142 16.9072 48.2798 15.2728 48.2798 13.0288C48.2798 10.7848 49.8622 9.2192 52.1398 9.2192C53.1318 9.2192 54.0694 9.5496 54.7838 10.176L55.2694 10.5936L57.427 8.4368L56.887 7.9496C55.6174 6.8032 53.9318 6.16 52.139 6.16C48.139 6.16 45.2342 9.0464 45.2342 13.012C45.2342 16.9608 48.2086 19.9504 52.139 19.9504C53.9654 19.9504 55.6686 19.3072 56.9222 18.1424L57.4438 17.6552L55.2526 15.5L54.7662 15.9336ZM68.8486 7.5856C67.927 6.664 66.847 6.16 65.351 6.16C64.2902 6.16 63.0886 6.4904 62.2886 7.22V0H59.0886V20H62.2886V12.508C62.2886 9.4472 64.463 9.204 65.2286 9.204C67.1414 9.204 67.0886 10.9952 67.0886 12.0736V20H70.2886V12.0904C70.2886 10.1944 69.8926 8.6296 68.8486 7.5856Z" fill="currentColor" />
<path d="M52.0343 10.7505C52.6479 10.7505 53.2364 10.9942 53.6703 11.4281C54.1041 11.862 54.3479 12.4505 54.3479 13.0641C54.3479 13.6777 54.1041 14.2662 53.6703 14.7001C53.2364 15.1339 52.6479 15.3777 52.0343 15.3777C51.4207 15.3777 50.8322 15.1339 50.3983 14.7001C49.9645 14.2662 49.7207 13.6777 49.7207 13.0641C49.7207 12.4505 49.9645 11.862 50.3983 11.4281C50.8322 10.9942 51.4207 10.7505 52.0343 10.7505Z" fill="currentColor" />
<path d="M13.8088 14.9769C12.592 16.2289 10.9392 16.9073 9.2 16.9073C5.6352 16.9073 3.0432 14.1073 3.0432 10.2641C3.0432 6.40326 5.6352 3.60326 9.2 3.60326C10.9224 3.60326 12.5568 4.28086 13.792 5.51606L14.2784 6.00326L16.4176 3.86406L15.948 3.37686C14.1744 1.55046 11.7744 0.560059 9.2 0.560059C3.948 0.560059 0 4.73366 0 10.2809C0 15.8113 3.9656 19.9681 9.2 19.9681C11.792 19.9681 14.192 18.9601 15.9656 17.1337L16.4352 16.6465L14.3136 14.4729L13.8088 14.9769Z" fill="currentColor" />
</g>
<defs>
<clipPath id="clip0_2236_4228">
<rect width="70.2888" height="20" fill="currentColor"/>
</clipPath>
</defs>
</svg>
