<?xml version="1.0" encoding="UTF-8"?>
<svg xmlns="http://www.w3.org/2000/svg" xmlns:xlink="http://www.w3.org/1999/xlink" viewBox="0 0 20 20" version="1.1">
<g id="surface1">
<path style=" stroke:none;fill-rule:evenodd;fill:currentColor;fill-opacity:1;" d="M 0.765625 6.957031 C 0.601562 6.972656 0.445312 7.039062 0.320312 7.144531 C 0.191406 7.25 0.09375 7.394531 0.0429688 7.554688 C -0.0078125 7.71875 -0.015625 7.894531 0.0273438 8.058594 C 0.0703125 8.226562 0.15625 8.375 0.277344 8.492188 L 4.894531 12.6875 L 3.496094 18.914062 C 3.457031 19.085938 3.46875 19.261719 3.527344 19.425781 C 3.585938 19.589844 3.6875 19.730469 3.824219 19.832031 C 3.957031 19.933594 4.117188 19.992188 4.285156 20 C 4.453125 20.003906 4.617188 19.960938 4.757812 19.867188 L 9.996094 16.550781 L 15.28125 19.867188 C 15.425781 19.953125 15.585938 19.996094 15.75 19.988281 C 15.914062 19.976562 16.070312 19.917969 16.203125 19.816406 C 16.335938 19.714844 16.4375 19.578125 16.492188 19.417969 C 16.550781 19.257812 16.5625 19.082031 16.527344 18.914062 L 15.148438 12.6875 L 19.695312 8.492188 C 19.824219 8.382812 19.917969 8.234375 19.964844 8.066406 C 20.011719 7.898438 20.011719 7.722656 19.960938 7.554688 C 19.910156 7.390625 19.8125 7.246094 19.679688 7.136719 C 19.550781 7.03125 19.390625 6.96875 19.222656 6.957031 L 13.144531 6.410156 L 10.769531 0.535156 C 10.707031 0.378906 10.597656 0.242188 10.460938 0.144531 C 10.324219 0.0507812 10.160156 0 9.996094 0 C 9.828125 0 9.667969 0.0507812 9.53125 0.144531 C 9.390625 0.242188 9.285156 0.378906 9.21875 0.535156 L 6.828125 6.410156 Z M 0.765625 6.957031 "/>
</g>
</svg>
