<svg viewBox="0 0 24 22" fill="none" xmlns="http://www.w3.org/2000/svg">
<path d="M11.8135 0.481152C11.8795 0.310855 12.1205 0.310854 12.1865 0.481152L14.9864 7.70522C15.0147 7.77844 15.0833 7.82828 15.1617 7.83264L22.8974 8.26312C23.0798 8.27327 23.1543 8.50244 23.0127 8.61784L17.0074 13.513C16.9466 13.5627 16.9203 13.6433 16.9404 13.7192L18.9215 21.2093C18.9682 21.3859 18.7732 21.5275 18.6197 21.4286L12.1084 17.2299C12.0424 17.1873 11.9576 17.1873 11.8916 17.2299L5.38026 21.4286C5.22676 21.5275 5.03182 21.3859 5.07852 21.2093L7.05957 13.7192C7.07965 13.6433 7.05345 13.5627 6.99259 13.513L0.987298 8.61784C0.845732 8.50244 0.920193 8.27327 1.10255 8.26312L8.83826 7.83264C8.91666 7.82828 8.98526 7.77844 9.01363 7.70522L11.8135 0.481152Z" fill="currentColor"/>
</svg>
