<svg viewBox="0 0 156 72" fill="none" xmlns="http://www.w3.org/2000/svg">
<path d="M6 66C7.11643 64.8842 8.08855 63.6603 9.12251 62.4693C14.0922 56.7448 19.3771 51.1859 25.2213 46.3493C30.3654 42.0921 35.6462 37.9823 41.2821 34.3979C41.4935 34.2634 42.4827 33.3699 42.1481 34.1701C39.82 39.7378 36.6472 44.9989 34.7028 50.7229C34.6101 50.9955 34.2627 51.5733 34.5508 51.5733C34.8012 51.5733 34.9409 51.2595 35.1358 51.1025C36.1474 50.2875 36.814 49.8012 37.9468 48.9992C43.7542 44.888 49.8759 41.1141 55.9677 37.4427C59.0294 35.5974 62.1588 33.5797 65.472 32.1959C66.2214 31.8829 64.718 33.8292 64.6819 33.8816C62.3087 37.3223 59.7061 40.6115 57.1149 43.8891C54.8076 46.8077 52.3078 49.4368 49.7607 52.1352C49.3963 52.5212 49.4418 52.6905 49.7303 52.3326C50.266 51.6679 50.8857 51.1138 51.5385 50.5558C56.328 46.4621 61.6617 42.9655 67.0067 39.6522C73.6752 35.5185 80.5504 31.7275 87.5195 28.126C96.5332 23.468 105.706 19.0582 115.159 15.3546C123.021 12.2741 131.064 9.44755 139.318 7.60972C142.87 6.81893 146.402 6.39959 150 6" stroke="#FF4800" stroke-width="3" stroke-linecap="round"/>
</svg>
