<svg viewBox="0 0 108 36" fill="none" xmlns="http://www.w3.org/2000/svg">
<path d="M76 25C77.6569 25 79 23.6569 79 22C79 20.3431 77.6569 19 76 19C74.3431 19 73 20.3431 73 22C73 23.6569 74.3431 25 76 25Z" fill="#E62415"/>
<path d="M31.4639 5H35.5412V30.6609H31.4639V5ZM50.391 22.7478C50.391 26.727 47.055 27.0435 46.0357 27.0435C43.4874 27.0435 43.1167 24.7148 43.1167 23.313V13.3878H39.0162V23.2904C38.993 25.7548 39.7112 27.7896 41.1012 29.1461C42.3636 30.2443 43.9718 30.8898 45.6606 30.9761C47.3495 31.0624 49.018 30.5844 50.391 29.6209V30.6609H54.4915V13.3878H50.391V22.7478ZM63.3411 7.57739H59.2406V13.3878H56.3911V17.1635H59.2406V30.6609H63.3411V17.1635H66.7003V13.3878H63.3411V7.57739ZM79.9747 25.7548C79.048 26.5687 77.8202 27.0209 76.4766 27.0209C75.794 27.0397 75.1146 26.9221 74.4804 26.6751C73.8461 26.4281 73.2704 26.057 72.7886 25.5847C72.3068 25.1124 71.9292 24.5489 71.6789 23.9288C71.4287 23.3087 71.3112 22.6452 71.3336 21.9791C71.3336 19.0626 73.4417 17.0278 76.4766 17.0278C77.7971 17.0278 79.048 17.4574 79.9979 18.2713L80.6465 18.8139L83.5192 16.0104L82.801 15.3774C81.0614 13.8631 78.8076 13.0333 76.4766 13.0487C71.1482 13.0487 67.2794 16.8017 67.2794 21.9565C67.2511 23.1449 67.4693 24.3266 67.9209 25.4305C68.3725 26.5345 69.0481 27.538 69.9072 28.3806C70.7663 29.2233 71.7912 29.8877 72.9201 30.3339C74.049 30.7802 75.2587 30.999 76.4766 30.9774C78.909 30.9774 81.1794 30.1409 82.8474 28.6261L83.5424 27.993L80.6234 25.1896L79.9747 25.7548ZM98.9018 14.9026C97.6394 13.8044 96.0312 13.1589 94.3424 13.0726C92.6535 12.9863 90.985 13.4643 89.612 14.4278V5H85.5115V30.6609H89.612V21.3235C89.612 17.3443 92.948 17.0278 93.9673 17.0278C96.5156 17.0278 96.8863 19.3565 96.8863 20.7583V30.6835H100.987V20.7583C101.11 18.6144 100.361 16.5097 98.9018 14.9026ZM25.4174 24.5113C24.6197 25.3111 23.6648 25.9455 22.61 26.3767C21.5551 26.8079 20.4219 27.027 19.2783 27.0209C14.5291 27.0209 11.0773 23.3809 11.0773 18.3843C11.0773 13.3652 14.5291 9.72522 19.2783 9.72522C21.5718 9.72522 23.7494 10.607 25.3943 12.2122L26.0429 12.8452L28.8924 10.0643L28.2669 9.4313C27.0914 8.26455 25.6884 7.33936 24.1407 6.71031C22.5929 6.08126 20.9317 5.76109 19.2551 5.7687C12.282 5.7687 7 11.1948 7 18.407C7 25.5739 12.282 31 19.2551 31C22.7069 31 25.9039 29.6887 28.2669 27.3148L28.8924 26.6817L26.0661 23.8557L25.4174 24.5113Z" fill="white"/>
</svg>
