<svg viewBox="0 0 36 36" fill="none" xmlns="http://www.w3.org/2000/svg">
<g clip-path="url(#clip0_3387_29371)">
<path d="M18 36C27.9412 36 36 27.9412 36 18C36 8.05875 27.9412 0 18 0C8.05875 0 0 8.05875 0 18C0 27.9412 8.05875 36 18 36Z" fill="#D6001C"/>
<path d="M10.2375 9.87695V16C11.1698 14.8885 12.2873 14.329 13.5833 14.329C14.2508 14.329 14.8485 14.4565 15.3848 14.7092C15.9225 14.9605 16.3245 15.283 16.596 15.6745C16.869 16.0697 17.0535 16.5025 17.1533 16.9795C17.2523 17.4542 17.3018 18.193 17.3018 19.195V25.7417H14.4053V19.8452C14.4053 18.6752 14.3528 17.9342 14.2425 17.6192C14.1393 17.3106 13.9343 17.0462 13.6613 16.8692C13.3823 16.681 13.035 16.588 12.6158 16.588C12.1358 16.588 11.7053 16.708 11.331 16.9465C10.9485 17.1865 10.674 17.545 10.5 18.0242C10.323 18.5042 10.2345 19.213 10.2375 20.1512L10.2345 25.7417H7.3418V9.87695H10.2383M21.6428 9.87695V16C22.5758 14.8885 23.6925 14.329 24.9878 14.329C25.653 14.329 26.2553 14.4565 26.7923 14.7092C27.3278 14.9605 27.7298 15.283 27.9998 15.6745C28.2723 16.0671 28.4619 16.5111 28.557 16.9795C28.6568 17.4542 28.7063 18.193 28.7063 19.195V25.7417H25.8128V19.8452C25.8128 18.6752 25.758 17.9342 25.6478 17.6192C25.5445 17.3102 25.3389 17.0457 25.065 16.8692C24.789 16.681 24.4388 16.588 24.0195 16.588C23.5403 16.588 23.1098 16.708 22.7348 16.9465C22.3575 17.1865 22.0815 17.545 21.9053 18.0242C21.7313 18.5042 21.6428 19.213 21.6428 20.1512V25.7417H18.75V9.87695H21.6428Z" fill="#FEFEFE"/>
</g>
<defs>
<clipPath id="clip0_3387_29371">
<rect width="36" height="36" fill="white"/>
</clipPath>
</defs>
</svg>
