<svg viewBox="0 0 108 36" fill="none" xmlns="http://www.w3.org/2000/svg">
<path d="M67.5838 12.9523C63.2924 12.9732 59.7966 16.5544 59.8163 21.0134C59.8361 25.4724 63.3668 29.0199 67.6582 28.9999C71.9496 28.9799 75.4463 25.3978 75.4257 20.9406C75.4051 16.4834 71.8752 12.9332 67.582 12.9541L67.5838 12.9523ZM67.643 25.7298C66.4263 25.7371 65.2572 25.2523 64.3926 24.3836C63.5281 23.5149 63.0488 22.3314 63.0353 21.0962C63.0219 19.8609 63.5057 18.6738 64.3613 17.796C65.2169 16.9183 66.3824 16.4316 67.5991 16.418C68.8157 16.4043 69.9849 16.8955 70.8494 17.7642C71.7139 18.6329 72.1933 19.8163 72.2067 21.0516C72.2192 23.5303 70.0834 25.7171 67.643 25.7298ZM84.9697 16.7318C82.7255 16.7427 80.9776 18.6329 80.9883 20.9115L81.0242 28.5387L77.609 28.5551L77.54 13.398L80.9552 13.3816L80.9668 15.7585C80.9668 15.7585 82.4182 13.3753 85.346 13.3616L86.3226 13.3562L86.3387 16.7236L84.9697 16.7318ZM50.9021 13.5272L53.4877 23.9169L56.1718 13.5017L59.587 13.4862L55.3619 28.6725L52.0453 28.6879L49.3629 18.1017L46.7773 28.7125L43.4598 28.7279L39 13.5917L42.3166 13.5763L45.291 23.9642L47.6831 13.5508L50.9021 13.5272ZM96.302 20.2457C98.6359 18.8485 100.284 16.2642 100.271 13.2925L96.8557 13.3089C96.8683 15.8849 94.8274 17.9752 92.3887 17.9843L91.9005 17.9862L91.8467 6L88.4315 6.01637L88.5363 28.5024L91.9497 28.4869L91.9175 21.3554L92.3072 21.3536C92.6978 21.3518 93.0893 21.5483 93.1888 21.8448L97.9998 28.4578L102 28.4396L96.302 20.2457Z" fill="currentColor"/>
<path d="M31.0632 13.1191C27.3124 13.1373 24.4601 15.6212 23.393 19.579C21.6024 16.8201 20.2053 13.6645 19.4038 11L15.4554 11.0182L15.5043 21.4939C15.5087 22.4899 15.1178 23.4469 14.4175 24.1545C13.7172 24.8621 12.7649 25.2624 11.7699 25.2674C10.7749 25.2718 9.81885 24.8805 9.11195 24.1795C8.40505 23.4785 8.00513 22.5253 8.00009 21.5293L7.95023 11.0535L4 11.0717L4.04896 21.5474C4.06981 25.8945 7.53952 29.3396 11.7862 29.3187C16.0329 29.2978 19.4727 25.8228 19.4528 21.4748L19.4437 19.696C20.2397 21.2724 21.2352 22.9478 22.3295 24.4261L19.9151 36L23.9624 35.9818L25.7031 27.5726C27.287 28.5545 29.0577 29.1381 31.1393 29.1281C35.4839 29.1072 39.0226 25.5343 38.9999 20.9875C38.9834 18.8926 38.1396 16.8894 36.6528 15.4151C35.166 13.9407 33.1569 13.115 31.0641 13.1182L31.0632 13.1191ZM31.1194 25.0778C29.54 25.085 27.9579 24.4007 26.6696 23.3189L27.0567 21.7371V21.6463C27.3469 19.9638 28.219 17.0941 31.1819 17.0814C32.2267 17.0797 33.2298 17.4911 33.973 18.226C34.7162 18.9609 35.1393 19.9599 35.1503 21.0056C35.0615 23.279 33.1947 25.0669 31.1203 25.0769L31.1194 25.0778Z" fill="#6FDA44"/>
</svg>
