<svg viewBox="0 0 22 22" fill="none" xmlns="http://www.w3.org/2000/svg">
    <g clip-path="url(#clip0_199_4)">
        <path d="M11.1533 21C16.6762 21 21.1533 16.5228 21.1533 11C21.1533 5.47715 16.6762 1 11.1533 1C5.63047 1 1.15332 5.47715 1.15332 11C1.15332 16.5228 5.63047 21 11.1533 21Z"
              fill="#74ABFF"/>
        <path d="M16.6538 10.5001C18.5308 11.4385 21.1412 11.5 21.1412 11.5C21.1535 8.00012 20.6535 5.50012 18.1538 3.85913C12.6538 6.50012 15.6536 10.0001 16.6538 10.5001Z"
              fill="#91D55E"/>
        <path d="M1.84033 14.6451L3.74852 13.5435C3.85188 13.4839 3.97317 13.4632 4.09048 13.4851L7.84498 14.1878C8.15353 14.2455 8.43835 14.008 8.43696 13.6941L8.42234 10.4045C8.42194 10.3151 8.44551 10.2272 8.49059 10.15L10.3853 6.90621C10.4839 6.73739 10.4751 6.52658 10.3627 6.3666L7.1725 1.82568C1.84029 3.50003 -0.346458 8.5 1.84033 14.6451Z"
              fill="#91D55E"/>
        <path d="M1.84007 14.6451L3.74826 13.5435C3.85162 13.4839 3.97292 13.4631 4.09022 13.4851L7.84472 14.1878C8.15327 14.2455 8.4381 14.008 8.4367 13.6941L8.42208 10.4045C8.42168 10.3151 8.44525 10.2272 8.49033 10.15L10.385 6.90621C10.4836 6.73739 10.4748 6.52658 10.3624 6.3666L7.17224 1.82568M18.1535 3.85905C12.6535 6.50004 15.6533 10 16.6535 10.5C18.5306 11.4384 21.1409 11.5 21.1409 11.5C21.1491 11.3344 21.1533 11.1677 21.1533 11C21.1533 5.47715 16.6761 1 11.1533 1C5.63047 1 1.15332 5.47715 1.15332 11C1.15332 16.5228 5.63047 21 11.1533 21C11.321 21 11.4877 20.9959 11.6533 20.9877"
              stroke="#0F1A20" stroke-width="2" stroke-linecap="round" stroke-linejoin="round"/>
        <path d="M15.9109 20.9399L12.7441 12.5911L21.0929 15.7578L17.3908 17.2377L15.9109 20.9399Z" fill="white"
              stroke="#0F1A20" stroke-width="2" stroke-linecap="round" stroke-linejoin="round"/>
    </g>
    <defs>
        <clipPath id="clip0_199_4">
            <rect width="22" height="22" fill="white"/>
        </clipPath>
    </defs>
</svg>
