<svg viewBox="0 0 40 40" fill="none" xmlns="http://www.w3.org/2000/svg">
<path d="M21.6663 11.6667L19.8071 7.94819C19.272 6.87801 19.0044 6.34288 18.6053 5.95194C18.2523 5.60622 17.8269 5.34329 17.3598 5.18218C16.8316 5 16.2334 5 15.0368 5L8.66634 5C6.7995 5 5.86608 5 5.15304 5.36331C4.52583 5.68289 4.0159 6.19282 3.69632 6.82003C3.33301 7.53307 3.33301 8.46649 3.33301 10.3333V11.6667M3.33301 11.6667L28.6663 11.6667C31.4666 11.6667 32.8667 11.6667 33.9363 12.2116C34.8771 12.691 35.642 13.4559 36.1214 14.3967C36.6663 15.4663 36.6663 16.8664 36.6663 19.6667V27C36.6663 29.8003 36.6663 31.2004 36.1214 32.27C35.642 33.2108 34.8771 33.9757 33.9363 34.455C32.8667 35 31.4666 35 28.6663 35H11.333C8.53275 35 7.13261 35 6.06306 34.455C5.12225 33.9757 4.35734 33.2108 3.87798 32.27C3.33301 31.2004 3.33301 29.8003 3.33301 27L3.33301 11.6667Z" stroke="#0F1A20" stroke-width="2.5" stroke-linecap="round" stroke-linejoin="round"/>
</svg>
