<svg width="210" height="69" viewBox="0 0 210 69" fill="none" xmlns="http://www.w3.org/2000/svg">
<path d="M197.593 64.2593H12.4074C8.25926 64.2593 5 61 5 56.8519V12.4074C5 8.25926 8.25926 5 12.4074 5H197.593C201.741 5 205 8.25926 205 12.4074V56.8519C205 61 201.741 64.2593 197.593 64.2593Z" fill="black"/>
<path d="M197.593 6.18519C201 6.18519 203.815 9 203.815 12.4074V56.8519C203.815 60.2593 201 63.0741 197.593 63.0741H12.4074C9 63.0741 6.18519 60.2593 6.18519 56.8519V12.4074C6.18519 9 9 6.18519 12.4074 6.18519H197.593ZM197.593 5H12.4074C8.25926 5 5 8.40741 5 12.4074V56.8519C5 61 8.25926 64.2593 12.4074 64.2593H197.593C201.741 64.2593 205 61 205 56.8519V12.4074C205 8.40741 201.741 5 197.593 5Z" fill="#A6A6A6"/>
<path d="M75.2219 20.1115C75.2219 21.2967 74.9256 22.3338 74.1849 23.0745C73.296 23.9634 72.2589 24.4078 70.9256 24.4078C69.5923 24.4078 68.5552 23.9634 67.6663 23.0745C66.7774 22.1856 66.333 21.1486 66.333 19.8152C66.333 18.4819 66.7774 17.4449 67.6663 16.556C68.5552 15.6671 69.5923 15.2227 70.9256 15.2227C71.5182 15.2227 72.1108 15.3708 72.7034 15.6671C73.296 15.9634 73.7404 16.2597 74.0367 16.7041L73.296 17.4449C72.7034 16.7041 71.9626 16.4078 70.9256 16.4078C70.0367 16.4078 69.1478 16.7041 68.5552 17.4449C67.8145 18.0375 67.5182 18.9264 67.5182 19.9634C67.5182 21.0004 67.8145 21.8893 68.5552 22.4819C69.296 23.0745 70.0367 23.519 70.9256 23.519C71.9626 23.519 72.7034 23.2227 73.4441 22.4819C73.8886 22.0375 74.1849 21.4449 74.1849 20.7041H70.9256V19.519H75.2219V20.1115ZM82.0367 16.4078H78.0367V19.2227H81.7404V20.2597H78.0367V23.0745H82.0367V24.2597H76.8515V15.3708H82.0367V16.4078ZM86.9256 24.2597H85.7404V16.4078H83.2219V15.3708H89.4441V16.4078H86.9256V24.2597ZM93.7404 24.2597V15.3708H94.9256V24.2597H93.7404ZM99.9626 24.2597H98.7774V16.4078H96.2589V15.3708H102.333V16.4078H99.8145V24.2597H99.9626ZM114.037 23.0745C113.148 23.9634 112.111 24.4078 110.777 24.4078C109.444 24.4078 108.407 23.9634 107.518 23.0745C106.629 22.1856 106.185 21.1486 106.185 19.8152C106.185 18.4819 106.629 17.4449 107.518 16.556C108.407 15.6671 109.444 15.2227 110.777 15.2227C112.111 15.2227 113.148 15.6671 114.037 16.556C114.926 17.4449 115.37 18.4819 115.37 19.8152C115.37 21.1486 114.926 22.1856 114.037 23.0745ZM108.407 22.3338C109 22.9264 109.889 23.3708 110.777 23.3708C111.666 23.3708 112.555 23.0745 113.148 22.3338C113.74 21.7412 114.185 20.8523 114.185 19.8152C114.185 18.7782 113.889 17.8893 113.148 17.2967C112.555 16.7041 111.666 16.2597 110.777 16.2597C109.889 16.2597 109 16.556 108.407 17.2967C107.814 17.8893 107.37 18.7782 107.37 19.8152C107.37 20.8523 107.666 21.7412 108.407 22.3338ZM117 24.2597V15.3708H118.333L122.629 22.3338V15.3708H123.814V24.2597H122.629L118.037 17.0004V24.2597H117Z" fill="white" stroke="white" stroke-width="0.296296" stroke-miterlimit="10"/>
<path d="M105.889 37.295C102.333 37.295 99.5183 39.9617 99.5183 43.6654C99.5183 47.2209 102.333 50.0357 105.889 50.0357C109.444 50.0357 112.259 47.3691 112.259 43.6654C112.259 39.8135 109.444 37.295 105.889 37.295ZM105.889 47.3691C103.963 47.3691 102.333 45.7394 102.333 43.5172C102.333 41.295 103.963 39.6654 105.889 39.6654C107.815 39.6654 109.444 41.1468 109.444 43.5172C109.444 45.7394 107.815 47.3691 105.889 47.3691ZM92.1109 37.295C88.5553 37.295 85.7405 39.9617 85.7405 43.6654C85.7405 47.2209 88.5553 50.0357 92.1109 50.0357C95.6664 50.0357 98.4813 47.3691 98.4813 43.6654C98.4813 39.8135 95.6664 37.295 92.1109 37.295ZM92.1109 47.3691C90.185 47.3691 88.5553 45.7394 88.5553 43.5172C88.5553 41.295 90.185 39.6654 92.1109 39.6654C94.0368 39.6654 95.6665 41.1468 95.6665 43.5172C95.6665 45.7394 94.0368 47.3691 92.1109 47.3691ZM75.6665 39.2209V41.8876H82.0368C81.8887 43.3691 81.2961 44.5543 80.5553 45.295C79.6665 46.1839 78.185 47.2209 75.6665 47.2209C71.6665 47.2209 68.7035 44.1098 68.7035 40.1098C68.7035 36.1098 71.8146 32.9987 75.6665 32.9987C77.7405 32.9987 79.3702 33.8876 80.5553 34.9246L82.4813 32.9987C80.8516 31.5172 78.7776 30.332 75.8146 30.332C70.4813 30.332 65.8887 34.7765 65.8887 40.1098C65.8887 45.4431 70.4813 49.8876 75.8146 49.8876C78.7776 49.8876 80.8516 48.9987 82.6294 47.0728C84.4072 45.295 84.9998 42.7765 84.9998 40.8505C84.9998 40.258 84.9998 39.6654 84.8516 39.2209H75.6665ZM142.926 41.295C142.333 39.8135 140.852 37.295 137.592 37.295C134.333 37.295 131.666 39.8135 131.666 43.6654C131.666 47.2209 134.333 50.0357 137.889 50.0357C140.703 50.0357 142.481 48.258 143.074 47.2209L141 45.7394C140.259 46.7765 139.37 47.5172 137.889 47.5172C136.407 47.5172 135.518 46.9246 134.778 45.5913L143.222 42.0357L142.926 41.295ZM134.333 43.3691C134.333 40.9987 136.259 39.6654 137.592 39.6654C138.629 39.6654 139.666 40.258 139.963 40.9987L134.333 43.3691ZM127.37 49.4431H130.185V30.9246H127.37V49.4431ZM122.926 38.6283C122.185 37.8876 121 37.1468 119.518 37.1468C116.407 37.1468 113.444 39.9617 113.444 43.5172C113.444 47.0728 116.259 49.7394 119.518 49.7394C121 49.7394 122.185 48.9987 122.778 48.258H122.926V49.1468C122.926 51.5172 121.592 52.8505 119.518 52.8505C117.889 52.8505 116.703 51.6654 116.407 50.6283L114.037 51.6654C114.778 53.295 116.555 55.3691 119.666 55.3691C122.926 55.3691 125.592 53.4431 125.592 48.8505V37.5913H122.926V38.6283ZM119.666 47.3691C117.741 47.3691 116.111 45.7394 116.111 43.5172C116.111 41.295 117.741 39.6654 119.666 39.6654C121.592 39.6654 123.074 41.295 123.074 43.5172C123.074 45.7394 121.592 47.3691 119.666 47.3691ZM155.815 30.9246H149.148V49.4431H151.963V42.4802H155.815C158.926 42.4802 161.889 40.258 161.889 36.7024C161.889 33.1468 158.926 30.9246 155.815 30.9246ZM155.963 39.8135H151.963V33.4431H155.963C158.037 33.4431 159.222 35.2209 159.222 36.5543C159.074 38.1839 157.889 39.8135 155.963 39.8135ZM173 37.1468C170.926 37.1468 168.852 38.0357 168.111 39.9617L170.629 40.9987C171.222 39.9617 172.111 39.6654 173.148 39.6654C174.629 39.6654 175.963 40.5543 176.111 42.0357V42.1839C175.666 41.8876 174.481 41.4431 173.296 41.4431C170.629 41.4431 167.963 42.9246 167.963 45.5913C167.963 48.1098 170.185 49.7394 172.555 49.7394C174.481 49.7394 175.37 48.8505 176.111 47.9617H176.259V49.4431H178.926V42.332C178.629 39.0728 176.111 37.1468 173 37.1468ZM172.703 47.3691C171.815 47.3691 170.481 46.9246 170.481 45.7394C170.481 44.258 172.111 43.8135 173.444 43.8135C174.629 43.8135 175.222 44.1098 175.963 44.4061C175.666 46.1839 174.185 47.3691 172.703 47.3691ZM188.259 37.5913L185.148 45.5913H185L181.741 37.5913H178.778L183.666 48.8505L180.852 55.0728H183.666L191.222 37.5913H188.259ZM163.37 49.4431H166.185V30.9246H163.37V49.4431Z" fill="white"/>
<path d="M20.407 16.1094C19.9626 16.5538 19.8145 17.2946 19.8145 18.1834V50.9242C19.8145 51.8131 20.1107 52.5538 20.5552 52.9983L20.7033 53.1464L39.0737 34.776V34.4797L20.407 16.1094Z" fill="url(#paint0_linear_81_40)"/>
<path d="M44.9999 40.9988L38.9258 34.9248V34.4803L44.9999 28.4062L45.148 28.5544L52.4073 32.7025C54.4813 33.8877 54.4813 35.8137 52.4073 36.9988L44.9999 40.9988Z" fill="url(#paint1_linear_81_40)"/>
<path d="M45.148 40.8511L38.9257 34.6289L20.4072 53.1474C21.148 53.8882 22.185 53.8882 23.5183 53.2956L45.148 40.8511Z" fill="url(#paint2_linear_81_40)"/>
<path d="M45.148 28.4044L23.5183 16.1081C22.185 15.3674 21.148 15.5155 20.4072 16.2562L38.9257 34.6266L45.148 28.4044Z" fill="url(#paint3_linear_81_40)"/>
<path opacity="0.2" d="M44.9998 40.7031L23.5183 52.8513C22.3332 53.592 21.2961 53.4439 20.5554 52.8513L20.4072 52.9994L20.5554 53.1476C21.2961 53.7402 22.3332 53.8883 23.5183 53.1476L44.9998 40.7031Z" fill="black"/>
<path opacity="0.12" d="M20.407 52.8511C19.9626 52.4067 19.8145 51.6659 19.8145 50.7771V50.9252C19.8145 51.8141 20.1107 52.5548 20.5552 52.9993V52.8511H20.407ZM52.407 36.5548L44.9996 40.703L45.1478 40.8511L52.407 36.703C53.4441 36.1104 53.8885 35.3696 53.8885 34.6289C53.8885 35.3696 53.2959 35.9622 52.407 36.5548Z" fill="black"/>
<path opacity="0.25" d="M23.5182 16.2568L52.407 32.7012C53.2959 33.2938 53.8885 33.8864 53.8885 34.6271C53.8885 33.8864 53.4441 33.1457 52.407 32.5531L23.5182 16.1086C21.4441 14.9234 19.8145 15.8123 19.8145 18.1827V18.3308C19.8145 16.1086 21.4441 15.0716 23.5182 16.2568Z" fill="white"/>
<defs>
<linearGradient id="paint0_linear_81_40" x1="37.2959" y1="17.902" x2="12.4322" y2="42.7642" gradientUnits="userSpaceOnUse">
<stop stop-color="#00A0FF"/>
<stop offset="0.007" stop-color="#00A1FF"/>
<stop offset="0.26" stop-color="#00BEFF"/>
<stop offset="0.512" stop-color="#00D2FF"/>
<stop offset="0.76" stop-color="#00DFFF"/>
<stop offset="1" stop-color="#00E3FF"/>
</linearGradient>
<linearGradient id="paint1_linear_81_40" x1="55.1243" y1="34.63" x2="19.2769" y2="34.63" gradientUnits="userSpaceOnUse">
<stop stop-color="#FFE000"/>
<stop offset="0.409" stop-color="#FFBD00"/>
<stop offset="0.775" stop-color="#FFA500"/>
<stop offset="1" stop-color="#FF9C00"/>
</linearGradient>
<linearGradient id="paint2_linear_81_40" x1="41.7806" y1="38.0304" x2="8.06501" y2="71.7459" gradientUnits="userSpaceOnUse">
<stop stop-color="#FF3A44"/>
<stop offset="1" stop-color="#C31162"/>
</linearGradient>
<linearGradient id="paint3_linear_81_40" x1="15.8102" y1="5.25772" x2="30.8665" y2="20.314" gradientUnits="userSpaceOnUse">
<stop stop-color="#32A071"/>
<stop offset="0.069" stop-color="#2DA771"/>
<stop offset="0.476" stop-color="#15CF74"/>
<stop offset="0.801" stop-color="#06E775"/>
<stop offset="1" stop-color="#00F076"/>
</linearGradient>
</defs>
</svg>
