<svg viewBox="0 0 104 24" fill="none" xmlns="http://www.w3.org/2000/svg">
<g clip-path="url(#clip0_2236_4217)">
<path d="M45.5686 18.5262H43.5651V9.70113H45.5686V10.8693C45.9899 10.4148 46.5048 10.0552 47.0787 9.81467C47.656 9.57249 48.2786 9.4542 48.9054 9.46759C51.0563 9.46759 52.2829 10.8531 52.2829 13.1345V18.5262H50.2817V13.5661C50.2817 11.8413 49.3364 11.2828 48.1476 11.2828C47.6322 11.3028 47.1289 11.4434 46.679 11.6931C46.2327 11.9408 45.8532 12.2913 45.5728 12.715L45.5681 18.5257L45.5686 18.5262ZM54.7061 18.5262V9.70113H56.7092V18.5257H54.7061V18.5262ZM54.7061 8.02298V6.16159H56.7092V8.02344H54.7061V8.02298ZM58.7631 17.8616V16.0201C59.8631 16.7355 61.156 17.1049 62.4721 17.0797C63.7383 17.0797 64.4751 16.6847 64.4751 16.0381C64.4751 15.6965 64.2513 15.4999 63.9178 15.3365C63.6338 15.2293 63.3433 15.1398 63.048 15.0684L61.9166 14.7979C59.8399 14.2948 58.8582 13.5702 58.8582 12.0481C58.8582 10.4479 60.2853 9.45975 62.7127 9.45975C64.1034 9.45975 65.2348 9.72975 66.0687 10.2517V12.0296C65.0701 11.4591 63.9411 11.15 62.7883 11.1314C61.5454 11.1314 60.9139 11.5265 60.9139 12.1011C60.9139 12.4427 61.1569 12.6411 61.4904 12.8031C61.7016 12.8931 62.1237 13.0076 62.362 13.0731L63.4174 13.2882C65.4946 13.7382 66.5332 14.6733 66.5332 16.075C66.5332 17.6728 64.9392 18.7514 62.5649 18.7514C61.0259 18.7593 59.561 18.3831 58.7631 17.8611V17.8616ZM69.7581 11.4093H67.812V9.70159H69.7581V7.13083H71.7612V9.70067H74.634V11.4093H71.7612V15.5608C71.7612 16.5674 72.2238 16.981 73.1883 16.981C73.6653 16.985 74.1362 16.8741 74.5603 16.6579V18.3291C74.1383 18.6157 73.448 18.7588 72.5405 18.7588C70.835 18.7588 69.7581 17.8422 69.7581 16.1174V11.4093ZM77.4728 17.413C77.0159 16.9899 76.6539 16.4767 76.4099 15.9065C76.1673 15.3396 76.049 14.7281 76.063 14.1125C76.0486 13.4976 76.1668 12.8866 76.4095 12.3204C76.6534 11.7506 77.0157 11.238 77.4728 10.8157C78.4186 9.91806 79.6069 9.46806 81.061 9.46806C82.5152 9.46806 83.6955 9.91806 84.6493 10.8157C85.1056 11.2382 85.4673 11.7508 85.7107 12.3204C85.9528 12.8881 86.0698 13.4987 86.0554 14.1125C86.0655 14.7271 85.9459 15.3371 85.7042 15.9033C85.4612 16.473 85.1021 16.9869 84.6493 17.413C83.7039 18.3111 82.5175 18.7593 81.061 18.7593C79.6046 18.7593 78.4163 18.3116 77.4728 17.413ZM83.2035 16.2079C83.484 15.9329 83.704 15.6036 83.8499 15.2405C83.995 14.8795 84.0623 14.4925 84.0476 14.1042C84.047 13.7214 83.9691 13.3427 83.8184 12.9901C83.6678 12.6376 83.4475 12.3184 83.1704 12.0513C82.6039 11.5047 81.8438 11.1994 81.0526 11.2007C80.2615 11.1994 79.5013 11.5047 78.9349 12.0513C78.6578 12.3184 78.4375 12.6376 78.2868 12.9901C78.1362 13.3427 78.0583 13.7214 78.0576 14.1042C78.0457 14.4918 78.1151 14.8776 78.2614 15.2373C78.4086 15.599 78.6289 15.927 78.9087 16.2014C79.1907 16.4779 79.526 16.6955 79.8946 16.8411C80.2654 16.9876 80.6619 17.0596 81.061 17.053C81.4584 17.0617 81.8538 16.9911 82.2218 16.8457C82.5887 16.7012 82.9219 16.4842 83.2012 16.2079H83.2035ZM87.8518 18.5262V9.70067H89.8549V11.2293C90.4672 10.2065 91.801 9.46759 93.2108 9.46759C93.2733 9.4639 93.3363 9.4699 93.3969 9.48606V11.4277C93.2118 11.4051 93.0257 11.3927 92.8396 11.3908C91.4125 11.3908 90.2811 12.1994 89.8549 13.1161V18.5262H87.8518ZM32.3676 6.16113H27.5957L28.742 8.02298H32.368V6.16159L32.3676 6.16113ZM39.1723 6.16113V13.4987C39.1723 15.8539 37.8199 17.131 35.7613 17.131C33.7033 17.131 32.3676 15.8497 32.3676 13.4987V9.66467H30.3282V13.4234C30.3282 15.2036 30.8286 16.5684 31.8313 17.5404C32.8339 18.5124 34.1533 18.9725 35.7613 18.9725C37.3703 18.9725 38.6724 18.4921 39.6895 17.5219C40.7072 16.5522 41.2094 15.1851 41.2094 13.4294V6.16159H39.1723V6.16113ZM104.001 17.8653C104.001 17.6114 103.986 17.3557 103.977 17.1001V9.58436H101.977V15.3891C101.696 15.8132 101.316 16.1641 100.869 16.4119C100.419 16.6619 99.915 16.8023 99.3991 16.8217C98.2108 16.8217 97.2673 16.2651 97.2673 14.5399V9.58483H95.2643V14.9765C95.2643 16.315 95.6863 17.3442 96.4651 17.9677C97.1661 18.5244 97.9827 18.5816 98.637 18.643C99.4934 18.7472 100.362 18.6096 101.143 18.2461C101.435 18.1027 101.708 17.9256 101.958 17.7185V17.8408C101.969 18.1161 101.942 18.3917 101.877 18.6596C101.649 19.5947 100.894 20.6544 99.8127 20.9105C99.6221 20.9561 99.4263 20.9773 99.2302 20.9737C99.2302 20.9737 95.642 20.9737 95.3403 20.9576L96.7776 22.8624C97.0794 22.8785 99.2302 22.891 99.2302 22.891C100.409 22.8789 101.543 22.4424 102.42 21.6633C103.166 20.9325 103.677 19.999 103.887 18.9808C103.964 18.6139 104.002 18.2401 104.001 17.8657V17.8653Z" fill="white" fill-opacity="0.5"/>
<path d="M10.1776 6.34821C10.0913 6.35258 10.0049 6.34402 9.92114 6.32283L9.01172 5.92683C9.16242 5.8127 9.33872 5.73623 9.52566 5.7039C9.62966 5.69144 9.73552 5.69421 9.83812 5.71267L10.7032 6.13267C10.551 6.24989 10.3695 6.3242 10.1781 6.34775L10.1776 6.34821Z" fill="white" fill-opacity="0.5"/>
<path d="M23.5988 12.2706C23.5701 11.0766 23.3631 9.89336 22.9846 8.75926C22.9471 8.6551 22.8757 8.56616 22.7817 8.50634C22.6869 8.44575 22.5748 8.41715 22.4621 8.4248C22.3495 8.43246 22.2424 8.47595 22.1568 8.5488C22.0719 8.62126 22.0141 8.71957 21.9926 8.82711C21.7258 10.2146 21.0552 11.4947 20.0633 12.5102C19.5167 13.0562 17.5262 14.847 14.7355 14.6646C14.1637 14.6259 12.836 14.5377 11.6561 13.5556C11.1021 13.0927 10.6679 12.5057 10.3894 11.8433C10.306 11.6502 10.2356 11.4519 10.1786 11.2497C10.3129 11.252 10.4477 11.247 10.5815 11.2354C10.6627 11.2299 10.741 11.2045 10.8096 11.1616C11.6704 10.646 12.6426 10.34 13.6461 10.2689C14.6497 10.1977 15.656 10.3633 16.5823 10.7522C16.6869 10.7952 16.8027 10.8037 16.9126 10.7764C17.0225 10.7491 17.1206 10.6876 17.1923 10.6008L18.5816 8.88019C18.6413 8.80639 18.678 8.71704 18.6874 8.623C18.6967 8.52895 18.6783 8.43423 18.6343 8.35034L18.1045 7.32711C18.0551 7.23263 17.9767 7.15605 17.8807 7.10834L12.7031 4.51772L14.3913 0.689261C14.4361 0.584953 14.4426 0.469569 14.4104 0.361107C14.378 0.251969 14.3089 0.15705 14.2146 0.0920303C14.1194 0.0263317 14.0049 -0.00615466 13.889 -0.000304776C13.7732 0.0055451 13.6626 0.0493983 13.5747 0.124338L10.0224 3.29142L9.43941 3.01911L9.58119 1.95526C9.59153 1.87477 9.58152 1.79299 9.55206 1.71727C9.52259 1.64155 9.47459 1.57425 9.41237 1.52142C9.34971 1.46721 9.2748 1.42872 9.19395 1.4092C9.11311 1.38968 9.0287 1.3897 8.94786 1.40926C7.55845 1.74089 6.24076 2.31748 5.05789 3.11142C4.31643 3.61844 3.6358 4.20747 3.02919 4.86711C1.16932 6.82726 0.0966697 9.36942 0.00712711 12.0311C-0.0294227 13.0694 0.0747261 14.1079 0.316795 15.1188C0.793905 17.1594 1.83508 19.0284 3.32393 20.517C4.82744 22.0204 6.71612 23.0905 8.78743 23.6125C10.6935 24.1017 12.6907 24.1277 14.6091 23.6882C14.9929 23.6005 15.3721 23.4934 15.7447 23.367C18.2337 22.4974 20.3636 20.8654 21.8108 18.7183C22.494 17.6784 22.9937 16.5312 23.2887 15.3256C23.5271 14.3252 23.6314 13.298 23.5988 12.2706ZM14.666 15.6593C15.6187 15.7213 16.5742 15.5926 17.4754 15.2808C18.7296 14.8405 19.8679 14.1271 20.8062 13.1933C21.4891 12.5017 22.0397 11.6934 22.4315 10.8076C22.6801 12.3325 22.6026 13.8906 22.2034 15.3851C21.6616 15.7558 21.0788 16.064 20.4662 16.3036C19.3274 16.7523 18.1004 16.9392 16.878 16.85C15.3725 16.7315 13.9323 16.1906 12.7264 15.291C12.8486 15.3339 12.9735 15.3745 13.0995 15.4114C13.6112 15.5491 14.1364 15.6321 14.666 15.6593ZM14.3703 22.7185C12.5938 23.1266 10.7431 23.0958 8.98144 22.629C7.22746 22.1655 5.61734 21.278 4.29584 20.0462C2.81783 18.6531 1.78332 16.863 1.31949 14.8959C1.10002 13.9691 1.007 13.0174 1.04293 12.0662C1.12081 9.64034 2.09459 7.32249 3.78704 5.53449C4.34308 4.93379 4.96465 4.39589 5.64038 3.93065C6.43491 3.39291 7.29891 2.96337 8.20914 2.65357L8.46237 2.57188L8.37376 3.24295C8.35791 3.34818 8.37703 3.45526 8.4288 3.54895C8.4801 3.64218 8.56171 3.71742 8.66105 3.76265L9.89132 4.33818C9.98443 4.381 10.0881 4.39608 10.1897 4.38157C10.2913 4.36707 10.3865 4.32361 10.4636 4.25649L12.5044 2.43526L11.567 4.55095C11.5166 4.6668 11.5124 4.79742 11.5563 4.91557C11.6001 5.03465 11.6887 5.13295 11.8034 5.19157L17.2515 7.92295L17.5621 8.51649L16.6205 9.68695C15.6017 9.32334 14.5147 9.18532 13.4362 9.28265C12.3592 9.37935 11.3169 9.70947 10.3833 10.2496C10.1425 10.2612 9.901 10.2469 9.66327 10.2066C9.64513 10.2049 9.62685 10.2049 9.60871 10.2066C9.23445 10.1432 8.87853 10.0002 8.56544 9.78757C8.25466 9.57665 7.99464 9.30057 7.80386 8.97895C7.51345 8.42396 7.44357 7.78147 7.60799 7.17803C7.62958 7.11316 7.63721 7.04453 7.63038 6.97657C7.62355 6.90861 7.60242 6.84281 7.56835 6.78342C7.53417 6.72301 7.48773 6.67025 7.43195 6.62847C7.37617 6.58669 7.31225 6.55679 7.24422 6.54065C7.17605 6.52397 7.10519 6.52098 7.03582 6.53184C6.96646 6.5427 6.89999 6.56719 6.84035 6.60388C6.78161 6.64037 6.73102 6.68834 6.69165 6.74484C6.65228 6.80134 6.62496 6.86519 6.61136 6.93249C6.37742 7.77977 6.48092 8.68359 6.90051 9.45757C7.13569 9.85878 7.44909 10.2097 7.82252 10.49C8.19856 10.7724 8.6268 10.9792 9.08311 11.0988C9.0999 11.1763 9.11902 11.2562 9.13767 11.3342C9.11482 12.2503 9.21789 13.1656 9.44408 14.0554C9.63577 14.8156 9.92576 15.5481 10.3069 16.2348C10.7589 17.0471 11.3504 17.7754 12.0548 18.387C13.1768 19.3402 14.5198 20.0038 15.9639 20.3185C16.919 20.5243 17.9031 20.5742 18.875 20.4662C17.5757 21.5606 16.0314 22.3327 14.3703 22.7185ZM20.1752 19.191C18.9039 19.5713 17.5533 19.629 16.253 19.358C14.9568 19.0894 13.7506 18.4996 12.7474 17.6439C11.9274 16.9289 11.2835 16.0379 10.8646 15.039C12.0128 16.1891 13.9865 17.6314 16.7917 17.8442C18.0299 17.936 19.2739 17.7758 20.4471 17.3734C20.5823 17.3286 20.7153 17.2797 20.8482 17.2285C21.1271 17.12 21.3994 16.9931 21.6694 16.8602C21.4612 17.3188 21.2185 17.7612 20.9433 18.1839C20.709 18.5353 20.4525 18.8717 20.1752 19.191Z" fill="white" fill-opacity="0.5"/>
</g>
<defs>
<clipPath id="clip0_2236_4217">
<rect width="104" height="24" fill="white"/>
</clipPath>
</defs>
</svg>
