<svg width="68" height="80" viewBox="0 0 68 80" fill="none" xmlns="http://www.w3.org/2000/svg">
<g filter="url(#filter0_dd_2045_18485)">
<path fill-rule="evenodd" clip-rule="evenodd" d="M44.8208 54.0492C40.5521 58.2137 36.3742 62.2896 34 67C31.6258 62.2896 27.4479 58.2137 23.1792 54.0492C16.2106 47.2507 9 40.2162 9 29.8C9 16.1033 20.1929 5 34 5C47.8071 5 59 16.1033 59 29.8C59 40.2162 51.7894 47.2507 44.8208 54.0492Z" fill="#EC5F3B"/>
<path fill-rule="evenodd" clip-rule="evenodd" d="M44.8208 54.0492C40.5521 58.2137 36.3742 62.2896 34 67C31.6258 62.2896 27.4479 58.2137 23.1792 54.0492C16.2106 47.2507 9 40.2162 9 29.8C9 16.1033 20.1929 5 34 5C47.8071 5 59 16.1033 59 29.8C59 40.2162 51.7894 47.2507 44.8208 54.0492Z" stroke="#E74218" stroke-width="2" stroke-linecap="round" stroke-linejoin="round"/>
</g>
<path fill-rule="evenodd" clip-rule="evenodd" d="M49.1594 23.6803C49.6726 25.1925 49.9532 26.7701 49.9921 28.3622C50.0363 29.732 49.8949 31.1015 49.5717 32.4354C49.1718 34.0428 48.4943 35.5725 47.5681 36.9591C45.6063 39.8219 42.7188 41.9979 39.3446 43.1572C38.8394 43.3259 38.3254 43.4686 37.8051 43.5856C35.2044 44.1716 32.4968 44.137 29.9128 43.4846C27.1048 42.7887 24.5444 41.3619 22.5061 39.3572C20.4878 37.3725 19.0763 34.8805 18.4295 32.1597C18.1013 30.8118 17.9601 29.4272 18.0097 28.0428C18.1311 24.4939 19.5852 21.1043 22.1066 18.4908C22.9289 17.6113 23.8516 16.8259 24.8568 16.1499C26.4604 15.0913 28.2467 14.3225 30.1303 13.8803C30.2399 13.8542 30.3543 13.8542 30.4639 13.8802C30.5735 13.9063 30.6751 13.9576 30.76 14.0299C30.8444 14.1003 30.9095 14.19 30.9494 14.291C30.9893 14.392 31.0029 14.501 30.9889 14.6083L30.7967 16.0268L31.587 16.3899L36.4028 12.1671C36.5219 12.0672 36.6718 12.0087 36.8289 12.0009C36.986 11.9931 37.1412 12.0364 37.2702 12.124C37.3981 12.2107 37.4917 12.3373 37.5357 12.4828C37.5793 12.6274 37.5705 12.7812 37.5098 12.9203L35.2211 18.0249L42.2402 21.4791C42.3705 21.5427 42.4767 21.6448 42.5437 21.7708L43.2619 23.1351C43.3215 23.2469 43.3465 23.3732 43.3338 23.4986C43.3211 23.624 43.2713 23.7432 43.1905 23.8415L41.307 26.1357C41.2098 26.2514 41.0768 26.3335 40.9279 26.3699C40.7789 26.4062 40.6219 26.3949 40.4801 26.3376C39.2243 25.8191 37.8601 25.5982 36.4996 25.6931C35.1391 25.788 33.8211 26.196 32.6542 26.8834C32.5613 26.9406 32.4551 26.9745 32.345 26.9819C32.1636 26.9972 31.9809 27.004 31.7988 27.0009C31.8761 27.2706 31.9715 27.5349 32.0846 27.7923C32.4621 28.6755 33.0508 29.4583 33.8017 30.0754C35.398 31.3822 37.1938 31.502 37.9716 31.5538L37.9764 31.5542C41.7597 31.7972 44.4581 29.4095 45.1991 28.6816C46.5438 27.3276 47.4529 25.6207 47.8147 23.7708C47.8437 23.6274 47.9221 23.4963 48.0372 23.3997C48.1533 23.3026 48.2985 23.2446 48.4511 23.2344C48.6038 23.2242 48.7558 23.2623 48.8844 23.3431C49.0118 23.4229 49.1085 23.5414 49.1594 23.6803ZM41.6908 32.3757C40.469 32.7914 39.1737 32.963 37.8822 32.8803C37.1642 32.8442 36.4523 32.7334 35.7585 32.5499C35.5878 32.5006 35.4184 32.4465 35.2527 32.3892C36.8876 33.5888 38.84 34.3099 40.8809 34.468C42.5382 34.5868 44.2015 34.3377 45.7453 33.7394C46.5758 33.4199 47.3659 33.009 48.1004 32.5148C48.6416 30.5222 48.7466 28.4446 48.4096 26.4114C47.8785 27.5925 47.132 28.6702 46.2062 29.5923C44.9342 30.8375 43.3911 31.7887 41.6908 32.3757ZM30.1758 42.1732C32.5641 42.7957 35.073 42.8367 37.4814 42.2926C39.7333 41.7783 41.8267 40.7488 43.5881 39.2896C42.2706 39.4336 40.9365 39.3671 39.6417 39.0926C37.6839 38.673 35.8633 37.7882 34.3423 36.5172C33.3873 35.7018 32.5854 34.7308 31.9727 33.6477C31.456 32.7321 31.0629 31.7554 30.803 30.7419C30.4964 29.5554 30.3567 28.3351 30.3876 27.1136L30.3866 27.1093C30.3616 27.0066 30.3361 26.9017 30.3137 26.7997C29.6951 26.6403 29.1145 26.3645 28.6047 25.988C28.0985 25.6143 27.6736 25.1463 27.3548 24.6114C26.786 23.5794 26.6457 22.3743 26.9628 21.2446C26.9812 21.1549 27.0183 21.0698 27.0716 20.9944C27.125 20.9191 27.1936 20.8551 27.2732 20.8065C27.3541 20.7576 27.4442 20.7249 27.5382 20.7104C27.6323 20.6959 27.7283 20.6999 27.8207 20.7222C27.913 20.7437 27.9996 20.7836 28.0752 20.8393C28.1509 20.895 28.2138 20.9653 28.2601 21.0459C28.3063 21.125 28.335 21.2128 28.3442 21.3034C28.3535 21.394 28.3432 21.4855 28.3139 21.572C28.091 22.3766 28.1857 23.2333 28.5794 23.9732C28.8381 24.4021 29.1906 24.7702 29.6119 25.0514C30.0363 25.3349 30.5188 25.5255 31.0262 25.6102C31.0508 25.6079 31.0756 25.6079 31.1002 25.6102C31.4224 25.6638 31.7498 25.683 32.0763 25.6674C33.342 24.9473 34.755 24.5071 36.215 24.3782C37.6771 24.2484 39.1508 24.4324 40.5319 24.9172L41.8084 23.3566L41.3873 22.5652L34.0015 18.9234C33.846 18.8452 33.7259 18.7142 33.6664 18.5554C33.607 18.3979 33.6127 18.2237 33.681 18.0692L34.9518 15.2483L32.1851 17.6766C32.0806 17.7661 31.9516 17.8241 31.8139 17.8434C31.6761 17.8627 31.5355 17.8426 31.4093 17.7855L29.7415 17.0182C29.6068 16.9579 29.4962 16.8575 29.4266 16.7332C29.3565 16.6083 29.3305 16.4655 29.352 16.3252L29.4722 15.4305L29.1288 15.5394C27.8949 15.9525 26.7236 16.5252 25.6465 17.2422C24.7304 17.8625 23.8878 18.5797 23.134 19.3806C20.8396 21.7646 19.5194 24.8551 19.4139 28.0895C19.3652 29.3578 19.4913 30.6268 19.7888 31.8625C20.4176 34.4853 21.82 36.8721 23.8237 38.7295C25.6152 40.372 27.798 41.5554 30.1758 42.1732ZM40.0337 37.812C41.7964 38.1732 43.6273 38.0963 45.3508 37.5892C45.7267 37.1635 46.0745 36.715 46.3921 36.2465C46.7651 35.683 47.0942 35.093 47.3765 34.4816C47.0105 34.6588 46.6412 34.828 46.2631 34.9726C46.083 35.0409 45.9028 35.1062 45.7194 35.1659C44.129 35.7024 42.4425 35.916 40.7639 35.7935C36.961 35.5099 34.2854 33.5868 32.7288 32.0532C33.2966 33.3852 34.1696 34.5731 35.2812 35.5265C36.6412 36.6674 38.2764 37.4538 40.0337 37.812ZM31.4497 20.4318C31.5632 20.4601 31.6804 20.4715 31.7974 20.4657L31.798 20.4651C32.0575 20.4337 32.3035 20.3346 32.5099 20.1783L31.3371 19.6183C31.198 19.5937 31.0545 19.59 30.9135 19.6066C30.6601 19.6497 30.4211 19.7517 30.2168 19.9038L31.4497 20.4318Z" fill="white" fill-opacity="0.9"/>
<defs>
<filter id="filter0_dd_2045_18485" x="0" y="0" width="68" height="80" filterUnits="userSpaceOnUse" color-interpolation-filters="sRGB">
<feFlood flood-opacity="0" result="BackgroundImageFix"/>
<feColorMatrix in="SourceAlpha" type="matrix" values="0 0 0 0 0 0 0 0 0 0 0 0 0 0 0 0 0 0 127 0" result="hardAlpha"/>
<feOffset dy="4"/>
<feGaussianBlur stdDeviation="4"/>
<feColorMatrix type="matrix" values="0 0 0 0 0 0 0 0 0 0 0 0 0 0 0 0 0 0 0.15 0"/>
<feBlend mode="normal" in2="BackgroundImageFix" result="effect1_dropShadow_2045_18485"/>
<feColorMatrix in="SourceAlpha" type="matrix" values="0 0 0 0 0 0 0 0 0 0 0 0 0 0 0 0 0 0 127 0" result="hardAlpha"/>
<feOffset/>
<feGaussianBlur stdDeviation="1"/>
<feColorMatrix type="matrix" values="0 0 0 0 0 0 0 0 0 0 0 0 0 0 0 0 0 0 0.12 0"/>
<feBlend mode="normal" in2="effect1_dropShadow_2045_18485" result="effect2_dropShadow_2045_18485"/>
<feBlend mode="normal" in="SourceGraphic" in2="effect2_dropShadow_2045_18485" result="shape"/>
</filter>
</defs>
</svg>
