<svg viewBox="0 0 33 36" fill="none" xmlns="http://www.w3.org/2000/svg">
<path d="M0 30.4446L0 5.55575C0 3.50342 0 2.47726 0.431882 1.87004C0.808822 1.34006 1.38982 0.991515 2.03483 0.908323C2.77317 0.813095 3.67669 1.29497 5.48416 2.25896L5.48926 2.26168L28.8226 14.7061C30.828 15.7757 31.8308 16.3106 32.1594 17.0227C32.4456 17.643 32.4456 18.3575 32.1594 18.9778C31.8308 19.6899 30.828 20.2248 28.8226 21.2944L5.48926 33.7388L5.48283 33.7422C3.67624 34.7057 2.77298 35.1875 2.03483 35.0923C1.38982 35.0091 0.808822 34.6605 0.431882 34.1305C0 33.5233 0 32.497 0 30.4446Z" fill="currentColor"/>
</svg>
