<svg viewBox="0 0 40 40" fill="none" xmlns="http://www.w3.org/2000/svg">
<path d="M14.0601 28.9125C15.2701 29.4625 16.8101 29.4625 18.0201 28.9125C19.2301 28.3625 20.7701 28.3625 21.9801 28.9125C23.1901 29.4625 24.7301 29.4625 25.9401 28.9125M20 11V13M12 21H10M14.3141 15.3141L12.8999 13.8999M25.6855 15.3141L27.0998 13.8999M30 21H28M15 21C15 18.2386 17.2386 16 20 16C22.7614 16 25 18.2386 25 21M10.1001 25.4125C11.3101 24.8625 12.8501 24.8625 14.0601 25.4125C15.2701 25.9625 16.8101 25.9625 18.0201 25.4125C19.2301 24.8625 20.7701 24.8625 21.9801 25.4125C23.1901 25.9625 24.7301 25.9625 25.9401 25.4125C27.1501 24.8625 28.6901 24.8625 29.9001 25.4125" stroke="#0F1A20" stroke-width="2" stroke-linecap="round" stroke-linejoin="round"/>
</svg>
