<svg width="44" height="44" viewBox="0 0 44 44" fill="none" xmlns="http://www.w3.org/2000/svg">
<path d="M0 22C0 9.84974 9.84974 0 22 0C34.1503 0 44 9.84974 44 22C44 34.1503 34.1503 44 22 44C9.84974 44 0 34.1503 0 22Z" fill="#0088CC"/>
<path d="M7.92457 20.9015C15.4422 17.6559 20.4539 15.5161 22.9598 14.4823C30.1229 11.5302 31.6095 11.0175 32.5804 11.0002C32.7939 10.9968 33.2693 11.0491 33.5795 11.2976C33.8374 11.5073 33.9099 11.7908 33.9461 11.9898C33.9784 12.1887 34.0227 12.6419 33.9864 12.9957C33.5997 17.0366 31.9197 26.8427 31.0656 31.3688C30.707 33.2838 29.994 33.9259 29.305 33.9886C27.8064 34.1252 26.6703 33.0079 25.2199 32.066C22.9517 30.5913 21.6706 29.6737 19.4669 28.2351C16.9207 26.5724 18.5725 25.6584 20.0228 24.165C20.4015 23.774 27.0006 17.8264 27.1255 17.287C27.1416 17.2195 27.1577 16.9679 27.0046 16.8354C26.8556 16.7024 26.634 16.7479 26.4728 16.7839C26.2432 16.835 22.6214 19.21 15.5953 23.9086C14.5679 24.609 13.6373 24.9504 12.7993 24.9324C11.8808 24.9129 10.1081 24.4165 8.79075 23.9925C7.17926 23.4722 5.89409 23.1971 6.0069 22.3134C6.0633 21.8534 6.70387 21.3826 7.92457 20.9015Z" fill="white"/>
</svg>
