<svg width="24" height="24" viewBox="0 0 24 24" fill="none" xmlns="http://www.w3.org/2000/svg">
<path d="M0 12C0 5.37258 5.37258 0 12 0C18.6274 0 24 5.37258 24 12C24 18.6274 18.6274 24 12 24C5.37258 24 0 18.6274 0 12Z" fill="#0088CC"/>
<path d="M4.96229 11.166C8.72109 9.47266 11.227 8.35621 12.4799 7.81684C16.0614 6.27664 16.8047 6.00914 17.2902 6.00008C17.397 5.99831 17.6347 6.0256 17.7898 6.15529C17.9187 6.26466 17.9549 6.41258 17.9731 6.51643C17.9892 6.62018 18.0113 6.85664 17.9932 7.04122C17.7998 9.14954 16.9598 14.2657 16.5328 16.6272C16.3535 17.6263 15.997 17.9613 15.6525 17.9941C14.9032 18.0653 14.3351 17.4824 13.61 16.9909C12.4759 16.2216 11.8353 15.7428 10.7334 14.9922C9.46036 14.1247 10.2863 13.6478 11.0114 12.8687C11.2008 12.6647 14.5003 9.56162 14.5627 9.28016C14.5708 9.24495 14.5789 9.1137 14.5023 9.04454C14.4278 8.97516 14.317 8.99891 14.2364 9.01766C14.1216 9.04433 12.3107 10.2835 8.79764 12.7349C8.28397 13.1003 7.81866 13.2785 7.39967 13.2691C6.94039 13.2589 6.05407 12.9999 5.39538 12.7787C4.58963 12.5072 3.94705 12.3637 4.00345 11.9026C4.03165 11.6626 4.35193 11.417 4.96229 11.166Z" fill="white"/>
</svg>
