<svg viewBox="0 0 81 27" fill="none" xmlns="http://www.w3.org/2000/svg">
<path d="M22.2697 18.1573C20.9645 18.1573 19.7414 17.6047 18.6302 16.7051L18.9008 15.4351L18.9125 15.388C19.1535 14.0359 19.9179 11.7662 22.2697 11.7662C24.0335 11.7662 25.4681 13.2009 25.4681 14.9647C25.4622 16.7226 24.0277 18.1573 22.2697 18.1573ZM22.2697 8.5267C19.2652 8.5267 16.937 10.4787 15.9905 13.6889C14.5441 11.5193 13.4504 8.91478 12.8096 6.72168H9.57591V15.1352C9.57591 16.7932 8.2236 18.1454 6.56556 18.1454C4.90752 18.1454 3.55537 16.7932 3.55537 15.1352V6.72168H0.321326V15.1352C0.309561 18.5807 3.11411 21.4086 6.55944 21.4086C10.0049 21.4086 12.8095 18.5807 12.8095 15.1352V13.7242C13.4385 15.0352 14.2087 16.3581 15.1436 17.5341L13.1621 26.847H16.4724L17.9069 20.0916C19.1651 20.8971 20.6115 21.4028 22.2696 21.4028C25.8148 21.4028 28.7017 18.4983 28.7017 14.9529C28.7017 11.4134 25.815 8.5267 22.2697 8.5267Z" fill="white"/>
<path d="M38.5735 8.8912L40.6607 17.3047L42.9597 8.8912H45.6995L42.166 21.0499H39.4261L37.2567 12.5834L35.0929 21.044H32.3531L28.8193 8.8854H31.5593L33.8581 17.2989L35.9453 8.8854H38.5734V8.89136L38.5735 8.8912ZM52.2551 8.52665C48.6981 8.52665 45.8171 11.4134 45.8171 14.9646C45.8171 18.5218 48.7039 21.4027 52.2551 21.4027C55.8123 21.4027 58.699 18.5218 58.699 14.9646C58.699 11.4076 55.8123 8.52665 52.2551 8.52665ZM52.2551 18.7569C50.1621 18.7569 48.4687 17.0636 48.4687 14.9706C48.4687 12.8774 50.1679 11.1842 52.2551 11.1842C54.3483 11.1842 56.0415 12.8774 56.0415 14.9706C56.0415 17.0578 54.3483 18.7569 52.2551 18.7569ZM66.5246 11.6134C64.6844 11.6134 63.1969 13.1067 63.1969 14.9411V21.044H60.4393V8.8912H63.1969V10.7608C63.1969 10.7608 64.3727 8.88524 66.7892 8.88524H67.6358V11.6134H66.5246ZM75.779 14.4943C77.7367 13.3889 79.0656 11.2899 79.0656 8.88524H76.308C76.308 10.9136 74.6618 12.5599 72.6334 12.5599H72.2629V3.02344H69.5056V21.0438H72.2629V15.3174H72.5924C72.8628 15.3174 73.2156 15.4939 73.3743 15.7113L77.2899 21.044H80.5942L75.779 14.4943Z" fill="white"/>
</svg>
