<svg viewBox="0 0 24 24" fill="none" xmlns="http://www.w3.org/2000/svg">
  <path d="M20.9856 6.93269C17.9564 2.24985 11.7719 0.857648 6.97575 3.76861C2.3058 6.67957 0.791227 13.0077 3.82038 17.6906L4.07281 18.0703L3.06309 21.8672L6.84953 20.8547L7.22818 21.1078C8.86897 21.9937 10.636 22.5 12.403 22.5C14.2962 22.5 16.1894 21.9937 17.8302 20.9812C22.5002 17.9437 23.8885 11.7421 20.9856 6.93269ZM18.3351 16.6781C17.8302 17.4375 17.1991 17.9437 16.3156 18.0703C15.8108 18.0703 15.1797 18.3234 12.6554 17.3109C10.5098 16.2984 8.74275 14.6531 7.48061 12.7546C6.72332 11.8687 6.34467 10.7296 6.21846 9.59053C6.21846 8.57802 6.5971 7.69207 7.22818 7.05926C7.48061 6.80613 7.73304 6.67957 7.98547 6.67957H8.61654C8.86897 6.67957 9.1214 6.67957 9.24761 7.18582C9.50004 7.81864 10.1311 9.3374 10.1311 9.46396C10.2573 9.59053 10.2573 9.84365 10.1311 9.97022C10.2573 10.2233 10.1311 10.4765 10.0049 10.603C9.87869 10.7296 9.75247 10.9827 9.62626 11.1093C9.37383 11.2359 9.24761 11.489 9.37383 11.7421C9.87869 12.5015 10.5098 13.2609 11.1408 13.8937C11.8981 14.5265 12.6554 15.0328 13.5389 15.4124C13.7913 15.539 14.0438 15.539 14.17 15.2859C14.2962 15.0328 14.9273 14.3999 15.1797 14.1468C15.4321 13.8937 15.5583 13.8937 15.8108 14.0202L17.8302 15.0328C18.0826 15.1593 18.3351 15.2859 18.4613 15.4124C18.5875 15.7921 18.5875 16.2984 18.3351 16.6781Z" fill="#ffffff"/>
</svg>
