<svg width="24" height="24" viewBox="0 0 24 24" fill="none" xmlns="http://www.w3.org/2000/svg">
<g clip-path="url('#clip0_478_1246')">
<path d="M16.5544 7.16628C16.8817 6.83898 16.8817 6.29829 16.5544 5.95677C16.2271 5.62948 15.6864 5.62948 15.3449 5.95677L6.39441 14.9073C5.32719 15.9745 5.32719 17.7247 6.39441 18.7919C7.46164 19.8592 9.21188 19.8592 10.2791 18.7919L19.6565 9.41458C19.7419 9.37189 19.8272 9.31499 19.9126 9.24383C21.1648 7.99163 24.4945 4.66189 21.2929 1.46022C20.0691 0.23645 18.6035 -0.233129 17.0524 0.108383C15.786 0.37873 14.4769 1.18982 13.1677 2.49897L3.00777 12.6589C1.79826 13.8685 1.15793 15.5476 1.22904 17.3832C1.30021 19.1335 2.02592 20.841 3.23543 22.0505C4.44493 23.26 6.12406 23.9573 7.86005 24C7.90274 24 7.94543 24 8.00233 24C9.73836 24 11.3321 23.3455 12.5131 22.1644L22.5308 12.1467C22.8581 11.8194 22.8581 11.2787 22.5308 10.9372C22.2036 10.6099 21.6629 10.6099 21.3213 10.9372L11.3036 20.9548C10.4214 21.8371 9.21188 22.3067 7.88853 22.2924C6.59364 22.2639 5.3414 21.7374 4.44493 20.841C2.52393 18.92 2.42433 15.6614 4.21727 13.8685L14.3773 3.70847C15.4303 2.65546 16.4832 1.9867 17.4082 1.78747C18.39 1.57402 19.2723 1.85863 20.0834 2.68394C20.8802 3.48081 21.1079 4.22074 20.8233 5.11721C20.6241 5.75754 20.1687 6.46904 19.4003 7.32282C19.3434 7.36551 19.2723 7.4082 19.2296 7.45089L9.08382 17.5967C8.6854 17.9951 8.01659 17.9951 7.61818 17.5967C7.21976 17.1982 7.21976 16.5294 7.61818 16.131L16.5544 7.16628Z" fill="#3e3e3e"></path>
</g>
<defs>
<clipPath id="clip0_478_1246">
<rect width="24" height="24" fill="#3e3e3e"></rect>
</clipPath>
</defs>
</svg>
