<svg width="24" height="24" fill="none" xmlns="http://www.w3.org/2000/svg"><g clip-path="url('#clip0_478_1246')"><path d="M16.554 7.166a.868.868 0 0 0 0-1.21.868.868 0 0 0-1.21 0l-8.95 8.951a2.757 2.757 0 0 0 0 3.885 2.757 2.757 0 0 0 3.885 0l9.378-9.377c.085-.043.17-.1.256-.171 1.252-1.252 4.581-4.582 1.38-7.784-1.224-1.224-2.69-1.693-4.24-1.352-1.267.27-2.576 1.082-3.885 2.391l-10.16 10.16c-1.21 1.21-1.85 2.889-1.779 4.724.071 1.75.797 3.458 2.006 4.668C4.445 23.26 6.125 23.956 7.86 24h.142c1.736 0 3.33-.654 4.511-1.836l10.018-10.017a.868.868 0 0 0 0-1.21.868.868 0 0 0-1.21 0L11.304 20.955c-.883.882-2.092 1.352-3.415 1.337a5.056 5.056 0 0 1-3.444-1.451c-1.921-1.921-2.02-5.18-.228-6.973l10.16-10.16c1.053-1.053 2.106-1.721 3.031-1.92.982-.214 1.864.07 2.675.896.797.797 1.025 1.537.74 2.433-.199.64-.654 1.352-1.423 2.206-.057.043-.128.085-.17.128L9.084 17.597a1.048 1.048 0 0 1-1.466 0 1.048 1.048 0 0 1 0-1.466l8.936-8.965Z" fill="#3e3e3e"/></g><defs><clipPath id="clip0_478_1246"><path fill="#3e3e3e" d="M0 0h24v24H0z"/></clipPath></defs></svg>