<svg width="122" height="60" fill="none" xmlns="http://www.w3.org/2000/svg"><mask id="path-1-inside-1_595_723" fill="#fff"><path d="M90.845 18.155a41.499 41.499 0 0 0-58.69 0l.727.727a40.472 40.472 0 0 1 57.236 0l.727-.727Z"/></mask><path d="M90.845 18.155a41.499 41.499 0 0 0-58.69 0l.727.727a40.472 40.472 0 0 1 57.236 0l.727-.727Z" stroke="#fff" stroke-width="2" mask="url('#path-1-inside-1_595_723')"/><circle cx="113.5" cy="6.5" r="5" fill="#1275D3" stroke="#fff"/><circle cx="8.5" cy="6.5" r="5" fill="#1275D3" stroke="#fff"/><path stroke="#fff" d="M13 6.5h96"/><path fill="#1275D3" stroke="#fff" d="M55.5.5h13v13h-13z"/><path stroke="#fff" d="M90.5 18.5h7v7h-7zM25.5 18.5h7v7h-7zM49.5 55.5h26v4h-26zM54.5 52.5h15v2h-15z"/><mask id="path-10-inside-2_595_723" fill="#fff"><path fill-rule="evenodd" clip-rule="evenodd" d="m67.149 52.752.001.248h-10.3l.001-.248c0-5.458-2.685-10.311-6.851-13.397L61.02 17h1.96L74 39.355c-4.166 3.086-6.851 7.939-6.851 13.397Z"/></mask><path fill-rule="evenodd" clip-rule="evenodd" d="m67.149 52.752.001.248h-10.3l.001-.248c0-5.458-2.685-10.311-6.851-13.397L61.02 17h1.96L74 39.355c-4.166 3.086-6.851 7.939-6.851 13.397Z" fill="#fff"/><path d="M67.15 53v1h1.016l-.016-1.015-1 .015Zm-10.3 0-1-.015L55.834 54h1.015v-1ZM50 39.355l-.897-.442-.37.748.672.497.595-.803ZM61.02 17v-1H60.4l-.275.558.897.442Zm1.96 0 .896-.442-.275-.558h-.622v1ZM74 39.355l.595.803.671-.497-.369-.748-.897.442Zm-5.85 13.63a16.462 16.462 0 0 1-.001-.233h-2c0 .088 0 .175.002.263l2-.03ZM56.85 54h10.3v-2h-10.3v2Zm-.999-1.248-.001.233 2 .03.001-.263h-2Zm-6.446-12.594c3.93 2.911 6.446 7.475 6.446 12.594h2c0-5.797-2.853-10.94-7.256-14.2l-1.19 1.606Zm10.719-23.6-11.02 22.355 1.793.884 11.02-22.355-1.793-.884ZM62.979 16h-1.958v2h1.958v-2Zm11.918 22.913-11.02-22.355-1.795.884 11.021 22.355 1.794-.884Zm-6.748 13.839c0-5.12 2.517-9.683 6.446-12.594l-1.19-1.607c-4.403 3.262-7.256 8.404-7.256 14.2h2Z" fill="#fff" mask="url('#path-10-inside-2_595_723')"/><circle cx="62" cy="37" r="3.5" fill="#1275D3" stroke="#fff"/><path fill="#1275D3" d="M61.5 17h1v17h-1z"/></svg>