<svg width="171" height="36" viewBox="0 0 171 36" fill="none" xmlns="http://www.w3.org/2000/svg">
<path d="M15.5025 27.8993L3.53738 18.3053L15.539 8.7113L17.3629 10.9L7.87838 18.2688L17.3994 25.6376L15.5025 27.8993ZM19.4497 38.5512L34.8438 5.46467H38.5282L23.1341 38.5512H19.4497ZM54.6252 27.8628C56.0844 27.8628 57.4827 27.571 58.8203 26.9873C60.1579 26.3793 61.2887 25.5281 62.2128 24.4338L64.7299 26.9873C63.4896 28.3492 61.9575 29.4314 60.1335 30.2339C58.3339 31.0122 56.4613 31.4013 54.5158 31.4013C52.6432 31.4013 50.88 31.0608 49.2263 30.3799C47.5969 29.6989 46.1864 28.7748 44.9947 27.6074C43.8031 26.4158 42.8546 25.0174 42.1494 23.4124C41.4684 21.783 41.128 20.0563 41.128 18.2323C41.128 16.3841 41.4684 14.6574 42.1494 13.0523C42.8546 11.4472 43.8031 10.061 44.9947 8.8937C46.1864 7.70205 47.5969 6.76575 49.2263 6.08481C50.88 5.40387 52.6432 5.0634 54.5158 5.0634C56.51 5.0634 58.419 5.46467 60.243 6.26721C62.0912 7.04543 63.6112 8.11548 64.8029 9.47736L62.2493 12.1039C61.2765 10.9852 60.1092 10.1218 58.7473 9.51384C57.3854 8.90586 55.9749 8.60187 54.5158 8.60187C53.1782 8.60187 51.9258 8.84506 50.7584 9.33145C49.5911 9.81783 48.5818 10.4988 47.7307 11.3743C46.9038 12.2254 46.2472 13.2469 45.7608 14.4385C45.2744 15.6058 45.0312 16.8704 45.0312 18.2323C45.0312 19.5942 45.2744 20.871 45.7608 22.0626C46.2472 23.23 46.916 24.2392 47.7671 25.0904C48.6183 25.9416 49.6276 26.6225 50.7949 27.1332C51.9866 27.6196 53.2633 27.8628 54.6252 27.8628ZM95.2903 18.2323C95.2903 20.0563 94.9376 21.783 94.2324 23.4124C93.5514 25.0174 92.6151 26.4158 91.4235 27.6074C90.2318 28.7748 88.8213 29.6989 87.1919 30.3799C85.5625 31.0608 83.8237 31.4013 81.9754 31.4013C80.1271 31.4013 78.3883 31.0608 76.7589 30.3799C75.1295 29.6989 73.719 28.7748 72.5273 27.6074C71.36 26.4158 70.4237 25.0174 69.7184 23.4124C69.0375 21.783 68.697 20.0563 68.697 18.2323C68.697 16.4084 69.0375 14.6939 69.7184 13.0888C70.4237 11.4594 71.36 10.061 72.5273 8.8937C73.719 7.70205 75.1295 6.76575 76.7589 6.08481C78.3883 5.40387 80.1271 5.0634 81.9754 5.0634C83.8237 5.0634 85.5625 5.40387 87.1919 6.08481C88.8213 6.76575 90.2318 7.70205 91.4235 8.8937C92.6151 10.061 93.5514 11.4594 94.2324 13.0888C94.9376 14.6939 95.2903 16.4084 95.2903 18.2323ZM91.387 18.2323C91.387 16.8704 91.1438 15.6058 90.6574 14.4385C90.171 13.2469 89.5022 12.2254 88.6511 11.3743C87.8242 10.4988 86.8271 9.81783 85.6598 9.33145C84.5168 8.84506 83.2886 8.60187 81.9754 8.60187C80.6622 8.60187 79.434 8.84506 78.291 9.33145C77.148 9.81783 76.1509 10.4988 75.2997 11.3743C74.4729 12.2254 73.8163 13.2469 73.3299 14.4385C72.8435 15.6058 72.6003 16.8704 72.6003 18.2323C72.6003 19.5942 72.8435 20.871 73.3299 22.0626C73.8163 23.23 74.4729 24.2392 75.2997 25.0904C76.1509 25.9416 77.148 26.6225 78.291 27.1332C79.434 27.6196 80.6622 27.8628 81.9754 27.8628C83.2886 27.8628 84.5168 27.6196 85.6598 27.1332C86.8271 26.6225 87.8242 25.9416 88.6511 25.0904C89.5022 24.2392 90.171 23.23 90.6574 22.0626C91.1438 20.871 91.387 19.5942 91.387 18.2323ZM101.386 31V5.46467H110.396C112.318 5.46467 114.093 5.79298 115.722 6.4496C117.376 7.0819 118.799 7.96956 119.99 9.11257C121.206 10.2313 122.155 11.581 122.836 13.1617C123.517 14.7425 123.857 16.4449 123.857 18.2688C123.857 20.0928 123.517 21.783 122.836 23.3394C122.155 24.8958 121.218 26.2456 120.027 27.3886C118.835 28.5073 117.412 29.3949 115.759 30.0515C114.105 30.6838 112.318 31 110.396 31H101.386ZM110.469 8.8937H105.216V27.571H110.469C111.783 27.571 113.023 27.3399 114.19 26.8779C115.357 26.3915 116.355 25.7349 117.181 24.908C118.033 24.0568 118.701 23.0719 119.188 21.9532C119.674 20.8102 119.917 19.5821 119.917 18.2688C119.917 16.9556 119.674 15.7274 119.188 14.5844C118.701 13.4171 118.033 12.42 117.181 11.5931C116.355 10.742 115.357 10.0853 114.19 9.62328C113.023 9.13689 111.783 8.8937 110.469 8.8937ZM129.953 31V5.46467H148.776V8.82074H133.783V16.4813H143.632V19.7645H133.783V27.6439H148.922V31H129.953ZM156.746 8.67482L168.711 18.2688L156.709 27.8628L154.885 25.6741L164.37 18.3053L154.849 10.9365L156.746 8.67482Z" fill="#FAFAFA"></path>
<path d="M15.5025 27.8993L14.8686 28.6898L15.6419 29.3099L16.2789 28.5504L15.5025 27.8993ZM3.53737 18.3053L2.90466 17.5138L1.91605 18.3041L2.90349 19.0958L3.53737 18.3053ZM15.539 8.7113L16.3174 8.0626L15.6818 7.29985L14.9063 7.91981L15.539 8.7113ZM17.3629 10.9L17.9846 11.7002L18.8127 11.0569L18.1414 10.2513L17.3629 10.9ZM7.87838 18.2688L7.2567 17.4686L6.22478 18.2703L7.25819 19.0702L7.87838 18.2688ZM17.3994 25.6376L18.1758 26.2887L18.853 25.4813L18.0196 24.8362L17.3994 25.6376ZM16.1364 27.1087L4.17126 17.5147L2.90349 19.0958L14.8686 28.6898L16.1364 27.1087ZM4.17009 19.0968L16.1717 9.5028L14.9063 7.91981L2.90466 17.5138L4.17009 19.0968ZM14.7605 9.36001L16.5845 11.5487L18.1414 10.2513L16.3174 8.0626L14.7605 9.36001ZM16.7413 10.0999L7.2567 17.4686L8.50007 19.069L17.9846 11.7002L16.7413 10.0999ZM7.25819 19.0702L16.7792 26.4389L18.0196 24.8362L8.49858 17.4675L7.25819 19.0702ZM16.623 24.9864L14.7261 27.2481L16.2789 28.5504L18.1758 26.2887L16.623 24.9864ZM19.4497 38.5512L18.5309 38.1237L17.8606 39.5645H19.4497V38.5512ZM34.8438 5.46467V4.45136H34.1977L33.9251 5.03721L34.8438 5.46467ZM38.5282 5.46467L39.447 5.89213L40.1173 4.45136H38.5282V5.46467ZM23.1341 38.5512V39.5645H23.7802L24.0528 38.9786L23.1341 38.5512ZM20.3684 38.9786L35.7626 5.89213L33.9251 5.03721L18.5309 38.1237L20.3684 38.9786ZM34.8438 6.47797H38.5282V4.45136H34.8438V6.47797ZM37.6095 5.03721L22.2153 38.1237L24.0528 38.9786L39.447 5.89213L37.6095 5.03721ZM23.1341 37.5379H19.4497V39.5645H23.1341V37.5379ZM58.8203 26.9873L59.2256 27.916L59.2326 27.913L59.2396 27.9098L58.8203 26.9873ZM62.2128 24.4338L62.9345 23.7224L62.155 22.9317L61.4386 23.78L62.2128 24.4338ZM64.7299 26.9873L65.4791 27.6696L66.1256 26.9597L65.4515 26.276L64.7299 26.9873ZM60.1335 30.2339L60.5357 31.164L60.5416 31.1614L60.1335 30.2339ZM49.2263 30.3799L48.8356 31.3148L48.8405 31.3168L49.2263 30.3799ZM44.9947 27.6074L44.2782 28.324L44.2856 28.3313L44.9947 27.6074ZM42.1494 23.4124L41.2144 23.8031L41.218 23.8116L41.2217 23.82L42.1494 23.4124ZM42.1494 13.0523L41.2216 12.6446L41.2165 12.6566L42.1494 13.0523ZM44.9947 8.8937L45.7039 9.6176L45.7113 9.61021L44.9947 8.8937ZM49.2263 6.08481L48.8405 5.14782L48.8356 5.14986L49.2263 6.08481ZM60.243 6.26721L59.8349 7.1947L59.8423 7.19796L59.8498 7.20111L60.243 6.26721ZM64.8029 9.47736L65.5294 10.1837L66.181 9.51353L65.5654 8.81009L64.8029 9.47736ZM62.2493 12.1039L61.4847 12.7688L62.2077 13.6003L62.9759 12.8102L62.2493 12.1039ZM58.7473 9.51384L59.1604 8.58855H59.1604L58.7473 9.51384ZM50.7584 9.33145L50.3687 8.39608L50.3687 8.39609L50.7584 9.33145ZM47.7307 11.3743L47.0041 10.6679L47.0038 10.6682L47.7307 11.3743ZM45.7608 14.4385L46.6962 14.8283L46.699 14.8214L45.7608 14.4385ZM45.7608 22.0626L44.8226 22.4456L44.8254 22.4524L45.7608 22.0626ZM47.7671 25.0904L47.0506 25.8069L47.7671 25.0904ZM50.7949 27.1332L50.3887 28.0616L50.4003 28.0666L50.412 28.0714L50.7949 27.1332ZM54.6252 28.8761C56.2239 28.8761 57.7602 28.5555 59.2256 27.916L58.415 26.0586C57.2053 26.5865 55.9449 26.8495 54.6252 26.8495V28.8761ZM59.2396 27.9098C60.7103 27.2413 61.9634 26.2997 62.987 25.0875L61.4386 23.78C60.614 24.7566 59.6054 25.5173 58.401 26.0648L59.2396 27.9098ZM61.4912 25.1451L64.0082 27.6986L65.4515 26.276L62.9345 23.7224L61.4912 25.1451ZM63.9807 26.305C62.8433 27.5539 61.4305 28.5562 59.7254 29.3064L60.5416 31.1614C62.4844 30.3066 64.1359 29.1445 65.4791 27.6696L63.9807 26.305ZM59.7313 29.3039C58.0577 30.0276 56.3219 30.388 54.5158 30.388V32.4146C56.6008 32.4146 58.6101 31.9967 60.5357 31.164L59.7313 29.3039ZM54.5158 30.388C52.7692 30.388 51.1377 30.0711 49.6121 29.4429L48.8405 31.3168C50.6223 32.0505 52.5172 32.4146 54.5158 32.4146V30.388ZM49.617 29.4449C48.0991 28.8106 46.7984 27.9558 45.7038 26.8836L44.2856 28.3313C45.5744 29.5937 47.0947 30.5873 48.8356 31.3148L49.617 29.4449ZM45.7113 26.8909C44.6121 25.7918 43.7338 24.4993 43.0771 23.0047L41.2217 23.82C41.9755 25.5355 42.994 27.0398 44.2782 28.324L45.7113 26.8909ZM43.0843 23.0216C42.4568 21.5201 42.1413 19.9266 42.1413 18.2323H40.1146C40.1146 20.1859 40.48 22.0458 41.2144 23.8031L43.0843 23.0216ZM42.1413 18.2323C42.1413 16.5117 42.4575 14.9205 43.0822 13.4481L41.2165 12.6566C40.4793 14.3942 40.1146 16.2564 40.1146 18.2323H42.1413ZM43.0771 13.4599C43.733 11.9671 44.6092 10.6898 45.7038 9.61756L44.2856 8.16983C42.9969 9.43223 41.9763 10.9273 41.2217 12.6447L43.0771 13.4599ZM45.7113 9.61021C46.8051 8.51634 48.1035 7.65228 49.617 7.01976L48.8356 5.14986C47.0903 5.87922 45.5676 6.88776 44.2782 8.17718L45.7113 9.61021ZM49.6121 7.02179C51.1377 6.3936 52.7692 6.0767 54.5158 6.0767V4.05009C52.5172 4.05009 50.6223 4.41413 48.8405 5.14783L49.6121 7.02179ZM54.5158 6.0767C56.3695 6.0767 58.1396 6.44879 59.8349 7.1947L60.6511 5.33971C58.6984 4.48054 56.6504 4.05009 54.5158 4.05009V6.0767ZM59.8498 7.20111C61.5718 7.92617 62.9604 8.91054 64.0403 10.1446L65.5654 8.81009C64.262 7.32041 62.6107 6.16468 60.6362 5.33331L59.8498 7.20111ZM64.0763 8.77101L61.5228 11.3975L62.9759 12.8102L65.5294 10.1837L64.0763 8.77101ZM63.014 11.4389C61.9438 10.2082 60.6562 9.25632 59.1604 8.58855L58.3343 10.4391C59.5622 10.9873 60.6093 11.7621 61.4847 12.7688L63.014 11.4389ZM59.1604 8.58855C57.6715 7.92386 56.1205 7.58856 54.5158 7.58856V9.61517C55.8294 9.61517 57.0994 9.88785 58.3343 10.4391L59.1604 8.58855ZM54.5158 7.58856C53.0522 7.58856 51.6665 7.85531 50.3687 8.39608L51.1482 10.2668C52.185 9.8348 53.3041 9.61517 54.5158 9.61517V7.58856ZM50.3687 8.39609C49.0794 8.9333 47.9543 9.69056 47.0041 10.6679L48.4572 12.0806C49.2093 11.307 50.1028 10.7024 51.1482 10.2668L50.3687 8.39609ZM47.0038 10.6682C46.0791 11.6202 45.3539 12.7539 44.8226 14.0556L46.699 14.8214C47.1404 13.7398 47.7285 12.8307 48.4575 12.0803L47.0038 10.6682ZM44.8254 14.0488C44.2837 15.3488 44.0179 16.7471 44.0179 18.2323H46.0445C46.0445 16.9938 46.2651 15.8628 46.6962 14.8282L44.8254 14.0488ZM44.0179 18.2323C44.0179 19.7178 44.2838 21.1254 44.8226 22.4456L46.699 21.6797C46.265 20.6166 46.0445 19.4706 46.0445 18.2323H44.0179ZM44.8254 22.4524C45.3601 23.7356 46.1012 24.8575 47.0506 25.8069L48.4837 24.3739C47.7308 23.621 47.1343 22.7243 46.6962 21.6729L44.8254 22.4524ZM47.0506 25.8069C47.9963 26.7526 49.1125 27.5032 50.3887 28.0616L51.2011 26.2049C50.1426 25.7418 49.2404 25.1306 48.4837 24.3739L47.0506 25.8069ZM50.412 28.0714C51.7322 28.6102 53.1397 28.8761 54.6252 28.8761V26.8495C53.3869 26.8495 52.2409 26.629 51.1778 26.1951L50.412 28.0714ZM94.2324 23.4124L93.3024 23.0098L93.2995 23.0166L94.2324 23.4124ZM91.4235 27.6074L92.1326 28.3314L92.14 28.324L91.4235 27.6074ZM87.1919 30.3799L87.5826 31.3148L87.1919 30.3799ZM76.7589 30.3799L77.1496 29.4449L76.7589 30.3799ZM72.5273 27.6074L71.8035 28.3165L71.8108 28.324L71.8182 28.3313L72.5273 27.6074ZM69.7184 23.4124L68.7835 23.8031L68.787 23.8116L68.7907 23.82L69.7184 23.4124ZM69.7184 13.0888L68.7885 12.6863L68.7856 12.693L69.7184 13.0888ZM72.5273 8.8937L73.2438 9.61021L72.5273 8.8937ZM76.7589 6.08481L77.1496 7.01976L76.7589 6.08481ZM87.1919 6.08481L87.5826 5.14986L87.1919 6.08481ZM91.4235 8.8937L90.7069 9.61025L90.7144 9.61756L91.4235 8.8937ZM94.2324 13.0888L93.2974 13.4795L93.301 13.488L93.3047 13.4964L94.2324 13.0888ZM90.6574 14.4385L89.7192 14.8214L89.7221 14.8282L90.6574 14.4385ZM88.6511 11.3743L87.9144 12.07L87.9243 12.0806L87.9345 12.0908L88.6511 11.3743ZM85.6598 9.33145L85.263 10.2639L85.2701 10.2668L85.6598 9.33145ZM78.291 9.33145L77.8942 8.39905V8.39905L78.291 9.33145ZM75.2997 11.3743L74.5732 10.6679L74.5729 10.6682L75.2997 11.3743ZM73.3299 14.4385L74.2653 14.8283L74.268 14.8214L73.3299 14.4385ZM73.3299 22.0626L72.3917 22.4456L72.3945 22.4524L73.3299 22.0626ZM75.2997 25.0904L74.5729 25.7965L74.578 25.8017L74.5832 25.8069L75.2997 25.0904ZM78.291 27.1332L77.8776 28.0584L77.8859 28.0621L77.8942 28.0656L78.291 27.1332ZM85.6598 27.1332L86.0566 28.0657L86.0659 28.0616L85.6598 27.1332ZM88.6511 25.0904L87.9345 24.3739L87.9294 24.3791L87.9242 24.3843L88.6511 25.0904ZM90.6574 22.0626L91.5928 22.4524L91.5956 22.4456L90.6574 22.0626ZM94.2769 18.2323C94.2769 19.9217 93.9512 21.511 93.3024 23.0098L95.1623 23.8149C95.9241 22.0549 96.3036 20.1909 96.3036 18.2323H94.2769ZM93.2995 23.0166C92.6676 24.5061 91.8034 25.7945 90.707 26.8909L92.14 28.324C93.4269 27.0371 94.4352 25.5288 95.1652 23.8081L93.2995 23.0166ZM90.7144 26.8836C89.6198 27.9558 88.3191 28.8106 86.8012 29.4449L87.5826 31.3148C89.3235 30.5873 90.8438 29.5937 92.1326 28.3313L90.7144 26.8836ZM86.8012 29.4449C85.3013 30.0717 83.6959 30.388 81.9754 30.388V32.4146C83.9515 32.4146 85.8237 32.0499 87.5826 31.3148L86.8012 29.4449ZM81.9754 30.388C80.2549 30.388 78.6495 30.0717 77.1496 29.4449L76.3682 31.3148C78.1271 32.0499 79.9994 32.4146 81.9754 32.4146V30.388ZM77.1496 29.4449C75.6317 28.8106 74.331 27.9558 73.2364 26.8836L71.8182 28.3313C73.107 29.5937 74.6273 30.5873 76.3682 31.3148L77.1496 29.4449ZM73.2512 26.8984C72.1738 25.7985 71.3047 24.5036 70.6461 23.0047L68.7907 23.82C69.5427 25.5313 70.5462 27.0331 71.8035 28.3165L73.2512 26.8984ZM70.6534 23.0216C70.0259 21.5201 69.7103 19.9266 69.7103 18.2323H67.6837C67.6837 20.1859 68.0491 22.0458 68.7835 23.8031L70.6534 23.0216ZM69.7103 18.2323C69.7103 16.538 70.0259 14.9587 70.6513 13.4845L68.7856 12.693C68.0491 14.4291 67.6837 16.2788 67.6837 18.2323H69.7103ZM70.6484 13.4913C71.3068 11.9702 72.1734 10.6806 73.2438 9.61021L71.8108 8.17718C70.5466 9.44142 69.5406 10.9486 68.7885 12.6863L70.6484 13.4913ZM73.2438 9.61021C74.3377 8.51634 75.6361 7.65228 77.1496 7.01976L76.3682 5.14986C74.6229 5.87922 73.1002 6.88776 71.8108 8.17718L73.2438 9.61021ZM77.1496 7.01976C78.6495 6.39294 80.2549 6.0767 81.9754 6.0767V4.05009C79.9994 4.05009 78.1271 4.4148 76.3682 5.14986L77.1496 7.01976ZM81.9754 6.0767C83.6959 6.0767 85.3013 6.39294 86.8012 7.01976L87.5826 5.14986C85.8237 4.4148 83.9515 4.05009 81.9754 4.05009V6.0767ZM86.8012 7.01976C88.3147 7.65228 89.6131 8.51634 90.707 9.61021L92.14 8.17718C90.8506 6.88776 89.3279 5.87922 87.5826 5.14986L86.8012 7.01976ZM90.7144 9.61756C91.8036 10.6846 92.6656 11.9677 93.2974 13.4795L95.1673 12.6981C94.4372 10.9511 93.4266 9.43748 92.1326 8.16983L90.7144 9.61756ZM93.3047 13.4964C93.9512 14.9678 94.2769 16.5429 94.2769 18.2323H96.3036C96.3036 16.2738 95.9241 14.4199 95.1601 12.6812L93.3047 13.4964ZM92.4003 18.2323C92.4003 16.7471 92.1345 15.3488 91.5928 14.0488L89.7221 14.8282C90.1531 15.8628 90.3737 16.9938 90.3737 18.2323H92.4003ZM91.5956 14.0556C91.0618 12.7479 90.3206 11.6107 89.3676 10.6578L87.9345 12.0908C88.6839 12.8402 89.2802 13.7459 89.7192 14.8214L91.5956 14.0556ZM89.3877 10.6785C88.4585 9.69454 87.3413 8.93433 86.0495 8.39609L85.2701 10.2668C86.3129 10.7013 87.19 11.303 87.9144 12.07L89.3877 10.6785ZM86.0565 8.39905C84.781 7.85625 83.4171 7.58856 81.9754 7.58856V9.61517C83.1602 9.61517 84.2526 9.83387 85.263 10.2638L86.0565 8.39905ZM81.9754 7.58856C80.5337 7.58856 79.1698 7.85625 77.8942 8.39905L78.6878 10.2638C79.6982 9.83387 80.7906 9.61517 81.9754 9.61517V7.58856ZM77.8942 8.39905C76.6296 8.9372 75.5198 9.69422 74.5732 10.6679L76.0263 12.0806C76.782 11.3033 77.6664 10.6985 78.6878 10.2638L77.8942 8.39905ZM74.5729 10.6682C73.6481 11.6202 72.923 12.7539 72.3917 14.0556L74.268 14.8214C74.7095 13.7398 75.2976 12.8307 76.0266 12.0803L74.5729 10.6682ZM72.3945 14.0488C71.8528 15.3488 71.587 16.7471 71.587 18.2323H73.6136C73.6136 16.9938 73.8341 15.8628 74.2652 14.8282L72.3945 14.0488ZM71.587 18.2323C71.587 19.7178 71.8529 21.1254 72.3917 22.4456L74.268 21.6797C73.8341 20.6166 73.6136 19.4706 73.6136 18.2323H71.587ZM72.3945 22.4524C72.9267 23.7295 73.6516 24.848 74.5729 25.7965L76.0266 24.3843C75.2942 23.6304 74.7059 22.7304 74.2652 21.6729L72.3945 22.4524ZM74.5832 25.8069C75.5253 26.749 76.6263 27.4993 77.8776 28.0584L78.7044 26.2081C77.6697 25.7458 76.7765 25.1341 76.0163 24.3739L74.5832 25.8069ZM77.8942 28.0656C79.1698 28.6084 80.5337 28.8761 81.9754 28.8761V26.8495C80.7906 26.8495 79.6982 26.6308 78.6878 26.2008L77.8942 28.0656ZM81.9754 28.8761C83.4171 28.8761 84.781 28.6084 86.0565 28.0656L85.263 26.2008C84.2526 26.6308 83.1602 26.8495 81.9754 26.8495V28.8761ZM86.0659 28.0616C87.3446 27.5022 88.453 26.7486 89.3779 25.7965L87.9242 24.3843C87.1954 25.1346 86.3096 25.7429 85.2536 26.2049L86.0659 28.0616ZM89.3676 25.8069C90.317 24.8575 91.0581 23.7356 91.5928 22.4524L89.7221 21.6729C89.284 22.7243 88.6874 23.621 87.9345 24.3739L89.3676 25.8069ZM91.5956 22.4456C92.1344 21.1254 92.4003 19.7178 92.4003 18.2323H90.3737C90.3737 19.4706 90.1532 20.6166 89.7192 21.6797L91.5956 22.4456ZM101.386 31H100.373V32.0133H101.386V31ZM101.386 5.46467V4.45136H100.373V5.46467H101.386ZM115.722 6.4496L115.344 7.38946L115.352 7.39285L115.36 7.39608L115.722 6.4496ZM119.99 9.11257L119.289 9.84386L119.296 9.85116L119.304 9.8583L119.99 9.11257ZM122.836 13.1617L123.766 12.7609L122.836 13.1617ZM122.836 23.3394L123.764 23.7456L122.836 23.3394ZM120.027 27.3886L120.72 28.1274L120.728 28.1199L120.027 27.3886ZM115.759 30.0515L116.121 30.9981L116.133 30.9933L115.759 30.0515ZM105.216 8.8937V7.88039H104.203V8.8937H105.216ZM105.216 27.571H104.203V28.5843H105.216V27.571ZM114.19 26.8779L114.563 27.82L114.572 27.8167L114.58 27.8132L114.19 26.8779ZM117.181 24.908L116.465 24.1915L117.181 24.908ZM119.188 21.9532L120.117 22.3572L120.12 22.35L119.188 21.9532ZM119.188 14.5844L118.252 14.9742L118.255 14.9812L119.188 14.5844ZM117.181 11.5931L116.455 12.2992L116.465 12.3097L116.475 12.32L117.181 11.5931ZM114.19 9.62328L113.8 10.5586L113.809 10.5621L113.817 10.5655L114.19 9.62328ZM102.399 31V5.46467H100.373V31H102.399ZM101.386 6.47797H110.396V4.45136H101.386V6.47797ZM110.396 6.47797C112.2 6.47797 113.845 6.78571 115.344 7.38946L116.101 5.50974C114.34 4.80024 112.435 4.45136 110.396 4.45136V6.47797ZM115.36 7.39608C116.897 7.98358 118.202 8.80115 119.289 9.84386L120.692 8.38129C119.396 7.13798 117.855 6.18023 116.084 5.50312L115.36 7.39608ZM119.304 9.8583C120.411 10.8765 121.278 12.1072 121.905 13.5626L123.766 12.7609C123.031 11.0548 122.002 9.58604 120.676 8.36685L119.304 9.8583ZM121.905 13.5626C122.528 15.0093 122.844 16.5744 122.844 18.2688H124.87C124.87 16.3154 124.505 14.4757 123.766 12.7609L121.905 13.5626ZM122.844 18.2688C122.844 19.9634 122.528 21.5141 121.907 22.9332L123.764 23.7456C124.505 22.0518 124.87 20.2221 124.87 18.2688H122.844ZM121.907 22.9332C121.278 24.371 120.418 25.6093 119.325 26.6573L120.728 28.1199C122.019 26.8818 123.031 25.4206 123.764 23.7456L121.907 22.9332ZM119.333 26.6498C118.242 27.6739 116.931 28.4959 115.385 29.1098L116.133 30.9933C117.894 30.2939 119.428 29.3406 120.72 28.1273L119.333 26.6498ZM115.397 29.1051C113.868 29.6896 112.204 29.9867 110.396 29.9867V32.0133C112.431 32.0133 114.342 31.6781 116.121 30.998L115.397 29.1051ZM110.396 29.9867H101.386V32.0133H110.396V29.9867ZM110.469 7.88039H105.216V9.90701H110.469V7.88039ZM104.203 8.8937V27.571H106.23V8.8937H104.203ZM105.216 28.5843H110.469V26.5577H105.216V28.5843ZM110.469 28.5843C111.904 28.5843 113.272 28.3313 114.563 27.82L113.817 25.9357C112.774 26.3486 111.661 26.5577 110.469 26.5577V28.5843ZM114.58 27.8132C115.859 27.2801 116.97 26.5524 117.898 25.6245L116.465 24.1915C115.739 24.9174 114.856 25.5028 113.8 25.9425L114.58 27.8132ZM117.898 25.6245C118.84 24.6822 119.581 23.5909 120.117 22.3572L118.258 21.5492C117.822 22.5529 117.225 23.4314 116.465 24.1915L117.898 25.6245ZM120.12 22.35C120.663 21.0744 120.931 19.7105 120.931 18.2688H118.904C118.904 19.4536 118.685 20.546 118.255 21.5564L120.12 22.35ZM120.931 18.2688C120.931 16.8271 120.663 15.4632 120.12 14.1877L118.255 14.9812C118.685 15.9916 118.904 17.084 118.904 18.2688H120.931ZM120.123 14.1947C119.587 12.9091 118.843 11.795 117.887 10.8663L116.475 12.32C117.222 13.045 117.815 13.9251 118.252 14.9742L120.123 14.1947ZM117.908 10.8871C116.976 9.92714 115.856 9.19283 114.563 8.6811L113.817 10.5655C114.859 10.9779 115.733 11.5568 116.455 12.2992L117.908 10.8871ZM114.58 8.68792C113.284 8.1481 111.911 7.88039 110.469 7.88039V9.90701C111.654 9.90701 112.761 10.1257 113.8 10.5586L114.58 8.68792ZM129.953 31H128.939V32.0133H129.953V31ZM129.953 5.46467V4.45136H128.939V5.46467H129.953ZM148.776 5.46467H149.789V4.45136H148.776V5.46467ZM148.776 8.82074V9.83405H149.789V8.82074H148.776ZM133.783 8.82074V7.80743H132.77V8.82074H133.783ZM133.783 16.4813H132.77V17.4946H133.783V16.4813ZM143.632 16.4813H144.645V15.468H143.632V16.4813ZM143.632 19.7645V20.7778H144.645V19.7645H143.632ZM133.783 19.7645V18.7511H132.77V19.7645H133.783ZM133.783 27.6439H132.77V28.6572H133.783V27.6439ZM148.922 27.6439H149.935V26.6306H148.922V27.6439ZM148.922 31V32.0133H149.935V31H148.922ZM130.966 31V5.46467H128.939V31H130.966ZM129.953 6.47797H148.776V4.45136H129.953V6.47797ZM147.762 5.46467V8.82074H149.789V5.46467H147.762ZM148.776 7.80743H133.783V9.83405H148.776V7.80743ZM132.77 8.82074V16.4813H134.796V8.82074H132.77ZM133.783 17.4946H143.632V15.468H133.783V17.4946ZM142.619 16.4813V19.7645H144.645V16.4813H142.619ZM143.632 18.7511H133.783V20.7778H143.632V18.7511ZM132.77 19.7645V27.6439H134.796V19.7645H132.77ZM133.783 28.6572H148.922V26.6306H133.783V28.6572ZM147.908 27.6439V31H149.935V27.6439H147.908ZM148.922 29.9867H129.953V32.0133H148.922V29.9867ZM156.746 8.67482L157.38 7.88427L156.606 7.2642L155.969 8.02366L156.746 8.67482ZM168.711 18.2688L169.344 19.0603L170.332 18.27L169.345 17.4783L168.711 18.2688ZM156.709 27.8628L155.931 28.5115L156.567 29.2743L157.342 28.6543L156.709 27.8628ZM154.885 25.6741L154.264 24.8739L153.436 25.5172L154.107 26.3228L154.885 25.6741ZM164.37 18.3053L164.992 19.1055L166.024 18.3038L164.99 17.504L164.37 18.3053ZM154.849 10.9365L154.073 10.2854L153.395 11.0928L154.229 11.7379L154.849 10.9365ZM156.112 9.46538L168.077 19.0594L169.345 17.4783L157.38 7.88427L156.112 9.46538ZM168.078 17.4773L156.077 27.0713L157.342 28.6543L169.344 19.0603L168.078 17.4773ZM157.488 27.2141L155.664 25.0254L154.107 26.3228L155.931 28.5115L157.488 27.2141ZM155.507 26.4742L164.992 19.1055L163.748 17.5051L154.264 24.8739L155.507 26.4742ZM164.99 17.504L155.469 10.1352L154.229 11.7379L163.75 19.1066L164.99 17.504ZM155.625 11.5877L157.522 9.32598L155.969 8.02366L154.073 10.2854L155.625 11.5877Z" fill="white"></path>
</svg>
