<svg width="171" height="36" fill="none" xmlns="http://www.w3.org/2000/svg"><path d="M15.502 27.9 3.537 18.304 15.54 8.711l1.824 2.189-9.485 7.369 9.521 7.369-1.897 2.261ZM19.45 38.55 34.844 5.465h3.684L23.134 38.55H19.45Zm35.175-10.688c1.46 0 2.858-.292 4.195-.876a9.55 9.55 0 0 0 3.393-2.553l2.517 2.553c-1.24 1.362-2.773 2.444-4.597 3.247a14.01 14.01 0 0 1-5.617 1.167c-1.873 0-3.636-.34-5.29-1.021-1.63-.681-3.04-1.605-4.231-2.773a13.614 13.614 0 0 1-2.846-4.195 13.297 13.297 0 0 1-1.021-5.18c0-1.848.34-3.575 1.021-5.18.706-1.605 1.654-2.991 2.846-4.158 1.191-1.192 2.602-2.128 4.231-2.81 1.654-.68 3.417-1.02 5.29-1.02 1.994 0 3.903.4 5.727 1.203 1.848.778 3.368 1.848 4.56 3.21l-2.554 2.627a9.971 9.971 0 0 0-3.502-2.59 10.274 10.274 0 0 0-4.231-.912 9.67 9.67 0 0 0-3.758.73 8.997 8.997 0 0 0-3.027 2.042c-.827.851-1.484 1.873-1.97 3.064-.487 1.168-.73 2.432-.73 3.794s.243 2.639.73 3.83a9.275 9.275 0 0 0 2.006 3.028 9.771 9.771 0 0 0 3.028 2.043c1.192.487 2.468.73 3.83.73Zm40.665-9.63c0 1.823-.352 3.55-1.058 5.18a13.107 13.107 0 0 1-2.808 4.194c-1.192 1.168-2.603 2.092-4.232 2.773-1.63.68-3.368 1.021-5.217 1.021-1.848 0-3.587-.34-5.216-1.021-1.63-.681-3.04-1.605-4.232-2.773-1.167-1.191-2.103-2.59-2.809-4.195a13.3 13.3 0 0 1-1.021-5.18c0-1.824.34-3.538 1.021-5.143.706-1.63 1.642-3.028 2.81-4.195 1.191-1.192 2.601-2.128 4.23-2.81 1.63-.68 3.37-1.02 5.217-1.02 1.849 0 3.588.34 5.217 1.02 1.63.682 3.04 1.618 4.232 2.81 1.191 1.167 2.127 2.565 2.808 4.195.706 1.605 1.058 3.32 1.058 5.143Zm-3.903 0c0-1.363-.243-2.627-.73-3.795-.486-1.191-1.155-2.213-2.006-3.064a8.616 8.616 0 0 0-2.991-2.043 9.31 9.31 0 0 0-3.685-.73 9.31 9.31 0 0 0-3.684.73 9.092 9.092 0 0 0-2.991 2.043c-.827.851-1.484 1.873-1.97 3.064-.486 1.168-.73 2.432-.73 3.794s.244 2.639.73 3.83a9.584 9.584 0 0 0 1.97 3.028 9.894 9.894 0 0 0 2.991 2.043 9.31 9.31 0 0 0 3.684.73 9.31 9.31 0 0 0 3.685-.73c1.167-.51 2.164-1.191 2.991-2.043a9.275 9.275 0 0 0 2.006-3.027c.487-1.192.73-2.469.73-3.83ZM101.386 31V5.465h9.01c1.922 0 3.697.328 5.326.985 1.654.632 3.077 1.52 4.268 2.663 1.216 1.118 2.165 2.468 2.846 4.049.681 1.58 1.021 3.283 1.021 5.107 0 1.824-.34 3.514-1.021 5.07a12.488 12.488 0 0 1-2.809 4.05c-1.192 1.118-2.615 2.006-4.268 2.663-1.654.632-3.441.948-5.363.948h-9.01Zm9.083-22.106h-5.253V27.57h5.253c1.314 0 2.554-.231 3.721-.693 1.167-.486 2.165-1.143 2.991-1.97a9.489 9.489 0 0 0 2.007-2.955 9.317 9.317 0 0 0 .729-3.684 9.317 9.317 0 0 0-.729-3.685c-.487-1.167-1.155-2.164-2.007-2.99-.826-.852-1.824-1.509-2.991-1.97a9.573 9.573 0 0 0-3.721-.73ZM129.953 31V5.465h18.823V8.82h-14.993v7.66h9.849v3.284h-9.849v7.879h15.139V31h-18.969Zm26.793-22.325 11.965 9.594-12.002 9.594-1.824-2.189 9.485-7.369-9.521-7.368 1.897-2.262Z" fill="#FAFAFA"/><path d="m15.502 27.9-.633.79.773.62.637-.76-.777-.65ZM3.537 18.304l-.632-.791-.989.79.987.792.634-.79ZM15.54 8.711l.778-.648-.635-.763-.776.62.633.791Zm1.824 2.189.622.8.828-.643-.672-.806-.778.649Zm-9.485 7.369-.621-.8-1.032.801 1.033.8.62-.801Zm9.521 7.369.777.65.677-.807-.833-.645-.62.802Zm-1.263 1.47L4.171 17.516l-1.268 1.58L14.87 28.69l1.267-1.581ZM4.17 19.098l12.002-9.594-1.266-1.583-12.001 9.594 1.265 1.583ZM14.76 9.36l1.824 2.189 1.557-1.298-1.824-2.188-1.556 1.297Zm1.981.74-9.484 7.369 1.243 1.6 9.485-7.369-1.244-1.6Zm-9.483 8.97 9.521 7.369 1.24-1.603-9.52-7.368-1.24 1.602Zm9.365 5.916-1.897 2.262 1.553 1.302 1.897-2.261-1.553-1.303Zm2.827 13.565-.92-.427-.67 1.44h1.59v-1.013ZM34.844 5.465V4.45h-.646l-.273.586.919.428Zm3.684 0 .919.427.67-1.44h-1.589v1.013ZM23.134 38.55v1.014h.646l.273-.586-.919-.428Zm-2.766.428L35.763 5.892l-1.838-.855-15.394 33.087 1.837.855ZM34.844 6.478h3.684V4.451h-3.684v2.027Zm2.765-1.44L22.215 38.123l1.838.855L39.447 5.892l-1.838-.855Zm-14.475 32.5H19.45v2.027h3.684v-2.027Zm35.686-10.55.406.928.007-.003.007-.003-.42-.923Zm3.393-2.554.721-.712-.779-.79-.716.848.774.654Zm2.517 2.553.75.683.646-.71-.675-.684-.721.711Zm-4.597 3.247.403.93.006-.003-.409-.927Zm-10.907.146-.39.935.005.002.385-.937Zm-4.231-2.773-.717.717.008.007.709-.724Zm-2.846-4.195-.935.391.004.009.004.008.927-.408Zm0-10.36-.927-.407-.005.012.932.395Zm2.846-4.158.709.724.007-.008-.716-.716Zm4.231-2.81-.386-.936-.004.002.39.935Zm11.017.183-.408.928.007.003.008.003.393-.934Zm4.56 3.21.726.707.652-.67-.616-.704-.762.667Zm-2.554 2.627-.764.665.723.831.768-.79-.727-.706Zm-3.502-2.59.413-.925-.413.925Zm-7.989-.183-.39-.935.39.935Zm-3.027 2.043-.727-.706.727.706Zm-1.97 3.064.935.39.003-.007-.938-.383Zm0 7.625-.938.383.002.006.936-.39Zm2.006 3.027-.716.717.716-.717Zm3.028 2.043-.406.929.011.005.012.004.383-.938Zm3.83 1.743c1.599 0 3.135-.32 4.6-.96l-.81-1.857c-1.21.527-2.47.79-3.79.79v2.027Zm4.615-.966a10.563 10.563 0 0 0 3.747-2.823l-1.548-1.307a8.537 8.537 0 0 1-3.038 2.285l.839 1.845Zm2.251-2.765 2.517 2.554 1.444-1.423-2.517-2.554-1.444 1.423Zm2.49 1.16c-1.138 1.249-2.55 2.251-4.256 3.001l.817 1.855c1.942-.854 3.594-2.017 4.937-3.491l-1.498-1.365Zm-4.25 2.999a12.998 12.998 0 0 1-5.215 1.084v2.027c2.085 0 4.094-.418 6.02-1.251l-.805-1.86Zm-5.215 1.084c-1.747 0-3.378-.317-4.904-.945l-.772 1.874c1.782.733 3.677 1.098 5.676 1.098v-2.027Zm-4.899-.943c-1.518-.634-2.819-1.49-3.913-2.561l-1.418 1.447c1.288 1.263 2.809 2.256 4.55 2.984l.781-1.87Zm-3.906-2.554a12.6 12.6 0 0 1-2.634-3.886l-1.855.815a14.628 14.628 0 0 0 3.056 4.504l1.433-1.433Zm-2.627-3.87a12.285 12.285 0 0 1-.943-4.789h-2.026c0 1.954.365 3.814 1.1 5.571l1.87-.781Zm-.943-4.789c0-1.72.317-3.311.941-4.784l-1.865-.791c-.738 1.737-1.102 3.6-1.102 5.575h2.026Zm.936-4.772c.656-1.493 1.532-2.77 2.627-3.842L44.286 8.17c-1.29 1.262-2.31 2.757-3.064 4.475l1.855.815Zm2.634-3.85c1.094-1.094 2.392-1.958 3.906-2.59l-.781-1.87c-1.746.73-3.268 1.738-4.558 3.027l1.433 1.433Zm3.901-2.588c1.526-.628 3.157-.945 4.904-.945V4.05c-1.999 0-3.894.364-5.675 1.098l.771 1.874Zm4.904-.945c1.854 0 3.624.372 5.319 1.118l.816-1.855c-1.953-.86-4-1.29-6.135-1.29v2.027ZM59.85 7.2c1.722.725 3.11 1.71 4.19 2.944l1.525-1.335c-1.303-1.49-2.954-2.645-4.929-3.477l-.786 1.868Zm4.226 1.57-2.553 2.627 1.453 1.412 2.553-2.626-1.453-1.413Zm-1.062 2.668a10.985 10.985 0 0 0-3.854-2.85l-.826 1.85a8.959 8.959 0 0 1 3.15 2.33l1.53-1.33Zm-3.854-2.85c-1.488-.665-3.04-1-4.644-1v2.026c1.313 0 2.583.273 3.818.824l.826-1.85Zm-4.644-1c-1.464 0-2.85.266-4.147.807l.78 1.87a8.657 8.657 0 0 1 3.367-.65V7.588Zm-4.147.807a10.011 10.011 0 0 0-3.365 2.272l1.453 1.413a7.985 7.985 0 0 1 2.691-1.814l-.78-1.87Zm-3.365 2.272c-.925.952-1.65 2.086-2.181 3.388l1.876.765c.441-1.081 1.03-1.99 1.759-2.74l-1.454-1.413Zm-2.179 3.38c-.541 1.3-.807 2.7-.807 4.184h2.026c0-1.238.221-2.37.652-3.404l-1.87-.78Zm-.807 4.184c0 1.486.266 2.893.805 4.214l1.876-.766a9.023 9.023 0 0 1-.654-3.448h-2.027Zm.807 4.22a10.288 10.288 0 0 0 2.226 3.355l1.433-1.433a8.262 8.262 0 0 1-1.788-2.701l-1.87.78Zm2.226 3.355a10.784 10.784 0 0 0 3.338 2.255l.812-1.857a8.758 8.758 0 0 1-2.717-1.831l-1.433 1.433Zm3.361 2.264a11.05 11.05 0 0 0 4.213.805V26.85a9.025 9.025 0 0 1-3.447-.654l-.766 1.876Zm43.82-4.659-.93-.402-.003.007.933.395Zm-2.808 4.195.709.724.007-.007-.716-.717Zm-4.232 2.773.39.935-.39-.935Zm-10.433 0 .39-.935-.39.935Zm-4.232-2.773-.724.71.008.007.007.007.71-.724Zm-2.809-4.195-.934.391.003.009.004.008.927-.408Zm0-10.323-.93-.403-.002.007.932.396Zm2.81-4.195.716.716-.717-.716Zm4.23-2.81.392.936-.391-.935Zm10.434 0 .39-.934-.39.935Zm4.232 2.81-.717.716.007.008.71-.724Zm2.808 4.195-.935.39.004.009.004.008.927-.407Zm-3.575 1.35-.938.382.003.007.935-.39Zm-2.006-3.065-.737.696.01.01.01.01.717-.716ZM85.66 9.331l-.397.933.007.003.39-.936Zm-7.369 0-.397-.932.397.932ZM75.3 11.374l-.727-.706.727.706Zm-1.97 3.064.935.39.003-.007-.938-.383Zm0 7.625-.938.383.002.006.936-.39Zm1.97 3.027-.727.707.005.005.005.005.717-.717Zm2.991 2.043-.413.925.008.004.008.004.397-.933Zm7.369 0 .397.933.009-.004-.406-.929Zm2.991-2.043-.716-.716-.006.005-.005.005.727.706Zm2.006-3.027.936.39.003-.007-.939-.383Zm3.62-3.83c0 1.689-.326 3.278-.975 4.777l1.86.805a13.914 13.914 0 0 0 1.142-5.583h-2.027Zm-.978 4.784a12.092 12.092 0 0 1-2.592 3.874l1.433 1.433a14.118 14.118 0 0 0 3.025-4.516l-1.866-.791Zm-2.585 3.867c-1.094 1.072-2.395 1.927-3.913 2.56l.782 1.87c1.74-.727 3.26-1.72 4.55-2.983l-1.419-1.447Zm-3.913 2.56c-1.5.628-3.105.944-4.826.944v2.027c1.977 0 3.849-.365 5.608-1.1l-.782-1.87Zm-4.826.944c-1.72 0-3.325-.316-4.825-.943l-.782 1.87c1.76.735 3.631 1.1 5.607 1.1v-2.027Zm-4.825-.943c-1.518-.634-2.819-1.49-3.914-2.561l-1.418 1.447c1.289 1.263 2.81 2.256 4.55 2.984l.782-1.87Zm-3.899-2.547c-1.077-1.1-1.946-2.394-2.605-3.893l-1.855.815c.752 1.711 1.755 3.213 3.013 4.497l1.447-1.419Zm-2.598-3.876a12.285 12.285 0 0 1-.943-4.79h-2.026c0 1.954.365 3.814 1.1 5.571l1.87-.781Zm-.943-4.79c0-1.694.316-3.273.941-4.747l-1.865-.792c-.737 1.736-1.102 3.586-1.102 5.54h2.026Zm.938-4.74c.659-1.522 1.525-2.811 2.596-3.882L71.81 8.177c-1.264 1.264-2.27 2.772-3.023 4.51l1.86.804Zm2.596-3.882c1.094-1.094 2.392-1.958 3.906-2.59l-.782-1.87c-1.745.73-3.268 1.738-4.557 3.027l1.433 1.433Zm3.906-2.59c1.5-.627 3.105-.943 4.825-.943V4.05c-1.976 0-3.848.365-5.607 1.1l.782 1.87Zm4.825-.943c1.72 0 3.326.316 4.826.943l.782-1.87c-1.76-.735-3.632-1.1-5.608-1.1v2.027Zm4.826.943c1.514.632 2.812 1.496 3.906 2.59l1.433-1.433c-1.29-1.29-2.812-2.298-4.557-3.027L86.8 7.02Zm3.913 2.598c1.09 1.067 1.952 2.35 2.583 3.861l1.87-.78c-.73-1.748-1.74-3.262-3.034-4.53l-1.419 1.449Zm2.59 3.878c.647 1.472.973 3.047.973 4.736h2.027c0-1.958-.38-3.812-1.144-5.55l-1.855.814Zm-.904 4.736c0-1.485-.266-2.883-.807-4.183l-1.87.78c.43 1.034.65 2.165.65 3.403H92.4Zm-.804-4.176c-.534-1.308-1.275-2.445-2.228-3.398l-1.433 1.433c.749.75 1.345 1.655 1.784 2.73l1.877-.765Zm-2.208-3.377a9.626 9.626 0 0 0-3.339-2.283l-.779 1.87a7.602 7.602 0 0 1 2.644 1.804l1.474-1.392Zm-3.332-2.28a10.323 10.323 0 0 0-4.08-.81v2.026c1.184 0 2.277.219 3.287.649l.793-1.865Zm-4.08-.81c-1.442 0-2.806.267-4.082.81l.794 1.865a8.299 8.299 0 0 1 3.287-.649V7.59Zm-4.082.81a10.105 10.105 0 0 0-3.32 2.269l1.452 1.413a8.08 8.08 0 0 1 2.662-1.817l-.794-1.865Zm-3.321 2.27c-.925.951-1.65 2.085-2.181 3.387l1.876.765c.442-1.081 1.03-1.99 1.759-2.74l-1.454-1.413Zm-2.178 3.38c-.542 1.3-.808 2.698-.808 4.183h2.027c0-1.238.22-2.37.651-3.404l-1.87-.78Zm-.808 4.183c0 1.486.266 2.893.805 4.214l1.876-.766a9.025 9.025 0 0 1-.654-3.448h-2.027Zm.807 4.22a10.6 10.6 0 0 0 2.179 3.345l1.454-1.413a8.572 8.572 0 0 1-1.762-2.711l-1.87.78Zm2.19 3.355a10.908 10.908 0 0 0 3.294 2.251l.826-1.85a8.881 8.881 0 0 1-2.688-1.834l-1.433 1.433Zm3.31 2.259c1.276.542 2.64.81 4.081.81V26.85a8.297 8.297 0 0 1-3.287-.648l-.794 1.865Zm4.081.81c1.442 0 2.806-.268 4.082-.81l-.794-1.865a8.297 8.297 0 0 1-3.288.648v2.027Zm4.09-.814c1.28-.56 2.388-1.313 3.313-2.265l-1.454-1.413c-.729.75-1.614 1.359-2.67 1.82l.812 1.858Zm3.303-2.255c.949-.95 1.69-2.071 2.225-3.355l-1.87-.78a8.262 8.262 0 0 1-1.788 2.702l1.433 1.433Zm2.228-3.361c.538-1.32.804-2.728.804-4.214h-2.026c0 1.239-.22 2.385-.655 3.448l1.877.766Zm9.79 8.554h-1.013v1.013h1.013V31Zm0-25.535V4.45h-1.013v1.014h1.013Zm14.336.985-.378.94.008.003.008.003.362-.946Zm4.268 2.663-.701.73.007.008.008.007.686-.745Zm2.846 4.049.93-.401-.93.4Zm0 10.177.928.407-.928-.407Zm-2.809 4.05.693.738.008-.007-.701-.731Zm-4.268 2.663.362.946.012-.005-.374-.941ZM105.216 8.893V7.88h-1.013v1.014h1.013Zm0 18.677h-1.013v1.013h1.013v-1.013Zm8.974-.693.373.942.009-.003.008-.004-.39-.935Zm2.991-1.97-.716-.716.716.716Zm2.007-2.955.929.404.003-.007-.932-.397Zm0-7.369-.936.39.003.007.933-.397Zm-2.007-2.99-.726.705.01.01.01.011.706-.727Zm-2.991-1.97-.39.935.009.003.008.004.373-.943ZM102.399 31V5.465h-2.026V31h2.026Zm-1.013-24.522h9.01V4.451h-9.01v2.027Zm9.01 0c1.804 0 3.449.308 4.948.911l.757-1.88c-1.761-.709-3.666-1.058-5.705-1.058v2.027Zm4.964.918c1.537.588 2.842 1.405 3.929 2.448l1.403-1.463c-1.296-1.243-2.837-2.2-4.608-2.878l-.724 1.893Zm3.944 2.462c1.107 1.018 1.974 2.25 2.601 3.705l1.861-.802c-.735-1.706-1.764-3.175-3.09-4.394l-1.372 1.491Zm2.601 3.705c.623 1.446.939 3.011.939 4.706h2.026c0-1.954-.365-3.793-1.104-5.508l-1.861.802Zm.939 4.706c0 1.694-.316 3.245-.937 4.664l1.857.813c.741-1.694 1.106-3.524 1.106-5.477h-2.026Zm-.937 4.664a11.456 11.456 0 0 1-2.582 3.724l1.403 1.463a13.49 13.49 0 0 0 3.036-4.374l-1.857-.813Zm-2.574 3.717c-1.091 1.024-2.402 1.846-3.948 2.46l.748 1.883c1.761-.7 3.295-1.652 4.587-2.866l-1.387-1.477Zm-3.936 2.455c-1.529.585-3.193.882-5.001.882v2.026c2.035 0 3.946-.335 5.725-1.015l-.724-1.893Zm-5.001.882h-9.01v2.026h9.01v-2.026Zm.073-22.107h-5.253v2.027h5.253V7.88Zm-6.266 1.014V27.57h2.027V8.894h-2.027Zm1.013 19.69h5.253v-2.026h-5.253v2.026Zm5.253 0c1.435 0 2.803-.253 4.094-.764l-.746-1.884a9.002 9.002 0 0 1-3.348.622v2.026Zm4.111-.77c1.279-.534 2.39-1.262 3.318-2.19l-1.433-1.432c-.726.725-1.609 1.31-2.665 1.75l.78 1.871Zm3.318-2.19a10.502 10.502 0 0 0 2.219-3.267l-1.859-.808a8.47 8.47 0 0 1-1.793 2.643l1.433 1.433Zm2.222-3.274a10.32 10.32 0 0 0 .811-4.081h-2.027a8.298 8.298 0 0 1-.649 3.287l1.865.794Zm.811-4.081a10.32 10.32 0 0 0-.811-4.081l-1.865.793c.43 1.01.649 2.103.649 3.288h2.027Zm-.808-4.074c-.536-1.286-1.28-2.4-2.236-3.329l-1.412 1.454c.747.725 1.34 1.605 1.777 2.654l1.871-.78Zm-2.215-3.308c-.932-.96-2.052-1.694-3.345-2.206l-.746 1.885a7.438 7.438 0 0 1 2.638 1.733l1.453-1.412Zm-3.328-2.2a10.592 10.592 0 0 0-4.111-.807v2.027c1.185 0 2.292.219 3.331.652l.78-1.871ZM129.953 31h-1.014v1.013h1.014V31Zm0-25.535V4.45h-1.014v1.014h1.014Zm18.823 0h1.013V4.45h-1.013v1.014Zm0 3.356v1.013h1.013V8.821h-1.013Zm-14.993 0V7.807h-1.013v1.014h1.013Zm0 7.66h-1.013v1.014h1.013V16.48Zm9.849 0h1.013v-1.013h-1.013v1.013Zm0 3.284v1.013h1.013v-1.013h-1.013Zm-9.849 0V18.75h-1.013v1.014h1.013Zm0 7.879h-1.013v1.013h1.013v-1.013Zm15.139 0h1.013V26.63h-1.013v1.013Zm0 3.356v1.013h1.013V31h-1.013Zm-17.956 0V5.465h-2.027V31h2.027Zm-1.013-24.522h18.823V4.451h-18.823v2.027Zm17.809-1.013V8.82h2.027V5.465h-2.027Zm1.014 2.342h-14.993v2.027h14.993V7.807ZM132.77 8.821v7.66h2.026v-7.66h-2.026Zm1.013 8.674h9.849v-2.027h-9.849v2.027Zm8.836-1.014v3.284h2.026V16.48h-2.026Zm1.013 2.27h-9.849v2.027h9.849V18.75Zm-10.862 1.014v7.879h2.026v-7.88h-2.026Zm1.013 8.892h15.139v-2.026h-15.139v2.026Zm14.125-1.013V31h2.027v-3.356h-2.027Zm1.014 2.343h-18.969v2.026h18.969v-2.026Zm7.824-21.312.634-.79-.774-.62-.637.759.777.65Zm11.965 9.594.633.791.988-.79-.987-.792-.634.79Zm-12.002 9.594-.778.649.636.762.775-.62-.633-.791Zm-1.824-2.189-.621-.8-.828.643.671.806.778-.649Zm9.485-7.369.622.8 1.032-.801-1.034-.8-.62.801Zm-9.521-7.368-.776-.652-.678.808.834.645.62-.801Zm1.263-1.472 11.965 9.594 1.268-1.58-11.965-9.595-1.268 1.581Zm11.966 8.012-12.001 9.594 1.265 1.583 12.002-9.594-1.266-1.583Zm-10.59 9.737-1.824-2.189-1.557 1.298 1.824 2.189 1.557-1.298Zm-1.981-.74 9.485-7.369-1.244-1.6-9.484 7.369 1.243 1.6Zm9.483-8.97-9.521-7.369-1.24 1.603 9.521 7.369 1.24-1.603Zm-9.365-5.916 1.897-2.262-1.553-1.302-1.896 2.261 1.552 1.303Z" fill="#fff"/></svg>