<svg width="155" height="32" viewBox="0 0 155 32" fill="none" xmlns="http://www.w3.org/2000/svg">
<path d="M15.7913 2.09085C15.9291 1.66696 16.5287 1.66696 16.6665 2.09085L19.5688 11.0234C19.6304 11.2129 19.8071 11.3413 20.0064 11.3413H29.3986C29.8443 11.3413 30.0296 11.9116 29.669 12.1736L22.0706 17.6942C21.9093 17.8113 21.8418 18.019 21.9034 18.2086L24.8058 27.1411C24.9435 27.565 24.4584 27.9175 24.0978 27.6555L16.4993 22.1349C16.3381 22.0177 16.1197 22.0177 15.9585 22.1349L8.36001 27.6555C7.99944 27.9175 7.51428 27.565 7.65201 27.1411L10.5544 18.2086C10.616 18.019 10.5485 17.8113 10.3872 17.6942L2.78877 12.1736C2.42819 11.9116 2.6135 11.3413 3.0592 11.3413H12.4514C12.6507 11.3413 12.8274 11.2129 12.889 11.0234L15.7913 2.09085Z" fill="#373737"></path>
<path d="M46.4642 2.09085C46.6019 1.66696 47.2016 1.66696 47.3393 2.09085L50.2417 11.0234C50.3033 11.2129 50.4799 11.3413 50.6792 11.3413H60.0714C60.5171 11.3413 60.7025 11.9116 60.3419 12.1736L52.7434 17.6942C52.5822 17.8113 52.5147 18.019 52.5763 18.2086L55.4786 27.1411C55.6164 27.565 55.1312 27.9175 54.7706 27.6555L47.1722 22.1349C47.0109 22.0177 46.7926 22.0177 46.6313 22.1349L39.0329 27.6555C38.6723 27.9175 38.1871 27.565 38.3249 27.1411L41.2272 18.2086C41.2888 18.019 41.2213 17.8113 41.0601 17.6942L33.4616 12.1736C33.101 11.9116 33.2864 11.3413 33.7321 11.3413H43.1243C43.3236 11.3413 43.5002 11.2129 43.5618 11.0234L46.4642 2.09085Z" fill="#373737"></path>
<path d="M77.1365 2.09085C77.2743 1.66696 77.874 1.66696 78.0117 2.09085L80.914 11.0234C80.9756 11.2129 81.1523 11.3413 81.3516 11.3413H90.7438C91.1895 11.3413 91.3748 11.9116 91.0142 12.1736L83.4158 17.6942C83.2545 17.8113 83.1871 18.019 83.2487 18.2086L86.151 27.1411C86.2887 27.565 85.8036 27.9175 85.443 27.6555L77.8445 22.1349C77.6833 22.0177 77.4649 22.0177 77.3037 22.1349L69.7052 27.6555C69.3446 27.9175 68.8595 27.565 68.9972 27.1411L71.8996 18.2086C71.9612 18.019 71.8937 17.8113 71.7324 17.6942L64.134 12.1736C63.7734 11.9116 63.9587 11.3413 64.4044 11.3413H73.7966C73.9959 11.3413 74.1726 11.2129 74.2342 11.0234L77.1365 2.09085Z" fill="#373737"></path>
<path d="M107.809 2.09085C107.947 1.66696 108.547 1.66696 108.685 2.09085L111.587 11.0234C111.648 11.2129 111.825 11.3413 112.024 11.3413H121.417C121.862 11.3413 122.048 11.9116 121.687 12.1736L114.089 17.6942C113.927 17.8113 113.86 18.019 113.922 18.2086L116.824 27.1411C116.962 27.565 116.476 27.9175 116.116 27.6555L108.517 22.1349C108.356 22.0177 108.138 22.0177 107.977 22.1349L100.378 27.6555C100.018 27.9175 99.5323 27.565 99.6701 27.1411L102.572 18.2086C102.634 18.019 102.567 17.8113 102.405 17.6942L94.8068 12.1736C94.4463 11.9116 94.6316 11.3413 95.0773 11.3413H104.469C104.669 11.3413 104.845 11.2129 104.907 11.0234L107.809 2.09085Z" fill="#373737"></path>
<path d="M138.482 2.09085C138.619 1.66696 139.219 1.66696 139.357 2.09085L142.259 11.0234C142.321 11.2129 142.498 11.3413 142.697 11.3413H152.089C152.535 11.3413 152.72 11.9116 152.359 12.1736L144.761 17.6942C144.6 17.8113 144.532 18.019 144.594 18.2086L147.496 27.1411C147.634 27.565 147.149 27.9175 146.788 27.6555L139.19 22.1349C139.029 22.0177 138.81 22.0177 138.649 22.1349L131.05 27.6555C130.69 27.9175 130.205 27.565 130.342 27.1411L133.245 18.2086C133.306 18.019 133.239 17.8113 133.078 17.6942L125.479 12.1736C125.119 11.9116 125.304 11.3413 125.75 11.3413H135.142C135.341 11.3413 135.518 11.2129 135.579 11.0234L138.482 2.09085Z" fill="#373737"></path>
</svg>
