<svg width="533" height="533" viewBox="0 0 533 533" fill="none" xmlns="http://www.w3.org/2000/svg">
<circle cx="266.5" cy="266.5" r="266" stroke="#383838"></circle>
<mask id="mask0_4447_2458" style="mask-type:alpha" maskUnits="userSpaceOnUse" x="0" y="0" width="533" height="533">
<circle cx="266.5" cy="266.5" r="266" fill="#383838" stroke="black"></circle>
</mask>
<g mask="url('#mask0_4447_2458')">
<path d="M491.5 283.5C491.5 417.709 383.597 526.5 250.5 526.5C117.403 526.5 9.5 417.709 9.5 283.5C9.5 149.291 117.403 40.5 250.5 40.5C383.597 40.5 491.5 149.291 491.5 283.5Z" stroke="#383838"></path>
<circle cx="373.5" cy="275.5" r="177" stroke="#383838"></circle>
<path d="M543.5 228C543.5 320.483 464.503 395.5 367 395.5C269.497 395.5 190.5 320.483 190.5 228C190.5 135.517 269.497 60.5 367 60.5C464.503 60.5 543.5 135.517 543.5 228Z" stroke="#383838"></path>
<path d="M482.5 175.5C482.5 272.175 408.155 350.5 316.5 350.5C224.845 350.5 150.5 272.175 150.5 175.5C150.5 78.825 224.845 0.5 316.5 0.5C408.155 0.5 482.5 78.825 482.5 175.5Z" stroke="#383838"></path>
<path d="M437.5 381.5C437.5 462.155 375.023 527.5 298 527.5C220.977 527.5 158.5 462.155 158.5 381.5C158.5 300.845 220.977 235.5 298 235.5C375.023 235.5 437.5 300.845 437.5 381.5Z" stroke="#383838"></path>
<path d="M644.5 115C644.5 195.377 582.024 260.5 505 260.5C427.976 260.5 365.5 195.377 365.5 115C365.5 34.6226 427.976 -30.5 505 -30.5C582.024 -30.5 644.5 34.6226 644.5 115Z" stroke="#383838"></path>
<line x1="-69.7754" y1="-54.5717" x2="718.737" y2="341.801" stroke="#383838"></line>
<line x1="94.7181" y1="574.786" x2="608.045" y2="-70.3123" stroke="#383838"></line>
<path d="M273.5 190.5C273.5 227.514 244.164 257.5 208 257.5C171.836 257.5 142.5 227.514 142.5 190.5C142.5 153.486 171.836 123.5 208 123.5C244.164 123.5 273.5 153.486 273.5 190.5Z" stroke="#383838"></path>
</g>
</svg>
