<svg width="533" height="533" fill="none" xmlns="http://www.w3.org/2000/svg"><circle cx="266.5" cy="266.5" r="266" stroke="#383838"/><mask id="mask0_4447_2458" style="mask-type:alpha" maskUnits="userSpaceOnUse" x="0" y="0" width="533" height="533"><circle cx="266.5" cy="266.5" r="266" fill="#383838" stroke="#000"/></mask><g mask="url('#mask0_4447_2458')" stroke="#383838"><path d="M491.5 283.5c0 134.209-107.903 243-241 243-133.097 0-241-108.791-241-243s107.903-243 241-243c133.097 0 241 108.791 241 243Z"/><circle cx="373.5" cy="275.5" r="177"/><path d="M543.5 228c0 92.483-78.997 167.5-176.5 167.5S190.5 320.483 190.5 228 269.497 60.5 367 60.5 543.5 135.517 543.5 228Z"/><path d="M482.5 175.5c0 96.675-74.345 175-166 175s-166-78.325-166-175S224.845.5 316.5.5s166 78.325 166 175Z"/><path d="M437.5 381.5c0 80.655-62.477 146-139.5 146s-139.5-65.345-139.5-146 62.477-146 139.5-146 139.5 65.345 139.5 146ZM644.5 115c0 80.377-62.476 145.5-139.5 145.5S365.5 195.377 365.5 115 427.976-30.5 505-30.5 644.5 34.623 644.5 115ZM-69.775-54.572l788.512 396.373M94.718 574.786 608.045-70.312"/><path d="M273.5 190.5c0 37.014-29.336 67-65.5 67s-65.5-29.986-65.5-67c0-37.014 29.336-67 65.5-67s65.5 29.986 65.5 67Z"/></g></svg>