<svg width="95" height="54" fill="none" xmlns="http://www.w3.org/2000/svg"><rect x="30" width="20" height="30" rx="3.113" transform="rotate(90 30 0)" fill="#FAFAFA"/><path d="M30 10h45a5 5 0 0 1 5 5v7a5 5 0 0 1-5 5H20a5 5 0 0 0-5 5v7a5 5 0 0 0 5 5h45" stroke="#fff" stroke-dasharray="5 5"/><rect x="95" y="34" width="20" height="30" rx="3.113" transform="rotate(90 95 34)" fill="#FAFAFA"/><rect x="53.5" y="20.5" width="13" height="13" rx="3.613" transform="rotate(90 53.5 20.5)" fill="#1275D3" stroke="#fff"/><path fill-rule="evenodd" clip-rule="evenodd" d="M9.95 4.95a1 1 0 0 0 0 1.414l3.535 3.535-3.535 3.536a1 1 0 0 0 1.414 1.414l3.535-3.535 3.536 3.535a1 1 0 0 0 1.414-1.414l-3.535-3.536 3.535-3.535a1 1 0 0 0-1.414-1.414l-3.536 3.535-3.535-3.535a1 1 0 0 0-1.414 0ZM79.9 36.9a1 1 0 0 0-1 1v5h-5a1 1 0 0 0 0 2h5v5a1 1 0 0 0 2 0v-5h5a1 1 0 1 0 0-2h-5v-5a1 1 0 0 0-1-1Z" fill="#1275D3"/></svg>