<svg width="26" height="26" fill="none" xmlns="http://www.w3.org/2000/svg"><g opacity=".56" clip-path="url('#clip0_476_1218')"><path d="M19.647 14.186c-1.115 0-2.165-.476-3.11-1.249l.23-1.097.006-.04c.21-1.162.86-3.118 2.874-3.118a2.749 2.749 0 0 1 2.737 2.755 2.743 2.743 0 0 1-2.737 2.75Zm0-8.293c-2.572 0-4.56 1.679-5.374 4.447-1.234-1.87-2.172-4.11-2.717-6H8.787v7.25a2.588 2.588 0 0 1-2.579 2.596A2.588 2.588 0 0 1 3.63 11.59V4.333H.867v7.25c0 2.967 2.395 5.405 5.341 5.405 2.947 0 5.342-2.438 5.342-5.405v-1.216c.538 1.13 1.194 2.273 1.995 3.277l-1.693 8.023h2.828l1.227-5.815c1.076.694 2.31 1.13 3.727 1.13 3.032 0 5.5-2.498 5.5-5.558.006-3.046-2.455-5.531-5.487-5.531Z" fill="#373737"/></g><defs><clipPath id="clip0_476_1218"><path fill="#fff" transform="translate(.867 .867)" d="M0 0h24.267v24.267H0z"/></clipPath></defs></svg>