<svg width="26" height="26" fill="none" xmlns="http://www.w3.org/2000/svg"><g opacity=".56" clip-path="url('#clip0_476_1215')"><path d="M21.069 4.393C18.847 2.118 15.887.867 12.742.867 6.25.867.967 6.262.967 12.892c0 2.118.541 4.187 1.57 6.012l-1.67 6.23 6.242-1.674a11.545 11.545 0 0 0 5.628 1.462h.005c6.486 0 11.886-5.395 11.886-12.025 0-3.212-1.337-6.229-3.56-8.504Zm-8.327 18.503a9.615 9.615 0 0 1-4.986-1.392l-.355-.216-3.702.99.986-3.688-.233-.38a10.119 10.119 0 0 1-1.496-5.318c0-5.509 4.392-9.994 9.791-9.994 2.615 0 5.07 1.04 6.916 2.93 1.846 1.89 2.981 4.399 2.976 7.07 0 5.513-4.503 9.998-9.897 9.998Zm5.367-7.486c-.291-.151-1.74-.877-2.01-.975-.27-.103-.466-.151-.663.152-.196.303-.758.975-.933 1.18-.17.201-.345.228-.637.077-1.729-.883-2.864-1.576-4.004-3.575-.302-.531.302-.493.864-1.642.096-.2.048-.373-.026-.525-.074-.152-.663-1.63-.907-2.232-.239-.585-.483-.503-.663-.514-.17-.011-.366-.011-.562-.011a1.08 1.08 0 0 0-.785.374c-.27.303-1.03 1.029-1.03 2.508 0 1.478 1.056 2.908 1.2 3.109.148.2 2.073 3.234 5.028 4.539 1.867.823 2.598.894 3.532.753.567-.087 1.74-.726 1.984-1.43s.244-1.306.17-1.43c-.07-.136-.266-.211-.558-.358Z" fill="#373737"/></g><defs><clipPath id="clip0_476_1215"><path fill="#fff" transform="translate(.867 .867)" d="M0 0h24.267v24.267H0z"/></clipPath></defs></svg>