<svg width="534" height="559" viewBox="0 0 534 559" fill="none" xmlns="http://www.w3.org/2000/svg">
<path d="M533.5 291.5C533.5 438.962 414.406 558.5 267.5 558.5C120.594 558.5 1.5 438.962 1.5 291.5C1.5 144.038 120.594 24.5 267.5 24.5C414.406 24.5 533.5 144.038 533.5 291.5Z" stroke="#383833"/>
<path d="M532.868 285.811C532.223 258.023 527.551 230.475 518.999 204.028C518.162 201.613 516.552 199.54 514.418 198.132C512.285 196.723 509.747 196.057 507.196 196.236C504.646 196.415 502.226 197.429 500.31 199.122C498.394 200.815 497.09 203.092 496.598 205.601C490.636 237.793 475.51 267.579 453.036 291.387C440.692 304.112 395.747 345.813 332.739 341.571C319.823 340.666 289.844 338.616 263.201 315.74C250.647 304.893 240.847 291.222 234.605 275.85C232.718 271.351 231.126 266.734 229.839 262.029C232.877 262.084 235.916 261.972 238.942 261.695C240.775 261.568 242.546 260.978 244.089 259.98C263.431 247.979 285.392 240.844 308.094 239.184C330.795 237.524 353.561 241.389 374.443 250.448C376.807 251.458 379.438 251.66 381.928 251.023C384.419 250.385 386.629 248.943 388.217 246.921L419.578 206.84C420.937 205.113 421.771 203.031 421.983 200.843C422.194 198.655 421.773 196.452 420.769 194.497L408.806 170.667C407.702 168.477 405.934 166.692 403.754 165.568L286.841 105.232L324.97 16.0628C325.972 13.6346 326.122 10.9389 325.396 8.41465C324.67 5.89036 323.111 3.6862 320.972 2.16109C318.833 0.635977 316.242 -0.120247 313.618 0.015562C310.995 0.151371 308.495 1.17121 306.525 2.90901L226.312 76.6846L213.157 70.346L216.351 45.5635C216.582 43.6951 216.356 41.7986 215.692 40.0369C215.028 38.2751 213.947 36.7008 212.541 35.4492C211.134 34.1976 209.445 33.3062 207.618 32.8514C205.791 32.3967 203.881 32.3923 202.052 32.8386C170.602 40.5984 140.834 54.0362 114.213 72.4906C97.437 84.3315 82.0698 98.0509 68.4103 113.382C26.4074 159.029 2.18827 218.238 0.159464 280.235C-0.66209 304.41 1.69343 328.589 7.16566 352.151C17.8372 399.495 41.3244 442.991 75.058 477.883C108.791 512.775 151.472 537.717 198.43 549.982C241.434 561.377 286.585 561.982 329.879 551.746C338.551 549.701 347.11 547.203 355.521 544.263C411.732 524.008 459.816 485.998 492.499 435.983C507.954 411.691 519.23 384.982 525.862 356.965C531.25 333.647 533.605 309.731 532.868 285.811ZM331.166 364.733C352.693 366.176 374.286 363.175 394.603 355.916C423.023 345.6 448.736 328.98 469.813 307.305C485.276 291.129 497.707 272.307 506.512 251.735C512.126 287.249 510.374 323.539 501.364 358.347C489.158 366.969 475.996 374.149 462.139 379.746C436.477 390.188 408.744 394.544 381.115 392.471C347.014 389.67 314.454 377.057 287.366 356.155C290.13 357.156 292.942 358.109 295.802 358.967C307.345 362.168 319.204 364.102 331.166 364.733ZM324.494 529.156C284.396 538.662 242.553 537.944 202.805 527.069C163.058 516.193 126.678 495.509 97.007 466.913C63.5096 434.242 40.172 392.584 29.8047 346.957C24.8476 325.354 22.7485 303.194 23.5611 281.045C25.3143 224.55 47.3024 170.563 85.5206 128.918C98.043 114.953 112.078 102.421 127.367 91.5541C145.262 79.0548 164.776 69.0499 185.371 61.8151L191.09 59.9087L189.088 75.5408C188.729 77.9867 189.164 80.4836 190.331 82.6631C191.498 84.8426 193.335 86.5895 195.57 87.646L223.357 101.038C225.456 102.037 227.805 102.388 230.105 102.049C232.405 101.71 234.552 100.694 236.273 99.1318L282.361 56.7156L261.2 105.995C260.051 108.697 259.962 111.732 260.951 114.497C261.941 117.262 263.935 119.552 266.538 120.912L389.551 184.536L396.557 198.357L375.301 225.618C352.335 217.155 327.766 213.94 303.396 216.208C279.025 218.475 255.472 226.169 234.462 238.724C229.024 238.995 223.573 238.66 218.209 237.723C217.797 237.682 217.382 237.682 216.97 237.723C208.497 236.236 200.454 232.903 193.412 227.962C186.369 223.02 180.5 216.59 176.22 209.128C169.656 196.162 168.079 181.239 171.787 167.188C172.276 165.676 172.449 164.08 172.297 162.498C172.144 160.916 171.669 159.382 170.901 157.991C170.132 156.599 169.087 155.38 167.829 154.409C166.571 153.438 165.127 152.735 163.587 152.343C162.046 151.951 160.442 151.88 158.873 152.132C157.304 152.385 155.803 152.957 154.463 153.812C153.124 154.667 151.974 155.788 151.084 157.105C150.194 158.422 149.584 159.907 149.291 161.469C144.008 181.197 146.339 202.191 155.821 220.28C161.103 229.591 168.178 237.762 176.636 244.323C185.095 250.883 194.77 255.702 205.103 258.502C205.484 260.313 205.913 262.172 206.342 263.983C205.824 285.325 208.148 306.64 213.253 327.369C217.574 345.045 224.124 362.1 232.746 378.125C242.905 396.992 256.257 413.955 272.209 428.262C297.411 450.397 327.758 465.865 360.478 473.252C382.042 478.046 404.256 479.205 426.203 476.683C397.015 502.102 362.125 520.102 324.494 529.156ZM455.562 446.992C426.861 455.855 396.364 457.196 366.995 450.887C337.626 444.578 310.371 430.83 287.842 410.962C269.263 394.216 254.726 373.472 245.329 350.293C271.256 377.077 315.819 410.676 379.161 415.633C407.141 417.772 435.259 414.038 461.71 404.671C464.761 403.623 467.763 402.479 470.766 401.287C477.057 398.762 483.205 395.807 489.306 392.709C484.61 403.378 479.13 413.685 472.911 423.544C467.626 431.717 461.832 439.548 455.562 446.992Z" fill="#383838"/>
<path d="M195 136.063L222.36 148.131C224.913 148.836 227.569 149.115 230.217 148.957C234.149 148.493 237.94 147.228 241.346 145.245C244.753 143.262 247.7 140.603 250 137.439L223.903 124.591C220.828 123.956 217.666 123.831 214.549 124.224C206.728 125.569 199.731 129.806 195 136.063Z" fill="#383838"/>
</svg>
