<svg width="624" height="669" viewBox="0 0 624 669" fill="none" xmlns="http://www.w3.org/2000/svg">
<circle cx="337.5" cy="364.5" r="266" stroke="black"/>
<path d="M603.129 365.65C603.129 513.297 484.134 632.983 337.353 632.983C190.572 632.983 71.5768 513.297 71.5768 365.65C71.5768 218.004 190.572 98.3173 337.353 98.3173C484.134 98.3173 603.129 218.004 603.129 365.65Z" stroke="#5B5B5B"/>
<mask id="path-3-inside-1_4558_851" fill="white">
<path fill-rule="evenodd" clip-rule="evenodd" d="M249.917 132.698L504.571 260.757L446.695 333.517C421.907 318.446 392.733 309.755 361.507 309.755C312.249 309.755 268.094 331.383 238.212 365.568L146.932 313.549L249.917 132.698Z"/>
</mask>
<path fill-rule="evenodd" clip-rule="evenodd" d="M249.917 132.698L504.571 260.757L446.695 333.517C421.907 318.446 392.733 309.755 361.507 309.755C312.249 309.755 268.094 331.383 238.212 365.568L146.932 313.549L249.917 132.698Z" fill="white"/>
<path d="M504.571 260.757L505.353 261.38L506.119 260.417L505.02 259.864L504.571 260.757ZM249.917 132.698L250.367 131.805L249.518 131.378L249.048 132.204L249.917 132.698ZM446.695 333.517L446.175 334.372L446.929 334.83L447.478 334.14L446.695 333.517ZM238.212 365.568L237.717 366.436L238.427 366.841L238.965 366.226L238.212 365.568ZM146.932 313.549L146.063 313.054L145.568 313.923L146.437 314.418L146.932 313.549ZM505.02 259.864L250.367 131.805L249.468 133.592L504.121 261.651L505.02 259.864ZM447.478 334.14L505.353 261.38L503.788 260.135L445.912 332.895L447.478 334.14ZM361.507 310.755C392.545 310.755 421.54 319.393 446.175 334.372L447.215 332.663C422.274 317.499 392.92 308.755 361.507 308.755V310.755ZM238.965 366.226C268.664 332.251 312.547 310.755 361.507 310.755V308.755C311.95 308.755 267.525 330.515 237.459 364.909L238.965 366.226ZM146.437 314.418L237.717 366.436L238.707 364.699L147.427 312.68L146.437 314.418ZM249.048 132.204L146.063 313.054L147.801 314.044L250.786 133.193L249.048 132.204Z" fill="#5B5B5B" mask="url(#path-3-inside-1_4558_851)"/>
<mask id="path-5-inside-2_4558_851" fill="white">
<path fill-rule="evenodd" clip-rule="evenodd" d="M589.41 279.073C574.783 370.201 499.681 439.595 409.233 439.595C308.3 439.595 226.477 353.18 226.477 246.581C226.477 189.288 250.113 137.825 287.649 102.475C164.343 125.892 71.0768 234.816 71.0768 365.65C71.0768 513.57 190.293 633.483 337.353 633.483C484.413 633.483 603.629 513.57 603.629 365.65C603.629 335.353 598.628 306.231 589.41 279.073Z"/>
</mask>
<path fill-rule="evenodd" clip-rule="evenodd" d="M589.41 279.073C574.783 370.201 499.681 439.595 409.233 439.595C308.3 439.595 226.477 353.18 226.477 246.581C226.477 189.288 250.113 137.825 287.649 102.475C164.343 125.892 71.0768 234.816 71.0768 365.65C71.0768 513.57 190.293 633.483 337.353 633.483C484.413 633.483 603.629 513.57 603.629 365.65C603.629 335.353 598.628 306.231 589.41 279.073Z" fill="white"/>
<path d="M589.41 279.073L590.357 278.752L588.423 278.915L589.41 279.073ZM287.649 102.475L288.335 103.203L290.83 100.853L287.463 101.493L287.649 102.475ZM588.423 278.915C573.866 369.605 499.143 438.595 409.233 438.595V440.595C500.22 440.595 575.701 370.796 590.398 279.232L588.423 278.915ZM409.233 438.595C308.903 438.595 227.477 352.68 227.477 246.581H225.477C225.477 353.68 307.697 440.595 409.233 440.595V438.595ZM227.477 246.581C227.477 189.565 250.998 138.365 288.335 103.203L286.964 101.747C249.229 137.284 225.477 189.01 225.477 246.581H227.477ZM72.0768 365.65C72.0768 235.301 164.997 126.786 287.836 103.458L287.463 101.493C163.689 124.999 70.0768 234.331 70.0768 365.65H72.0768ZM337.353 632.483C190.85 632.483 72.0768 513.023 72.0768 365.65H70.0768C70.0768 514.117 189.735 634.483 337.353 634.483V632.483ZM602.629 365.65C602.629 513.023 483.855 632.483 337.353 632.483V634.483C484.971 634.483 604.629 514.117 604.629 365.65H602.629ZM588.463 279.395C597.646 306.45 602.629 335.464 602.629 365.65H604.629C604.629 335.242 599.609 306.012 590.357 278.752L588.463 279.395Z" fill="#5B5B5B" mask="url(#path-5-inside-2_4558_851)"/>
<mask id="path-7-inside-3_4558_851" fill="white">
<path fill-rule="evenodd" clip-rule="evenodd" d="M287.649 102.475C286.326 102.727 285.006 102.988 283.689 103.259C162.351 128.233 71.0768 236.22 71.0768 365.65C71.0768 513.57 190.293 633.483 337.353 633.483C456.742 633.483 557.779 554.451 591.575 445.563C557.515 473.419 513.229 490.251 464.816 490.251C393.382 490.251 330.934 453.605 297.061 398.973C254.107 363.655 226.477 308.526 226.477 246.581C226.477 189.288 250.113 137.825 287.649 102.475Z"/>
</mask>
<path fill-rule="evenodd" clip-rule="evenodd" d="M287.649 102.475C286.326 102.727 285.006 102.988 283.689 103.259C162.351 128.233 71.0768 236.22 71.0768 365.65C71.0768 513.57 190.293 633.483 337.353 633.483C456.742 633.483 557.779 554.451 591.575 445.563C557.515 473.419 513.229 490.251 464.816 490.251C393.382 490.251 330.934 453.605 297.061 398.973C254.107 363.655 226.477 308.526 226.477 246.581C226.477 189.288 250.113 137.825 287.649 102.475Z" fill="white"/>
<path d="M283.689 103.259L283.891 104.238L283.689 103.259ZM287.649 102.475L288.335 103.203L290.83 100.853L287.463 101.493L287.649 102.475ZM591.575 445.563L592.53 445.86L593.515 442.684L590.942 444.789L591.575 445.563ZM297.061 398.973L297.911 398.446L297.824 398.305L297.696 398.2L297.061 398.973ZM283.891 104.238C285.202 103.968 286.517 103.708 287.836 103.458L287.463 101.493C286.134 101.745 284.809 102.007 283.487 102.279L283.891 104.238ZM72.0768 365.65C72.0768 236.7 163.012 129.118 283.891 104.238L283.487 102.279C161.69 127.348 70.0768 235.74 70.0768 365.65H72.0768ZM337.353 632.483C190.85 632.483 72.0768 513.023 72.0768 365.65H70.0768C70.0768 514.117 189.735 634.483 337.353 634.483V632.483ZM590.62 445.267C556.949 553.752 456.288 632.483 337.353 632.483V634.483C457.195 634.483 558.608 555.151 592.53 445.86L590.62 445.267ZM464.816 491.251C513.463 491.251 557.972 474.337 592.208 446.337L590.942 444.789C557.057 472.501 512.995 489.251 464.816 489.251V491.251ZM296.211 399.5C330.267 454.427 393.037 491.251 464.816 491.251V489.251C393.727 489.251 331.601 452.783 297.911 398.446L296.211 399.5ZM297.696 398.2C254.973 363.072 227.477 308.226 227.477 246.581H225.477C225.477 308.826 253.242 364.238 296.426 399.745L297.696 398.2ZM227.477 246.581C227.477 189.565 250.998 138.365 288.335 103.203L286.964 101.747C249.229 137.284 225.477 189.01 225.477 246.581H227.477Z" fill="#5B5B5B" mask="url(#path-7-inside-3_4558_851)"/>
<mask id="path-9-inside-4_4558_851" fill="white">
<path fill-rule="evenodd" clip-rule="evenodd" d="M287.649 102.475C286.326 102.727 285.006 102.988 283.689 103.259C162.351 128.233 71.0768 236.22 71.0768 365.65C71.0768 513.57 190.293 633.483 337.353 633.483C417.777 633.483 489.873 597.62 538.698 540.926C518 548.449 495.669 552.551 472.383 552.551C373.333 552.551 291.56 478.334 279.287 382.3C246.637 347.433 226.477 299.493 226.477 246.581C226.477 189.288 250.113 137.825 287.649 102.475Z"/>
</mask>
<path fill-rule="evenodd" clip-rule="evenodd" d="M287.649 102.475C286.326 102.727 285.006 102.988 283.689 103.259C162.351 128.233 71.0768 236.22 71.0768 365.65C71.0768 513.57 190.293 633.483 337.353 633.483C417.777 633.483 489.873 597.62 538.698 540.926C518 548.449 495.669 552.551 472.383 552.551C373.333 552.551 291.56 478.334 279.287 382.3C246.637 347.433 226.477 299.493 226.477 246.581C226.477 189.288 250.113 137.825 287.649 102.475Z" fill="white"/>
<path d="M283.689 103.259L283.891 104.238L283.689 103.259ZM287.649 102.475L288.335 103.203L290.83 100.853L287.463 101.493L287.649 102.475ZM538.698 540.926L539.455 541.579L541.952 538.679L538.356 539.986L538.698 540.926ZM279.287 382.3L280.279 382.173L280.238 381.852L280.017 381.616L279.287 382.3ZM283.891 104.238C285.202 103.968 286.517 103.708 287.836 103.458L287.463 101.493C286.134 101.745 284.809 102.007 283.487 102.279L283.891 104.238ZM72.0768 365.65C72.0768 236.7 163.012 129.118 283.891 104.238L283.487 102.279C161.69 127.348 70.0768 235.74 70.0768 365.65H72.0768ZM337.353 632.483C190.85 632.483 72.0768 513.023 72.0768 365.65H70.0768C70.0768 514.117 189.735 634.483 337.353 634.483V632.483ZM537.94 540.273C489.297 596.757 417.473 632.483 337.353 632.483V634.483C418.081 634.483 490.45 598.483 539.455 541.579L537.94 540.273ZM472.383 553.551C495.787 553.551 518.234 549.428 539.039 541.866L538.356 539.986C517.766 547.47 495.55 551.551 472.383 551.551V553.551ZM278.295 382.426C290.63 478.951 372.821 553.551 472.383 553.551V551.551C373.845 551.551 292.489 477.717 280.279 382.173L278.295 382.426ZM280.017 381.616C247.538 346.933 227.477 299.237 227.477 246.581H225.477C225.477 299.75 245.735 347.933 278.557 382.983L280.017 381.616ZM227.477 246.581C227.477 189.565 250.998 138.365 288.335 103.203L286.964 101.747C249.229 137.284 225.477 189.01 225.477 246.581H227.477Z" fill="#5B5B5B" mask="url(#path-9-inside-4_4558_851)"/>
<path d="M363.335 262.884C363.335 302.964 330.856 335.456 290.791 335.456C250.726 335.456 218.247 302.964 218.247 262.884C218.247 222.803 250.726 190.312 290.791 190.312C330.856 190.312 363.335 222.803 363.335 262.884Z" stroke="#5B5B5B"/>
<line y1="-0.5" x2="602.207" y2="-0.5" transform="matrix(-0.732596 0.680664 -0.680386 -0.732854 417.963 36.0992)" stroke="#5B5B5B"/>
<line y1="-0.5" x2="659.289" y2="-0.5" transform="matrix(-0.395497 0.918467 -0.918358 -0.395751 417.963 36.0992)" stroke="#5B5B5B"/>
</svg>
