<svg width="173" height="89" viewBox="0 0 173 89" fill="none" xmlns="http://www.w3.org/2000/svg">
<path opacity="0.8" d="M1 84H162.5C168.023 84 172.5 79.5228 172.5 74V15C172.5 9.47715 168.023 5 162.5 5H148" stroke="#383838" stroke-dasharray="4 4"/>
<path opacity="0.8" d="M147.629 4.65028C147.355 4.80268 147.355 5.1972 147.629 5.34961L155.406 9.6698C155.672 9.81792 156 9.62513 156 9.32014V0.679749C156 0.374755 155.672 0.181968 155.406 0.330086L147.629 4.65028Z" fill="#5B5B5B"/>
<path opacity="0.8" d="M0.629394 83.6503C0.35507 83.8027 0.355069 84.1972 0.629393 84.3496L8.40574 88.6698C8.67236 88.8179 9 88.6251 9 88.3201V79.6797C9 79.3748 8.67236 79.182 8.40574 79.3301L0.629394 83.6503Z" fill="#5B5B5B"/>
</svg>
